<svg width="389" height="80" viewBox="0 0 389 80" fill="none" xmlns="http://www.w3.org/2000/svg">
<mask id="mask0_3742_1770" style="mask-type:luminance" maskUnits="userSpaceOnUse" x="0" y="0" width="389" height="80">
<path d="M388.779 0H0V80H388.779V0Z" fill="white"/>
</mask>
<g mask="url(#mask0_3742_1770)">
<path d="M76.3042 72.7569C76.3489 72.747 76.4105 72.7957 76.4327 72.8214C74.6874 74.6104 72.4493 75.8359 70.3012 76.447C68.7076 76.8996 67.1028 76.9759 65.4603 76.7917C62.9334 76.5085 60.7042 75.4958 58.612 74.1209C57.3596 73.2976 56.1207 72.4548 54.8815 71.6117C53.4587 70.6425 51.8884 70.4651 50.236 70.7351C49.3404 70.8323 50.0194 71.2627 50.1567 71.3306C52.3771 72.4178 54.4666 73.7205 56.4194 75.227C57.7464 76.2005 60.1143 78.4832 60.1143 78.4832L58.3432 80C58.3432 80 56.9916 78.4856 56.4028 77.8968C52.5174 73.8497 49.0773 72.071 48.3142 71.6317C48.1804 71.5549 48.0522 71.4811 47.9162 71.4811C47.7803 71.4811 47.6518 71.5549 47.518 71.6317C46.7555 72.071 43.3149 73.8497 39.4286 77.8968C38.8406 78.4856 37.4893 80 37.4893 80L35.7172 78.4832C35.7172 78.4832 38.0858 76.2005 39.4128 75.227C41.3656 73.7205 43.4556 72.4178 45.6758 71.3306C45.8128 71.2627 46.4921 70.8323 45.5968 70.7351C43.9438 70.4651 42.3738 70.6425 40.9507 71.6117C39.7115 72.4548 38.4718 73.2976 37.2195 74.1209C35.1283 75.4958 32.8991 76.5085 30.3709 76.7917C28.7294 76.9759 27.1246 76.8996 25.531 76.447C23.3832 75.8359 21.1395 74.6024 19.3942 72.8139C19.4164 72.788 19.4833 72.747 19.528 72.7569C19.6763 72.8228 19.7678 72.8696 19.9118 72.9443C22.5056 74.279 25.2388 74.4343 28.048 73.8934C29.9662 73.524 31.7482 72.7559 33.5337 71.9928C34.8128 71.4476 36.0761 70.8465 37.3932 70.4115C40.8067 69.2853 44.2661 69.2987 47.7399 70.1787C47.7969 70.1942 47.856 70.202 47.9162 70.2097C47.9751 70.202 48.0356 70.1942 48.0924 70.1787C51.5662 69.2987 55.0255 69.2853 58.4391 70.4115C59.7562 70.8465 61.0197 71.4476 62.2988 71.9928C64.0829 72.7559 65.8663 73.524 67.7842 73.8934C70.5935 74.4343 73.3267 74.279 75.9207 72.9443C76.0647 72.8696 76.156 72.8228 76.3042 72.7569ZM84.4985 65.3174C83.0131 66.4584 82.0563 66.8363 80.8243 67.2592C78.9719 67.8949 76.9758 68.0228 75.0407 68.1242C72.4839 68.258 70.0159 68.3686 67.4954 68.7781C67.4821 68.7802 67.4687 68.7824 67.4556 68.7845C67.2971 68.8102 67.2243 68.7433 67.276 68.6887C67.2848 68.6799 67.3014 68.6675 67.3137 68.663C69.5609 67.84 71.0875 66.0971 72.2374 63.9091C73.0333 62.3934 74.337 59.4327 74.6997 58.9487C74.7075 58.9386 74.6984 58.8406 74.6751 58.8216C74.5043 58.8776 72.031 60.9829 70.9079 62.0254C69.5151 63.3202 68.2034 64.7029 66.8095 65.9978C64.6319 68.0777 61.5004 68.9911 60.3661 69.2853C60.3404 69.292 60.289 69.311 60.2767 69.3254C60.2433 69.3691 60.2267 69.4092 60.22 69.4279C60.2178 69.436 60.2211 69.4413 60.2291 69.4427C60.2433 69.4459 60.2658 69.4515 60.2802 69.455C61.1602 69.6554 63.7015 70.2076 65.0053 70.5555C67.0102 71.093 69.02 71.5437 71.0974 71.6898C73.3478 71.848 75.5883 71.6117 77.6805 70.8323C80.0591 69.9456 82.9909 67.8512 84.6647 65.342C84.6693 65.3351 84.6738 65.3241 84.6693 65.322C84.5968 65.284 84.5119 65.3086 84.4985 65.3174ZM92.1578 53.5747C92.0887 53.6638 90.8364 55.3042 87.766 57.4063C86.2762 58.4445 84.8922 59.1059 83.2553 59.8654C81.2124 60.8145 79.4526 61.6809 77.715 63.1195C77.6026 63.2121 77.5087 63.2825 77.3949 63.366C77.3339 63.4104 77.2734 63.3347 77.3403 63.2568C77.4251 63.1586 79.9809 60.5413 80.7493 54.9943C81.017 53.0581 81.055 50.9672 81.6829 49.1015C81.7005 49.0423 81.665 48.9789 81.6438 48.95C81.6406 48.9454 81.6237 48.9567 81.6203 48.9612C79.7424 51.1088 78.1788 54.4501 77.4495 56.5386C76.9335 58.0176 76.4405 59.5038 75.9062 60.9759C75.1815 62.9734 74.2345 64.848 72.6977 66.3679C72.6755 66.3915 72.5596 66.513 72.5596 66.513C72.5596 66.513 72.5406 66.5489 72.5339 66.6045C72.5339 66.6099 72.5417 66.6211 72.5462 66.6201C72.7657 66.5823 72.9097 66.5609 73.0515 66.5307C74.7621 66.1774 76.4627 65.7681 78.1834 65.4815C81.0595 65.0019 83.5719 63.9805 85.8895 62.2015C88.2132 60.4173 90.1807 58.3388 91.4643 55.6789C91.7975 54.9876 92.111 54.3107 92.3173 53.5535C92.2737 53.5367 92.2046 53.5399 92.1578 53.5747ZM95.5125 40.3754C94.774 42.7296 93.4393 44.6352 91.4919 46.6852C89.9652 48.2608 87.027 51.2405 85.6698 53.307C85.6318 53.3651 85.5303 53.3394 85.568 53.2345C86.2216 51.4356 86.5005 48.2541 86.109 45.7883C85.7744 43.6851 84.8532 41.3903 84.6259 38.8161C84.6235 38.804 84.627 38.8019 84.6225 38.7896C84.6091 38.7561 84.5521 38.678 84.5143 38.6745C84.5133 38.6822 84.4886 38.7192 84.4273 38.9188C83.9857 40.4145 83.4338 42.2877 83.3423 44.0274C83.2307 46.1263 83.6265 48.825 83.4539 50.9852C83.2529 53.4807 83.0824 55.95 81.9382 58.2138C81.9326 58.225 81.9294 58.2384 81.9248 58.2507C81.9016 58.3107 81.965 58.4223 81.965 58.4223C81.965 58.4223 81.9752 58.4201 81.9794 58.4167C82.8975 57.8313 85.5124 56.2891 87.2366 55.1383C89.3887 53.7007 91.2925 51.9921 92.7811 49.8434C94.6402 47.1578 95.7196 43.9236 95.665 40.6296C95.6629 40.518 95.6551 40.3216 95.6428 40.2972C95.6182 40.2871 95.5178 40.3585 95.5125 40.3754ZM89.9652 41.796C89.9575 41.8271 89.9307 41.8405 89.9219 41.844C89.8683 41.8597 89.8426 41.7947 89.8437 41.7805C89.9272 41.1135 89.9331 40.2905 89.8873 39.6637C89.7077 37.1981 88.2202 35.1563 86.9154 33.1042C86.2353 32.0336 85.0563 30.1625 84.5531 28.9021C84.5489 28.8912 84.4498 28.8285 84.4193 28.8419C84.4062 29.0627 84.4517 29.7889 84.5009 30.2583C84.8665 33.7878 85.9907 37.2439 87.1539 40.5938C87.9322 42.8364 88.3213 44.7581 88.0818 47.1289C88.0561 47.3262 88.0494 47.3473 88.1318 47.4075C88.1353 47.4099 88.1399 47.4022 88.142 47.4054C88.9369 46.2577 90.4861 44.6476 91.4397 43.4857C92.4734 42.2278 97.6802 36.2927 95.1153 28.0235C94.9603 27.5248 94.7751 27.0934 94.7114 26.9997C94.6715 27.0008 94.6022 27.1036 94.5945 27.1303C94.6102 33.0785 91.733 35.6324 90.5318 39.7017C90.3033 40.4768 90.1226 41.196 89.9652 41.796ZM85.4811 23.3075C84.5379 22.4923 83.1338 21.0413 82.3119 19.7767C82.3062 19.7665 82.2995 19.7599 82.2928 19.7532C82.2816 19.7422 82.2693 19.732 82.2573 19.7253C82.2059 19.6929 82.14 19.6897 82.1221 19.6986C82.0844 19.6919 82.0533 19.6943 82.0552 19.7031C82.1066 19.9507 82.925 22.5747 83.4539 23.797C84.2175 25.5611 85.4441 27.0399 86.5939 28.5588C86.6766 28.669 86.7601 28.7785 86.8428 28.8898C87.9972 30.4411 89.8426 33.7466 90.2877 35.4426C90.2998 35.4908 90.4026 35.5355 90.4068 35.5152C90.5688 34.9098 91.3147 32.5579 91.8677 30.9697C91.9838 30.6397 92.9629 27.4512 93.1604 26.072C93.719 22.1588 92.4289 17.0812 90.1448 14.3068C90.1068 14.3199 90.0747 14.4216 90.0814 14.4438C90.1237 14.5745 90.1536 14.6748 90.1919 14.8052C90.242 14.9759 90.2899 15.1475 90.33 15.3228C90.9255 17.8719 90.7259 19.6707 90.4336 21.8387C90.2008 23.5671 89.8662 25.2779 89.9553 27.0209C89.9698 27.3121 90.1483 29.4578 90.1215 29.5391C90.0916 29.635 90.0046 29.5614 89.9941 29.511C89.9909 29.4955 89.7134 28.7137 89.4345 28.0591C89.3186 27.7748 89.2016 27.5061 89.1031 27.3121C88.1867 25.4921 87.0013 24.5475 85.4811 23.3075ZM82.962 7.46495C83.6945 8.17983 84.2643 8.97822 84.6629 9.91499C85.2926 11.3927 85.4776 13.6141 85.8849 15.2947C86.1336 16.3152 86.2864 17.0379 86.6443 18.1965C86.6767 18.298 86.5707 18.3448 86.5171 18.2476C86.5083 18.2343 86.4995 18.2222 86.4893 18.2099C85.3116 16.6139 83.8508 15.6183 81.7688 14.3044C80.532 13.4926 79.5896 12.7579 78.6943 11.5434C78.5394 11.3349 78.3796 11.1306 78.2225 10.9254C78.2091 10.9088 78.1143 10.8753 78.0852 10.8865C78.0809 10.9334 78.102 11.0257 78.121 11.144C78.3873 12.4855 79.2864 14.9679 80.8253 16.4389C81.9326 17.4961 83.1772 18.435 84.3594 19.4132C86.4671 21.1773 88.005 23.0822 88.4999 23.7122C88.5079 23.721 88.5221 23.7368 88.5221 23.7368C88.5221 23.7368 88.6171 23.797 88.6149 23.7636C88.6136 23.7556 88.6136 23.7457 88.6125 23.7376C88.6125 23.7368 88.6149 23.7368 88.6149 23.7358C88.586 23.4266 88.5748 22.936 88.5748 22.356C88.5759 21.0646 88.6337 19.3372 88.6907 18.1486C88.7129 17.6679 88.7298 17.1851 88.7274 16.7033C88.7241 15.2679 88.5636 13.8494 87.9603 12.489C86.9802 10.283 85.5223 8.52884 83.3423 7.4438C83.2138 7.38037 83.0447 7.3156 82.9352 7.28883C82.9309 7.28776 82.9151 7.35682 82.9462 7.44487C82.9486 7.45397 82.9553 7.45959 82.962 7.46495ZM73.9313 3.29554C75.1938 4.41725 76.2063 5.74531 77.154 7.13601C78.063 8.46996 78.962 9.82265 80.1974 10.893C81.0138 11.7173 83.3902 13.5641 83.9846 14.0244C83.9938 14.0325 84.0026 14.0413 84.0103 14.0448C84.0291 14.0523 84.0607 14.0413 84.0607 14.0413C84.0607 14.0413 84.0572 14.0244 84.0561 14.0145C83.9311 13.332 82.8571 8.32597 79.7234 5.84809C78.0394 4.39155 75.8024 3.49949 73.6302 2.90049C73.608 2.94171 73.6323 3.05011 73.6457 3.0477C73.7506 3.13923 73.8264 3.20267 73.9313 3.29554ZM24.7203 71.6898C26.7978 71.5437 28.8076 71.093 30.8125 70.5555C32.1162 70.2076 34.6578 69.6554 35.5378 69.455C35.552 69.4515 35.5742 69.4459 35.589 69.4427C35.5967 69.4413 35.6002 69.436 35.5978 69.4279C35.5911 69.4092 35.5742 69.3691 35.5408 69.3254C35.5287 69.311 35.4773 69.292 35.4506 69.2853C34.3176 68.9922 31.1862 68.0777 29.008 65.9978C27.6141 64.7029 26.3029 63.3202 24.9101 62.0254C23.7868 60.9829 21.3135 58.8776 21.1427 58.8205C21.1194 58.8406 21.1103 58.9386 21.1183 58.9487C21.4807 59.4327 22.7844 62.3934 23.5807 63.9091C24.7305 66.0971 26.2572 67.84 28.5041 68.663C28.5164 68.6675 28.5332 68.6799 28.5421 68.6887C28.5932 68.7433 28.5209 68.8102 28.3625 68.7845C28.3491 68.7824 28.3357 68.7802 28.3226 68.7781C25.8022 68.3686 23.3342 68.258 20.7771 68.1242C18.8423 68.0228 16.8462 67.8949 14.9938 67.2592C13.7613 66.8363 12.8044 66.4584 11.319 65.3174C11.3048 65.3086 11.221 65.284 11.1485 65.322C11.1439 65.3241 11.1485 65.3351 11.153 65.342C12.8269 67.8512 15.7587 69.9456 18.1376 70.8323C20.2295 71.6117 22.4697 71.848 24.7203 71.6898ZM22.7665 66.5307C22.9081 66.5609 23.0521 66.5823 23.2716 66.6201C23.2761 66.6211 23.2839 66.6099 23.2839 66.6035C23.2772 66.5489 23.2584 66.513 23.2584 66.513C23.2584 66.513 23.1423 66.3915 23.119 66.3679C21.5832 64.8469 20.6376 62.9734 19.9118 60.9759C19.3776 59.5038 18.8835 58.0176 18.3683 56.5386C17.6389 54.4501 16.0756 51.1102 14.1975 48.9612C14.194 48.9567 14.1774 48.9454 14.174 48.95C14.1528 48.9789 14.117 49.0423 14.1352 49.1004C14.7628 50.9672 14.8008 53.0581 15.0684 54.9943C15.8366 60.5413 18.3926 63.1586 18.4775 63.2568C18.5444 63.3347 18.4831 63.4104 18.4229 63.366C18.3102 63.2825 18.2154 63.2132 18.1028 63.1195C16.3655 61.6809 14.6057 60.8145 12.5627 59.8654C10.9255 59.1059 9.54153 58.4445 8.05154 57.4063C4.98163 55.3042 3.72931 53.6638 3.65891 53.5747C3.61315 53.5399 3.54383 53.5367 3.50047 53.5535C3.70816 54.3107 4.02024 54.9876 4.35373 55.6789C5.63736 58.3388 7.6043 60.4165 9.92855 62.2015C12.2458 63.9805 14.7585 65.0019 17.6344 65.4815C19.3554 65.7681 21.0557 66.1784 22.7665 66.5307ZM8.58148 55.1383C10.3054 56.2891 12.9206 57.8313 13.8383 58.4167C13.8429 58.4201 13.8528 58.4223 13.8528 58.4223C13.8528 58.4223 13.9162 58.3107 13.8929 58.2507C13.8887 58.2384 13.8852 58.225 13.8796 58.2138C12.7354 55.95 12.5649 53.4807 12.3641 50.9852C12.1912 48.825 12.5874 46.1263 12.4757 44.0274C12.3831 42.2877 11.831 40.4145 11.3904 38.9188C11.3291 38.7192 11.3048 38.6822 11.3037 38.6745C11.2657 38.678 11.2087 38.7561 11.1953 38.7896C11.191 38.8019 11.1943 38.804 11.1921 38.8161C10.9646 41.3903 10.0423 43.6851 9.70908 45.7883C9.31751 48.2541 9.59613 51.4356 10.2497 53.2345C10.2877 53.3394 10.185 53.3651 10.148 53.307C8.79105 51.2405 5.85255 48.2608 4.32562 46.6852C2.37876 44.6352 1.044 42.7296 0.305566 40.3754C0.299945 40.3585 0.199577 40.2871 0.176024 40.2972C0.162909 40.3216 0.15488 40.518 0.153006 40.6296C0.0978709 43.9236 1.17783 47.1578 3.03663 49.8434C4.52529 51.9921 6.42906 53.7007 8.58148 55.1383ZM7.67576 47.4054C7.67817 47.4022 7.68245 47.4099 7.68593 47.4089C7.76837 47.3473 7.76168 47.3262 7.73625 47.1289C7.49644 44.7592 7.88533 42.8364 8.66392 40.5938C9.82711 37.2439 10.951 33.7878 11.3168 30.2594C11.3661 29.7889 11.4119 29.0627 11.3982 28.8419C11.3682 28.8285 11.2689 28.8912 11.2644 28.9035C10.7615 30.1625 9.58275 32.0347 8.90266 33.1042C7.59788 35.1563 6.10896 37.1981 5.93044 39.6637C5.88494 40.2905 5.89056 41.1135 5.97406 41.7805C5.97513 41.7947 5.94971 41.8597 5.89618 41.844C5.88708 41.8405 5.86031 41.8271 5.85255 41.796C5.69544 41.196 5.51478 40.4768 5.28487 39.7017C4.08501 35.6324 1.2078 33.0785 1.2236 27.1303C1.21557 27.1036 1.14625 27.0008 1.10637 26.9997C1.04267 27.0934 0.857454 27.5248 0.702486 28.0235C-1.86238 36.2927 3.34443 42.2278 4.37728 43.4857C5.33171 44.6476 6.88058 46.2577 7.67576 47.4054ZM3.94878 30.9686C4.50414 32.5579 5.24927 34.9098 5.41093 35.5165C5.41548 35.5355 5.51772 35.4908 5.53004 35.4426C5.97513 33.7466 7.82083 30.4411 8.97492 28.8898C9.05763 28.7785 9.1414 28.669 9.22383 28.5588C10.3734 27.0399 11.6003 25.5611 12.3641 23.797C12.8925 22.5747 13.7112 19.9507 13.7637 19.7031C13.7647 19.6943 13.7337 19.6919 13.6957 19.6975C13.6778 19.6897 13.6122 19.6929 13.5605 19.7253C13.5482 19.732 13.5359 19.7422 13.5249 19.7532C13.5182 19.7588 13.5118 19.7665 13.5059 19.7767C12.6842 21.0413 11.2802 22.4923 10.3364 23.3075C8.81674 24.5475 7.63133 25.4921 6.71464 27.3121C6.61642 27.5061 6.49919 27.7748 6.3833 28.058C6.10467 28.7137 5.82686 29.4955 5.82338 29.511C5.81347 29.5614 5.72649 29.635 5.69544 29.5391C5.66975 29.4578 5.848 27.3121 5.86352 27.0209C5.95078 25.2779 5.61729 23.5671 5.3839 21.8387C5.09216 19.6707 4.8925 17.8719 5.48668 15.3215C5.52682 15.1488 5.5758 14.9759 5.62612 14.8052C5.66386 14.6748 5.69437 14.5745 5.73666 14.4438C5.74308 14.4216 5.71096 14.3199 5.67296 14.3068C3.38886 17.0812 2.0988 22.1588 2.65765 26.072C2.8549 27.4512 3.83396 30.6397 3.94878 30.9686ZM7.24325 22.356C7.24325 22.936 7.232 23.4266 7.20283 23.7358C7.20283 23.7376 7.20524 23.7368 7.20524 23.7376C7.2039 23.7457 7.2039 23.7556 7.20283 23.7636C7.19962 23.797 7.29544 23.7368 7.29544 23.7368C7.29544 23.7368 7.31016 23.721 7.31792 23.7122C7.81307 23.0822 9.3499 21.1773 11.4587 19.4132C12.6406 18.435 13.8852 17.4961 14.9927 16.4389C16.5317 14.9679 17.4302 12.4855 17.6967 11.144C17.716 11.0257 17.7372 10.9334 17.7326 10.8865C17.7037 10.8753 17.6087 10.9088 17.5953 10.9254C17.4382 11.1306 17.2787 11.3349 17.1248 11.5434C16.2282 12.7579 15.286 13.4926 14.049 14.3044C11.967 15.6183 10.5061 16.6139 9.32848 18.2099C9.31965 18.2222 9.30948 18.2343 9.30065 18.2476C9.24712 18.3448 9.1414 18.298 9.17379 18.1965C9.53163 17.0379 9.68445 16.3152 9.9331 15.2947C10.3399 13.6141 10.5251 11.3927 11.1552 9.91499C11.5532 8.97822 12.1233 8.17983 12.855 7.46495C12.8625 7.45959 12.8692 7.45397 12.8727 7.44487C12.9026 7.35682 12.8871 7.28776 12.8826 7.28991C12.7734 7.3156 12.6026 7.38037 12.4757 7.4438C10.2955 8.52884 8.83789 10.283 7.85776 12.489C7.25422 13.8494 7.09363 15.2679 7.09015 16.7033C7.08935 17.1851 7.10487 17.6679 7.12709 18.1486C7.18409 19.3383 7.24191 21.0646 7.24325 22.356ZM11.7574 14.0413C11.7574 14.0413 11.7887 14.0523 11.8074 14.0448C11.8155 14.0413 11.8243 14.0311 11.8331 14.0244C12.4276 13.5641 14.8029 11.7173 15.6206 10.893C16.8561 9.82131 17.7548 8.46996 18.6638 7.13601C19.6107 5.74531 20.6243 4.41725 21.8868 3.29554C21.9903 3.20267 22.0672 3.1403 22.1721 3.04663C22.1844 3.05011 22.2101 2.94171 22.1879 2.90049C20.0154 3.49949 17.7784 4.39155 16.0943 5.84809C12.9607 8.32597 11.8867 13.332 11.7619 14.0145C11.7609 14.0244 11.7574 14.0413 11.7574 14.0413ZM47.0608 41.3199C47.306 40.9508 46.6939 40.7177 46.5347 41.3587C46.385 41.9556 46.8143 41.6879 47.0608 41.3199ZM53.7419 25.8724C53.5045 25.7485 52.5273 26.9395 52.6836 27.1325C52.754 27.2095 53.828 25.9291 53.7419 25.8724ZM53.9514 25.6615C54.0986 25.7386 54.7466 25.3861 54.6262 25.2913C54.5071 25.1955 53.7453 24.843 53.7295 25.0582C53.7073 25.4083 53.8034 25.5847 53.9514 25.6615ZM65.7191 35.9769C65.4123 35.9902 65.0802 36.4343 65.1736 36.4399C65.3944 36.4509 65.5628 36.6093 65.7402 36.5702C66.0657 36.4977 66.0258 35.9648 65.7191 35.9769ZM61.4546 24.8698C61.1902 24.8765 61.1233 25.1642 61.3776 25.2945C61.4913 25.3537 61.8537 25.3001 62.0199 25.1955C62.195 25.085 62.3992 24.9477 62.3612 24.68C62.3387 24.5173 61.9597 24.058 62.1583 23.8816C62.3721 23.6897 62.5887 23.9876 62.7982 23.9062C63.0536 23.8069 63.0303 23.6608 63.0383 23.4435C63.0482 23.1424 62.9278 22.7465 62.5788 22.7465C62.3189 22.7465 61.8674 23.4421 61.847 23.4847C61.8128 23.5604 61.74 23.8147 61.8516 24.0735C62.0065 24.4338 61.9463 24.8564 61.4546 24.8698ZM67.2345 24.9177C67.2267 25.0783 67.6906 26.1957 67.7374 26.5C67.7842 26.8046 67.8801 27.7167 68.1255 27.6231C68.2807 27.5628 68.266 27.0043 68.2325 26.7877C68.1335 26.1534 68.005 25.6047 67.7709 24.892C67.6469 24.5127 67.1098 23.2749 66.9312 23.3185C66.7728 23.3565 67.1978 24.2197 67.2602 24.5007C67.3014 24.6835 67.2436 24.756 67.2345 24.9177ZM64.1801 10.0154C64.4657 10.1238 64.4646 9.5906 63.9794 9.19689C63.4973 8.80452 62.8552 8.99509 63.0289 9.18913C63.1863 9.3631 63.9269 9.91847 64.1801 10.0154ZM51.0287 6.23832C50.4554 5.86816 50.935 5.35749 50.4766 5.01383C50.1557 4.77295 49.2556 5.01169 49.0326 5.29727C48.6456 5.79777 49.5323 5.63183 49.8532 5.77449C50.2124 5.93293 50.983 6.59536 51.12 6.46154C51.2562 6.32638 51.0922 6.29747 51.0287 6.23832ZM54.5124 4.48523C53.7408 4.13274 50.8347 4.14853 50.9104 4.90463C50.973 5.5502 52.5888 4.94371 53.0069 4.90785C53.4266 4.87118 55.1938 4.83531 54.5124 4.48523ZM46.0093 38.3C45.9713 38.156 45.7194 38.1793 45.7818 38.3124C45.8441 38.4448 45.706 38.58 45.835 38.7462C46.0047 38.9277 46.3703 38.9055 46.5547 38.755C46.6604 38.6399 46.5935 38.4226 46.5132 38.3801C46.3738 38.3113 46.047 38.4438 46.0093 38.3ZM44.8897 32.5189C45.1295 32.5189 45.1204 32.3393 45.2598 32.346C45.4004 32.3516 45.2855 32.5277 45.5286 32.5277C45.7695 32.5277 46.0224 31.9065 45.2475 31.9065C44.6164 31.9065 44.6999 32.5098 44.8897 32.5189ZM45.8955 33.1609C45.4137 33.0373 45.5117 33.3116 45.2165 33.344C44.7267 33.3975 45.1619 32.9827 44.9207 32.7921C44.815 32.7084 44.5273 33.1275 44.5059 33.3898C44.4928 33.5158 44.4893 33.9427 44.6965 33.9564C44.9041 33.9695 45.9948 34.0945 46.3583 34.1769C46.7742 34.273 46.3417 33.276 45.8955 33.1609ZM40.5257 38.9499C40.6743 38.9499 40.781 38.4237 40.6898 38.1651C40.5972 37.9063 40.12 38.1004 40.0777 38.2208C40.0362 38.3423 40.3766 38.9499 40.5257 38.9499ZM33.4877 38.8977C33.5093 38.6713 33.4901 38.0088 33.3316 37.8806C33.1737 37.7535 33.1946 37.993 33.0808 37.9797C32.9928 37.9698 33.0005 37.662 32.8889 37.6633C32.7776 37.6633 32.9269 38.1895 33.0463 38.4949C33.1657 38.8019 33.4601 39.3026 33.4877 38.8977ZM33.3185 37.2897C33.3552 37.2115 33.5961 36.1085 33.5594 35.687C33.5211 35.2665 33.2974 34.8696 33.2406 34.8985C33.1643 34.9376 33.2751 35.1897 33.2883 35.5979C33.3086 36.2078 33.0206 36.7153 33.0206 36.916C33.0193 37.1055 33.2013 37.5348 33.3185 37.2897ZM14.5265 33.3898C14.5265 24.4638 17.9978 16.0776 24.3009 9.77474C30.603 3.47165 38.9902 0 47.9162 0C56.842 0 65.2282 3.47165 71.5313 9.77474C77.8344 16.0776 81.306 24.4638 81.306 33.3898C81.306 42.3158 77.8344 50.7031 71.5313 57.0048C65.2282 63.3079 56.842 66.7796 47.9162 66.7796C38.9902 66.7796 30.603 63.3079 24.3009 57.0048C17.9978 50.7031 14.5265 42.3158 14.5265 33.3898ZM24.8116 55.4862L28.4393 51.8582C27.7257 51.1056 27.0556 50.3118 26.4322 49.4818C26.1509 49.3705 25.8656 49.2142 25.6694 48.9711C25.3592 48.5844 25.1965 48.0175 25.0493 48.0175C24.901 48.0186 25.037 48.3778 24.707 48.4259C24.2576 48.4915 23.623 47.3741 23.3754 46.9673C23.0831 46.4876 22.6035 46.4831 22.3683 46.0337C22.3005 45.9044 22.1375 45.5072 21.9871 45.7425C21.7382 46.1421 20.8852 44.8727 20.6676 44.9599C20.4436 45.0469 20.6409 45.3111 20.5151 45.4227C20.271 45.6403 19.5526 44.45 19.2839 44.5715C19.0318 44.6866 18.9737 44.8392 18.9592 45.155C18.9459 45.4829 19.3519 46.326 19.2092 46.3915C19.0061 46.4844 17.9679 43.8403 18.1943 43.7199C18.3212 43.6516 18.3014 43.8403 18.4451 43.7544C18.5936 43.6653 18.3415 43.4822 18.2735 43.1956C18.2021 42.8958 17.9422 42.8889 17.92 42.5588C17.8999 42.2296 18.3693 42.3402 18.364 42.1796C18.3581 42.019 18.4004 41.8362 18.5331 41.7214C18.6884 41.5876 19.0508 41.7278 19.1289 41.264C19.1958 40.8681 19.3952 41.2351 19.4364 41.5295C19.4846 41.8707 20.3566 41.9566 20.3989 41.7224C20.4246 41.5742 20.0467 41.5798 20.0467 41.4481C20.0456 41.196 20.5263 41.4369 20.8539 41.466C20.9966 41.4783 21.2543 41.2471 21.58 41.4157C21.9344 41.5999 22.1533 41.689 22.3886 41.7267C21.5988 39.3168 21.1406 36.7576 21.0715 34.1033H15.9616C16.1366 42.1429 19.2579 49.6849 24.8116 55.4862ZM45.8899 25.8855C45.9255 25.9404 45.5553 26.2771 45.3656 26.6039C45.9568 26.382 46.5713 26.2393 47.2024 26.1778V21.0547C44.3319 21.2199 41.7213 22.3683 39.7027 24.1683L43.3194 27.785C43.7356 27.4437 44.1869 27.148 44.6732 26.9039C44.7992 26.8415 44.9264 26.7834 45.0546 26.7288C45.3021 26.2961 45.8431 25.8143 45.8899 25.8855ZM33.2628 44.9867C33.2639 45.0881 33.2594 45.1885 33.2382 45.2832C33.5034 45.6087 33.7746 45.9291 34.0599 46.2366L37.6833 42.6134C35.9781 40.723 34.7895 38.36 34.3364 35.7472C34.2285 35.7761 34.1314 35.7617 34.0711 35.657C33.9975 35.5299 34.1046 35.4003 34.2606 35.2711C34.2084 34.8865 34.1704 34.497 34.1504 34.1033H31.738C31.7627 34.4871 31.9166 35.0401 31.6634 35.2331C31.4551 35.3915 31.1594 35.2309 30.971 35.2566C30.5082 35.319 30.4022 35.8776 30.5248 36.2568C30.6051 36.5122 30.7167 36.7097 30.672 36.9851C30.6308 37.2439 30.4903 37.4457 30.8998 37.662C31.2742 37.8582 31.881 38.6276 31.8307 38.7604C31.7662 38.9312 31.3936 38.6011 31.37 38.91C31.3558 39.0995 31.92 38.8565 31.8877 39.4986C31.8687 39.8725 31.9623 40.2817 32.0707 40.5381C32.2937 41.0723 32.5501 41.4248 32.5279 42.027C32.5099 42.5265 32.4219 43.0706 32.6403 43.5414C32.8656 44.0253 33.2604 44.4166 33.2628 44.9867ZM30.2507 36.3674C29.9526 36.0261 30.448 35.0559 30.5213 34.8651C30.6005 34.6632 31.0502 34.4036 31.1851 34.1033H29.0383C29.0795 35.2264 29.2211 36.3304 29.4531 37.4098C29.9684 37.5985 30.9587 37.1781 30.2507 36.3674ZM28.9034 50.1721C28.8879 50.1809 28.8699 50.1879 28.852 50.1945C29.0474 50.4164 29.2457 50.6351 29.4489 50.8489L29.8581 50.4397C29.4743 50.1978 29.1207 50.0452 28.9034 50.1721ZM37.6833 24.1661L34.0701 20.5529C31.0914 23.7622 29.2136 28.0055 29.0394 32.676H31.5708C31.9947 31.9935 31.8507 31.474 31.9926 31.0768C32.1285 30.6989 32.3515 30.352 32.5613 30.0118C32.7476 29.7118 32.9593 29.374 33.3498 29.3719C34.175 29.3673 34.38 28.9356 34.9032 28.6958C35.4262 28.4562 36.3517 28.3147 36.2468 28.0414C36.1754 27.8573 34.3155 28.5788 34.2753 28.4383C34.205 28.1918 34.8618 28.2151 35.1382 27.9654C35.1931 27.9143 35.2466 27.8829 35.2978 27.8573C35.8957 26.4989 36.7018 25.2533 37.6833 24.1661ZM37.0321 27.5473C37.0811 27.5262 37.1301 27.5026 37.1815 27.4737C37.8016 27.1191 38.6168 27.1871 38.9635 27.3377C39.4107 27.5329 39.9827 28.0302 40.2428 28.2287C40.3552 28.3147 40.4087 28.1551 40.9352 28.0759C41.1549 28.0435 41.205 28.2643 41.5184 28.309C41.6445 28.3267 41.7481 28.3323 41.8428 28.3256L38.6937 25.1776C38.0524 25.8967 37.4935 26.693 37.0321 27.5473ZM33.4858 31.4381C33.0854 31.3969 32.6794 31.5631 32.4642 31.911C32.3138 32.1519 32.2715 32.4217 32.3226 32.676H34.1504C34.168 32.3302 34.1996 31.9878 34.2419 31.6501C34.0064 31.5272 33.7267 31.4627 33.4858 31.4381ZM38.6947 41.6031L42.3136 37.9831C42.0181 37.624 41.7593 37.2351 41.5363 36.8234C41.5363 36.8234 41.5353 36.8245 41.5353 36.8256C41.4783 36.8914 41.4301 36.9583 41.4014 37.0218C41.3268 37.1837 41.4237 37.7222 41.1994 37.9532C40.9106 38.2519 40.1344 37.295 39.889 37.2158C39.5555 37.1112 39.3962 37.4781 39.4142 37.5841C39.4586 37.8592 39.4029 37.9698 39.2825 37.9944C39.162 38.0177 38.5553 37.6052 38.8264 37.5014C39.1417 37.382 38.7437 37.1101 38.6077 37.0041C38.3736 36.8234 38.0077 36.9918 37.8361 36.752C37.652 36.4945 37.3051 36.3093 37.1983 36.278C37.1255 36.2568 36.7698 36.1064 36.537 36.229C36.3539 36.3272 36.1566 36.1275 36.0193 35.9937C35.9436 35.9201 35.8678 35.8342 35.7873 35.7507C36.219 37.9698 37.246 39.9782 38.6947 41.6031ZM42.3168 35.3524C42.3181 35.3211 42.32 35.289 42.3235 35.2566C42.3246 35.2475 42.3246 35.2387 42.3259 35.2309C42.328 35.2066 42.3313 35.1819 42.3334 35.1573C42.3358 35.1472 42.3369 35.1362 42.3379 35.126C42.3404 35.1105 42.3425 35.095 42.3446 35.0792C42.347 35.0703 42.3481 35.0626 42.3492 35.0535C42.3503 35.0446 42.3527 35.0347 42.3535 35.0256C42.3594 34.9922 42.3658 34.9598 42.3738 34.9288V34.9263C42.3805 34.8964 42.388 34.8664 42.3974 34.8383C42.3992 34.8284 42.4027 34.8206 42.4049 34.8115C42.4116 34.7915 42.4172 34.7724 42.4249 34.7537C42.4284 34.7446 42.4316 34.7358 42.4351 34.7269C42.4426 34.709 42.4496 34.6924 42.4584 34.6766C42.4619 34.6699 42.4651 34.6622 42.4686 34.6555C42.4806 34.6343 42.4929 34.6143 42.5066 34.5977C42.5534 34.5383 42.6158 34.5273 42.6891 34.5375C42.8165 34.5551 42.976 34.6378 43.131 34.6453C43.2426 34.6509 43.3518 34.6188 43.4465 34.496C43.4902 34.4403 43.53 34.3766 43.559 34.3142C43.5895 34.2519 43.6082 34.1906 43.6093 34.1403C43.6093 34.1156 43.6061 34.0934 43.5972 34.0744C43.5702 34.0198 43.4966 34.0022 43.3518 34.0522C43.3218 34.0624 43.2926 34.0723 43.2627 34.08C43.2022 34.0969 43.1433 34.1079 43.0863 34.11C43.0571 34.1114 43.0306 34.11 43.0039 34.1057C42.9233 34.0945 42.8534 34.0589 42.7996 33.9864C42.783 33.9617 42.7673 33.9339 42.7541 33.9005C42.7373 33.8582 42.7172 33.8212 42.6939 33.7891C42.6035 33.6574 42.4707 33.5916 42.3323 33.5092C42.2635 33.4677 42.1931 33.4243 42.1252 33.3652C42.0917 33.3363 42.0583 33.3039 42.0269 33.2669C42.0012 33.238 41.9766 33.2102 41.9512 33.1834C41.9408 33.1733 41.9309 33.1644 41.921 33.1556C41.9044 33.1387 41.8886 33.1232 41.8709 33.1077C41.8586 33.0964 41.8452 33.0852 41.8329 33.0753C41.8182 33.063 41.804 33.0517 41.7893 33.0408C41.7737 33.0285 41.7593 33.0183 41.7435 33.0073C41.7312 32.9993 41.7178 32.9905 41.7047 32.9827C41.6878 32.9715 41.6712 32.9616 41.6533 32.9527L41.6199 32.9359C41.6008 32.927 41.5808 32.9179 41.5618 32.9102C41.5529 32.9069 41.5441 32.9045 41.5353 32.9013C41.5128 32.8946 41.4906 32.8869 41.4684 32.8823C41.4635 32.8813 41.4593 32.8813 41.4547 32.8802C41.284 32.8478 41.1057 32.8925 40.9331 33.0598C40.9307 33.0606 40.9282 33.063 40.9261 33.0654C40.8996 33.0919 40.8715 33.1221 40.8447 33.1556C40.8415 33.1588 40.8391 33.1623 40.8359 33.1655C40.8091 33.2 40.7821 33.2359 40.7556 33.2771C40.7545 33.2806 40.7521 33.2838 40.7487 33.2873C40.7222 33.3296 40.6954 33.3753 40.6686 33.4243C40.613 33.5271 40.5592 33.6416 40.508 33.7779C40.0932 34.864 39.6125 34.5318 39.6917 34.9186C39.7006 34.9644 39.8178 34.9957 39.9875 35.009C40.0555 35.0147 40.1323 35.0179 40.2123 35.0179C40.2939 35.0179 40.3809 35.0157 40.4679 35.0101C40.5562 35.0058 40.6453 34.9978 40.7321 34.9866C40.7757 34.9812 40.818 34.9745 40.8592 34.9678C40.8849 34.9644 40.9084 34.9598 40.9331 34.9555C40.9564 34.951 40.9799 34.9464 41.0032 34.9411C41.0233 34.9365 41.0444 34.932 41.0645 34.9277C41.0915 34.921 41.1156 34.913 41.1402 34.9063C41.156 34.902 41.1715 34.8974 41.1849 34.8929C41.224 34.8808 41.2599 34.8675 41.2909 34.8527C41.3466 34.8273 41.4036 34.8048 41.4593 34.7858C41.4614 34.7858 41.4625 34.7858 41.4649 34.7848C41.5184 34.7668 41.5719 34.7537 41.6233 34.7446C41.7312 34.7245 41.8305 34.7259 41.9086 34.7537C41.9654 34.7735 42.0826 34.8228 42.1664 34.9443C42.2354 35.0436 42.3013 35.2154 42.3168 35.3524ZM47.2024 19.625V14.5132C42.5309 14.6871 38.2876 16.5649 35.0783 19.5436L38.6926 23.1568C40.9719 21.1005 43.9382 19.7922 47.2024 19.625ZM47.2024 13.0845V7.97241C40.7299 8.152 34.854 10.7626 30.4568 14.9221L34.0701 18.5343C37.5382 15.2982 42.1372 13.2606 47.2024 13.0845ZM29.4478 15.9304C25.2891 20.3275 22.6785 26.2035 22.5002 32.676H27.6107C27.7873 27.6121 29.8246 23.0128 33.0608 19.5436L29.4478 15.9304ZM22.5002 34.1033C22.5725 36.7544 23.0542 39.3037 23.8818 41.6933C23.9118 41.6914 23.9399 41.6901 23.9699 41.689C24.4883 41.6644 25.182 41.6812 25.5088 41.4291C26.0117 41.041 25.5468 39.6525 25.8621 39.0738C26.2513 38.3579 27.2239 36.6594 27.5162 36.6484C27.775 36.6382 27.7638 36.8312 27.8952 36.8625C27.7402 35.9568 27.6433 35.0369 27.612 34.1033H22.5002ZM47.2024 60.2345C40.3362 60.0549 34.1035 57.2848 29.4478 52.8675L25.8198 56.4952C31.6211 62.0476 39.1631 65.1691 47.2024 65.3444V60.2345ZM47.2024 53.6962C42.668 53.5399 38.3982 51.9053 34.9399 49.0268C35.0178 49.1215 35.086 49.2131 35.1382 49.3011C35.3735 49.7072 36.1922 50.5323 35.6717 50.8623C35.2386 51.1359 34.5218 50.9517 34.1204 50.945C33.6774 50.9394 33.034 51.6008 32.655 51.6666C32.1719 51.749 31.8954 51.7124 31.4439 51.5293C31.3323 51.4838 31.1918 51.3955 31.0325 51.2831L30.4568 51.8582C34.854 56.0169 40.7299 58.6276 47.2024 58.8072V53.6962ZM47.2024 51.8995C46.4833 51.953 45.3961 51.9353 45.1383 51.7579C44.602 51.3866 43.9628 51.0221 43.8906 50.7344C43.761 50.2235 43.0619 49.8399 43.0619 49.3616C43.0619 48.8295 43.7966 48.6556 43.6004 48.116C43.4433 47.6864 43.8614 47.149 44.6266 46.7743C42.3837 46.2221 40.3552 45.1226 38.6926 43.6225L35.0713 47.2437C38.3993 50.3351 42.6581 52.0972 47.2024 52.2653V51.8995ZM48.3078 45.0691C48.8519 44.9776 49.4295 44.8205 49.9201 44.7712C50.4578 44.7177 49.8979 45.4829 50.2167 45.5142C50.5981 45.5519 52.1662 45.8196 52.2768 45.4639C52.367 45.1719 52.3881 45.0399 52.7248 44.9677C53.3597 44.8293 53.8623 44.8494 54.3997 44.4391C54.594 44.2908 54.9944 44.237 55.1093 44.0175C55.2238 43.7978 55.0266 42.7585 54.6398 42.9279C54.4514 43.0114 54.2236 43.2804 53.8211 43.4833C53.4565 43.6664 53.1977 43.7499 52.9389 43.403C52.7023 43.0872 53.0773 42.8399 53.2711 42.6282C53.5714 42.299 53.8433 41.9655 54.1768 41.9655C54.3063 41.9655 54.9955 41.6231 54.9374 41.3097C54.8617 40.9037 54.0609 41.3467 53.8746 41.1794C53.7453 41.0646 53.8725 40.7723 53.7721 40.7276C53.6784 40.6842 53.3827 41.0879 53.6115 41.3065C53.7295 41.4203 53.4196 41.7369 53.0717 41.5094C52.804 41.3322 52.735 42.3078 52.7583 42.4863C52.7818 42.6646 53.1509 42.6159 52.9055 42.9368C52.659 43.2603 52.5677 43.0203 52.386 43.1787C52.1673 43.3706 52.1183 43.4442 52.386 43.722C52.6001 43.9428 52.2599 44.362 52.1807 43.9693C52.1282 43.7087 51.5795 43.7879 51.4757 43.4921C51.3689 43.1875 50.9227 43.2181 50.3807 42.9402C49.9702 42.7296 50.0229 43.3519 50.7185 43.5101C51.3095 43.645 51.2795 43.7153 51.1101 44.0855C50.972 44.389 50.9985 43.8524 50.2959 43.6664C49.8444 43.5467 49.8232 43.3061 49.4675 43.3104C49.1073 43.3139 49.2253 43.6551 48.845 43.566C48.5573 43.4977 48.5128 43.8858 48.2473 43.9985C47.924 44.1366 47.943 44.7222 47.6141 44.8839C47.1245 45.1237 46.1209 44.943 46.1666 44.4581C46.2121 43.9728 46.2344 43.6104 46.5154 43.4399C46.763 43.2914 47.1711 43.7263 47.5148 43.5724C47.8737 43.4129 47.7838 43.0307 47.5659 42.7853C47.5014 42.7015 47.238 42.5712 47.2437 42.4884C47.2493 42.387 47.7613 42.3391 48.0198 42.1651C48.2797 41.9912 48.5586 41.5271 48.6911 41.4238C48.8327 41.3132 49.1108 41.2851 49.1362 41.1826C49.1718 41.0523 48.94 40.8146 48.9622 40.6551C48.9847 40.4958 49.0404 40.3732 49.164 40.3821C49.2879 40.392 49.4349 40.7487 49.3559 40.8347C49.2657 40.9318 49.4207 41.0956 49.589 41.0266C49.7582 40.9572 50.3596 40.722 50.5346 40.6765C50.7723 40.6128 50.4755 40.0753 50.5526 39.9793C50.6251 39.8891 50.6952 40.0084 50.7865 39.9169C50.878 39.8256 50.5994 39.7352 50.6438 39.54C50.6762 39.3928 51.3052 39.2221 51.1323 39.1107C50.9597 38.9981 50.7265 39.3238 50.5882 39.3848C50.2748 39.5232 50.1222 39.1811 50.1321 38.921C50.1375 38.7949 50.3082 38.349 50.1589 38.262C49.9514 38.1427 49.9166 38.6734 49.8845 38.7773C49.8345 38.9346 49.7006 39.133 49.9303 39.5612C50.0539 39.7922 49.9905 40.5737 49.7494 40.6596C49.493 40.7522 49.3803 40.2627 49.2598 40.0609C49.2398 40.0264 49.2186 40.0004 49.1964 39.9884C49.1943 39.987 49.1919 39.986 49.1894 39.9851C49.1795 39.9806 49.1696 39.9782 49.1584 39.9793H49.1573C49.1461 39.9806 49.1348 39.987 49.1239 39.9961C49.1207 39.9983 49.1172 40.0017 49.115 40.0039C49.1027 40.0151 49.0915 40.0285 49.0781 40.0486C49.058 40.0796 49.0256 40.1342 48.9991 40.1813C48.9801 40.2148 48.9424 40.294 48.8942 40.431C48.8643 40.518 48.8097 40.5705 48.7125 40.5916C48.4505 40.6208 48.186 40.6385 47.9162 40.6385C47.8124 40.6385 47.7088 40.6361 47.606 40.6318C47.6497 40.7924 47.6952 40.9663 47.7543 41.079C47.8959 41.3467 48.167 41.5629 48.1213 41.7602C48.0755 41.959 47.2485 42.1384 47.1802 41.9936C47.0954 41.8129 47.3887 41.4502 47.3652 41.2864C47.3229 40.9875 47.1722 40.8092 47.1915 40.6015C45.7317 40.4554 44.3978 39.8768 43.3229 38.9924L39.7027 42.6124C41.4882 44.2025 43.7343 45.2854 46.2143 45.629C46.5646 45.4149 46.7084 45.0322 46.9851 45.2396C47.4257 45.5723 47.9564 45.128 48.3078 45.0691ZM48.6301 53.6948V58.8072C50.6998 58.7491 52.7093 58.4426 54.6296 57.9162C54.2303 57.5771 54.0486 57.027 53.5545 56.8579C52.7047 56.5656 52.4762 56.0426 52.9357 55.2841C53.1843 54.8749 53.0861 54.7132 52.7952 54.2772C52.4406 53.7465 51.9821 53.5032 51.6499 53.3592C50.665 53.5433 49.6581 53.6592 48.6301 53.6948ZM51.0833 52.0135C50.916 51.8325 50.5769 51.8192 50.3374 51.8839C49.5063 52.109 49.7842 51.449 48.6301 51.6176V52.2675C49.463 52.2364 50.2817 52.1484 51.0833 52.0135ZM70.0113 56.4952L66.3836 52.8675C64.5133 54.6418 62.3879 56.1494 60.0696 57.3316C59.3054 57.9081 58.3722 58.3275 57.6661 58.6476C57.3709 58.7815 57.0508 58.9565 56.7151 58.9565C56.6068 58.9565 56.5133 58.9209 56.4194 58.8628C53.9605 59.6858 51.3453 60.1631 48.6301 60.2345V65.3444C56.6694 65.1691 64.2111 62.0476 70.0113 56.4952ZM62.8598 19.5358C62.8528 19.5661 62.8376 19.5827 62.8183 19.595C63.6603 20.5036 64.4175 21.4907 65.0845 22.5412C65.1626 22.4419 65.2239 22.3539 65.3321 22.4775C65.5127 22.6839 65.1436 23.0586 65.6789 22.9606C66.0012 22.9015 65.9353 23.3139 65.6744 23.535C65.8392 23.8326 65.9988 24.1337 66.1494 24.4394C66.3379 24.524 66.4805 24.6267 66.5094 24.7493C66.5945 25.1085 66.7594 25.5065 66.7996 25.9034C67.0549 26.5471 67.2803 27.2061 67.4708 27.8797C67.7342 27.6544 68.0307 27.777 68.062 28.153C68.0931 28.5285 67.974 28.9356 67.8099 29.2726C68.0385 30.3777 68.1812 31.5141 68.2216 32.676H73.3326C73.2397 29.3673 72.498 26.0943 71.17 23.0864C71.0685 23.1681 70.9326 23.1745 70.7607 23.3921C70.5019 23.7189 70.0839 23.3107 69.854 23.0251C69.426 22.4965 68.4178 21.01 67.9638 20.9354C67.5846 20.8727 67.3014 20.38 66.9021 20.2986C66.5041 20.2173 66.0065 19.993 65.942 19.5714C65.8738 19.14 65.7167 18.9625 65.274 18.8935C64.7732 18.8164 64.4242 18.6181 64.072 18.2434L62.8486 19.4668C62.8587 19.4935 62.8641 19.5168 62.8598 19.5358ZM66.1037 50.5693L66.3836 50.8489C70.5434 46.4531 73.154 40.5772 73.3326 34.1033H68.2216C68.0455 39.1688 66.0079 43.7675 62.7717 47.237L64.6161 49.0814C64.6295 49.0557 64.6418 49.0303 64.6541 49.0046C64.8067 48.6813 64.7411 48.2587 64.7668 47.9618C64.782 47.7681 65.4859 47.8149 65.5363 48.1347C65.5786 48.4048 65.7177 48.6031 65.9618 49.2733C66.1385 49.7561 66.222 50.2002 66.1037 50.5693ZM62.2231 53.7588C62.0879 54.0829 61.4043 54.6675 61.5226 54.8594C62.9021 53.9818 64.1921 52.977 65.3754 51.8582L61.7624 48.2463C61.5103 48.4816 61.2504 48.7078 60.9863 48.931C60.9236 49.3448 60.9804 49.6692 61.4892 49.8265C62.0376 49.9959 62.9532 50.5537 62.7605 51.0944C62.544 51.5785 62.0087 52.3033 61.7501 52.784C61.5304 53.1943 62.3858 53.3694 62.2231 53.7588ZM63.0659 32.6112C63.0581 32.6326 63.0447 32.6548 63.0289 32.676H66.7929C66.7728 32.1329 66.7273 31.5955 66.6625 31.0637C66.6323 31.1193 66.5999 31.175 66.5745 31.2296C66.2934 31.8141 66.2512 31.4617 66.2712 31.2074C66.2977 30.8827 66.4214 30.5795 66.5418 30.2471C66.5129 30.0731 66.4819 29.9015 66.4473 29.7297C66.3347 29.8903 66.1719 30.004 65.9166 30.1312C65.7501 30.216 65.5933 30.6073 65.5317 30.7569C65.4592 30.9373 65.0454 30.7144 64.7052 30.8785C64.1089 31.1662 63.4973 31.2095 63.9336 31.8275C64.2122 32.221 63.2655 32.1107 63.0659 32.6112ZM61.7624 20.5529L58.1492 24.1661C58.7701 24.8553 59.3223 25.6079 59.796 26.412C60.2211 26.4778 60.8011 26.6483 61.1747 27.129C61.4389 27.4702 62.2019 28.153 62.0844 28.4584C62.0132 28.6457 62.1727 28.8778 62.3467 29.0004C62.6133 29.1867 62.8017 29.1821 62.9478 28.9958C63.2144 28.6556 63.2522 28.1964 63.6057 27.9065C64.0385 27.5495 64.925 28.5799 64.9239 28.7683C64.9228 28.9567 64.694 29.0014 64.6284 29.336C64.5393 29.7931 64.1466 30.3386 64.5925 30.4914C65.2429 30.7133 65.3254 30.458 65.6377 30.0006C65.7814 29.7899 65.7501 29.4498 65.9053 29.2413C66.0033 29.1096 66.1494 29.0539 66.2801 28.9669C66.0357 27.9531 65.7124 26.9697 65.312 26.0273C65.2159 25.9337 65.1046 25.8566 64.9651 25.8111C64.732 25.734 64.8637 25.5255 64.558 25.4297C64.2079 25.3192 64.072 25.2188 64.0396 24.6043C64.0139 24.1091 64.4576 24.7673 64.5679 24.6814C64.5915 24.6623 64.6126 24.6334 64.634 24.6C63.8544 23.1244 62.8876 21.7651 61.7624 20.5529ZM57.3784 25.4586C57.2071 25.4562 57.0652 25.4227 56.9402 25.3748L55.746 26.5683C55.9746 26.6296 56.2275 26.5447 56.5133 26.6718C56.831 26.8113 56.6758 25.7841 57.1624 25.878C57.6583 25.9727 57.7857 26.2915 57.3752 26.4467C57.0462 26.5535 57.4565 26.8279 57.0585 26.963C56.6959 27.0867 57.3527 27.4068 57.3473 27.5495C57.3406 27.747 56.8522 27.8206 57.5861 28.047C58.3186 28.2732 57.5879 27.4301 57.6996 27.3121C57.8358 27.1681 58.2271 27.5396 58.3352 27.3755C58.3756 27.3153 58.4479 27.2106 58.537 27.0902C58.1947 26.5145 57.8069 25.9682 57.3784 25.4586ZM55.5161 44.4302C55.5249 44.681 55.272 44.4803 55.1949 44.5662C55.1181 44.6497 57.2047 45.6269 57.5323 45.6826C57.7566 45.7203 58.1837 45.8798 58.9388 45.7294C59.4449 45.629 59.5854 45.8621 59.8217 45.853C60.1587 45.841 60.3771 45.3857 60.5725 45.1058C61.0898 44.3679 60.9916 44.2686 61.1289 44.1535C61.304 44.0063 61.8128 45.136 61.7477 45.852C61.7367 45.9657 61.7234 46.0717 61.7076 46.1731L61.7624 46.2277C64.7411 43.0184 66.6192 38.7748 66.7929 34.1033H62.9074C63.0413 34.3241 63.2736 34.6097 63.5177 35.1137C63.7139 35.5176 63.83 36.1589 64.16 36.1899C64.6918 36.2402 65.2394 36.6805 65.2552 37.0509C65.2863 37.8247 62.8852 38.0121 62.5697 37.9128C62.3042 37.8292 62.128 37.8113 62.1104 38.2275C62.0903 38.6991 61.2427 38.7026 60.9092 38.9844C60.5345 39.3013 60.4933 39.8802 60.2422 40.2838C60.0918 40.5258 59.2051 41.3633 58.9631 41.5329C58.3855 41.9366 57.2981 41.9566 57.7956 42.2232C58.1503 42.4127 58.9556 42.4796 58.8539 42.2923C58.7378 42.0771 58.9152 42.057 59.0512 42.2331C59.1561 42.3659 59.5343 42.1049 59.5265 41.8616C59.5185 41.6322 59.4684 41.2575 59.6815 41.2428C60.0273 41.2206 60.3905 40.8368 60.5626 40.8727C60.7574 40.9128 61.0216 41.3467 60.8233 42.668C60.6271 43.9905 59.9957 44.9109 59.7438 45.3258C59.4716 45.7695 59.1997 45.4304 58.8352 45.2431C58.3711 45.0046 57.672 45.0145 57.1835 44.855C56.9247 44.7712 55.5083 44.2351 55.5161 44.4302ZM79.8696 34.1033H74.7607C74.5803 40.9696 71.8102 47.2023 67.3929 51.8582L71.0206 55.4862C76.5743 49.6849 79.6956 42.1429 79.8696 34.1033ZM71.0206 11.2947L67.2356 15.0795C67.5824 15.6841 68.2339 16.4456 69.1525 17.3813C69.5298 17.7659 69.93 18.143 70.2659 18.4832C70.5881 18.8076 72.6522 21.3759 72.2529 21.7482C72.224 21.7763 72.1926 21.802 72.1616 21.8274C73.7675 25.1998 74.6596 28.9169 74.7599 32.676H79.8696C79.6956 24.6367 76.5743 17.0946 71.0206 11.2947ZM48.6301 6.54504C52.9001 6.65558 56.9994 7.75722 60.6662 9.73781C61.0085 9.68428 61.3462 9.64172 61.5727 9.536C62.0277 9.32402 62.9222 9.80579 63.3536 10.0568C63.7473 10.2841 64.053 10.621 64.4857 10.8641C64.9282 11.113 65.6398 11.8265 65.7959 12.546C65.953 13.2651 66.4091 13.2159 66.1818 13.5071C66.0681 13.6521 66.2421 13.7078 66.4594 13.8374L70.0124 10.2854C64.2111 4.73173 56.6694 1.61043 48.6301 1.43646V6.54504ZM48.6301 13.0845C52.967 13.2352 56.9592 14.754 60.1964 17.2185C59.8308 16.7344 59.4604 16.2336 59.2888 16.0497C58.9754 15.7162 57.8023 15.3059 57.9206 15.1154C58.0376 14.9235 59.0814 15.7564 59.2642 15.6103C59.484 15.4341 58.7402 14.4773 58.7958 14.4406C58.8729 14.3903 59.7537 15.2412 60.1865 16.004C60.3672 16.2727 60.8468 16.1367 61.2205 16.3966C61.5491 16.6276 61.5716 16.9964 61.8481 17.2341C61.8928 17.2731 62.4784 17.6109 62.138 17.5718C62.04 17.5609 61.8896 17.3524 61.7769 17.4584C61.7065 17.5253 61.8192 17.8842 62.021 18.2768L63.7184 16.5783C63.4719 16.0786 62.9856 15.4197 62.6467 15.3359C62.2964 15.2503 62.0812 15.5447 61.8403 15.7441C61.5997 15.9437 61.2986 16.0107 61.2606 15.8768C61.2183 15.7251 61.3096 15.3538 61.2916 15.1978C61.267 15.0027 61.1145 14.8488 61.0631 14.6601C60.9416 14.2163 61.122 13.7212 60.8524 13.4268C60.5556 13.1035 60.357 12.6139 60.1252 12.2424C59.872 11.8378 59.416 11.212 59.3892 10.6813C56.0827 9.00954 52.4282 8.07598 48.6301 7.97241V13.0845ZM48.6301 19.625C51.893 19.7922 54.8604 21.1005 57.1399 23.1568L60.7542 19.5436C57.5435 16.5649 53.3016 14.6871 48.6301 14.5132V19.625ZM48.6301 26.1767C49.1161 26.2246 49.5944 26.3228 50.0606 26.4666C50.1821 26.1689 50.4867 26.0207 50.7364 25.851C51.0319 25.6502 51.246 25.4241 51.2038 25.9693C51.1647 26.3528 51.0054 26.5849 50.8066 26.7412C51.3076 26.9596 51.7838 27.2318 52.2264 27.5596C52.3233 27.6319 52.4181 27.7079 52.512 27.785L53.0026 27.2941C52.9981 27.2775 52.9935 27.2607 52.9935 27.2395C53.0026 26.9606 53.4062 26.6285 53.8725 26.4243L55.466 24.8307C55.4304 24.8229 55.3911 24.8162 55.3453 24.8106C55.1315 24.7839 54.8269 25.2276 54.6187 25.105C54.3831 24.968 55.3223 24.1404 55.7414 24.3C55.7985 24.3211 55.8605 24.3455 55.9253 24.3714L56.1285 24.1683C54.1099 22.3683 51.5003 21.2199 48.6301 21.0547V26.1767ZM47.9162 27.5685C47.3173 27.5685 46.7362 27.6576 46.1787 27.8316C46.1051 27.9121 46.0494 27.979 46.0917 28.039C46.2325 28.2443 46.6604 27.8139 46.7175 28.2097C46.7597 28.4975 46.2435 28.2855 46.29 28.4975C46.328 28.6669 46.6861 28.5968 46.695 28.8296C46.7027 29.044 46.4787 29.4642 46.3058 29.5747C46.0762 29.7219 44.8514 29.8836 44.7345 30.1678C44.632 30.4168 44.5249 30.6408 44.333 30.845C44.1248 31.0645 43.1422 31.6479 43.1398 31.7994C43.1342 32.1575 43.6117 31.7015 43.7444 31.5607C43.9551 31.3377 44.2449 31.3388 44.5608 31.1584C44.9957 30.9106 45.163 31.7772 44.6965 31.8085C44.4055 31.8283 44.1601 32.646 43.704 32.4886C43.5895 32.4485 43.2648 32.2477 43.1944 32.4552C43.1197 32.676 43.8724 32.7105 44.109 32.8668C44.7098 33.2637 43.6529 33.2359 43.4832 33.344C43.3159 33.4511 43.3986 33.6818 43.6272 33.5884C43.8477 33.4968 44.148 33.2659 44.2851 33.6406C44.4703 34.148 43.4498 35.9993 43.1532 35.8042C42.9915 35.6982 42.8243 35.8487 42.6725 35.9134C42.8757 36.3339 43.131 36.7241 43.4241 37.082C43.6248 36.7509 43.9417 36.2825 44.0755 36.2793C44.265 36.2737 44.2016 36.1241 44.2728 35.9902C44.3608 35.8286 44.5862 35.9983 44.602 35.7775C44.6172 35.5577 45.1796 35.2422 45.2441 34.9186C45.2775 34.7446 45.0704 34.5717 45.156 34.428C45.2609 34.2529 45.3367 34.2262 45.4496 34.1882C45.562 34.1491 45.8286 34.4146 45.91 34.2998C45.9913 34.185 46.3885 34.273 46.6915 34.4649C46.8299 34.553 47.0989 34.4515 47.2637 34.6855C47.4926 35.008 47.2525 35.0358 47.2937 35.107C47.3341 35.1785 47.4334 35.0671 47.4936 35.126C47.6218 35.251 46.8981 35.675 46.9806 35.9057C47.0619 36.1353 46.3674 37.2728 46.1765 37.4535C45.9145 37.6922 45.4817 37.4256 45.311 37.4746C45.1271 37.5271 45.0915 37.6844 44.8081 37.6151C44.5897 37.5629 44.3274 37.651 44.0854 37.7658C45.1092 38.6646 46.4498 39.2122 47.9162 39.2122C48.2318 39.2122 48.5407 39.183 48.842 39.134C49.0302 38.8921 49.1083 38.5942 49.1485 38.2899C49.1718 38.1247 49.1429 37.9109 49.2299 37.7637C49.3045 37.6387 49.7799 37.0541 49.9694 37.0622C50.1356 37.0689 50.2491 37.2147 50.4889 37.1401C50.9538 36.9939 51.2415 37.1178 51.246 37.3186C51.2527 37.5985 50.6607 37.5182 50.6851 37.6756C50.7009 37.7859 51.1302 37.9521 51.2707 37.7912C51.5338 37.4947 51.495 37.1055 51.4267 37.0207C51.2407 36.7854 51.2519 36.6885 51.5196 36.7798C51.6845 36.8368 51.6834 36.1856 51.8405 35.9356C52.0549 35.6 51.4446 35.8353 51.1904 35.8711C50.9506 35.9046 50.752 35.3926 50.7466 35.213C50.7421 35.0837 51.2016 35.6704 51.4334 35.6824C51.6957 35.6961 52.0056 35.3915 52.0091 35.1686C52.0145 34.9454 51.5091 34.9154 51.4323 34.6442C51.39 34.496 51.8429 34.6432 51.8084 34.497C51.7792 34.3688 51.8541 34.06 51.5683 33.9374C51.2841 33.8159 51.0231 32.9045 50.7953 32.8422C50.5938 32.7876 50.4254 33.0606 50.3015 33.1609C50.1789 33.2605 49.9825 33.0887 50.0853 32.9939C50.2314 32.858 50.5705 32.5657 50.6406 32.3358C50.7589 31.9501 51.2549 32.3561 51.1668 31.8174C51.0723 31.2342 50.5748 31.3468 50.8058 31.0658C51.0418 30.7802 50.8657 30.3153 50.385 30.4077C50.1631 30.4502 49.9303 30.0886 49.9067 29.7765C49.8923 29.6047 49.3995 29.6315 49.4183 29.4498C49.4574 29.0785 48.9009 29.0394 48.5607 29.0651C48.2206 29.0898 47.5624 28.5654 47.4891 28.4372C47.4166 28.308 46.9439 28.551 47.0999 28.0513C47.2538 27.5596 47.7198 28.1407 47.9162 27.9988C48.1282 27.8473 48.0624 27.6924 48.0279 27.573C47.9899 27.5719 47.9529 27.5685 47.9162 27.5685ZM25.8198 10.2854L29.4478 13.9131C34.1035 9.49585 40.3362 6.72463 47.2024 6.54504V1.43646C39.1631 1.61043 31.6211 4.73173 25.8198 10.2854ZM15.9616 32.676H21.0715C21.2511 25.8097 24.022 19.577 28.4382 14.9221L24.8108 11.2947C19.2579 17.0946 16.1366 24.6367 15.9616 32.676Z" fill="white"/>
<path d="M108.396 4.25586H107.325V77.5911H108.396V4.25586Z" fill="white"/>
<path d="M198.961 25.7235C198.961 24.8515 198.653 24.172 198.035 23.6849C197.418 23.198 196.333 22.6938 194.782 22.1729C193.23 21.6521 191.962 21.1478 190.976 20.661C187.771 19.0869 186.168 16.9233 186.168 14.1711C186.168 12.8007 186.568 11.5915 187.366 10.5439C188.165 9.49634 189.295 8.68109 190.756 8.09735C192.217 7.51415 193.859 7.22241 195.683 7.22241C197.461 7.22241 199.055 7.53957 200.465 8.1739C201.875 8.80849 202.971 9.71153 203.752 10.8838C204.534 12.0561 204.925 13.3957 204.925 14.9017H198.979C198.979 13.8938 198.67 13.1123 198.053 12.5572C197.435 12.0023 196.6 11.7248 195.547 11.7248C194.482 11.7248 193.641 11.96 193.024 12.4298C192.406 12.8997 192.098 13.4974 192.098 14.2222C192.098 14.8568 192.438 15.4314 193.117 15.9466C193.797 16.4621 194.992 16.9945 196.702 17.5437C198.412 18.0932 199.817 18.6849 200.916 19.319C203.588 20.8593 204.925 22.9831 204.925 25.6901C204.925 27.8533 204.109 29.5524 202.478 30.7868C200.847 32.0214 198.61 32.6386 195.767 32.6386C193.763 32.6386 191.947 32.2792 190.322 31.5597C188.697 30.8406 187.474 29.8551 186.653 28.6036C185.831 27.3523 185.421 25.9109 185.421 24.2798H191.401C191.401 25.605 191.744 26.5819 192.429 27.2105C193.114 27.8392 194.227 28.1534 195.767 28.1534C196.753 28.1534 197.532 27.9411 198.104 27.5164C198.676 27.0916 198.961 26.4941 198.961 25.7235Z" fill="white"/>
<path d="M207.983 32.2983V7.56177H215.952C218.137 7.56177 220.102 8.05745 221.847 9.04828C223.591 10.0396 224.953 11.4381 225.933 13.2447C226.912 15.0513 227.408 17.0758 227.419 19.3184V20.4567C227.419 22.7221 226.941 24.7525 225.984 26.5473C225.027 28.3427 223.679 29.7473 221.941 30.7606C220.202 31.7745 218.262 32.287 216.122 32.2983H207.983ZM213.947 12.1658V27.7111H216.019C217.729 27.7111 219.043 27.1024 219.961 25.8846C220.878 24.6674 221.337 22.8578 221.337 20.4565V19.3862C221.337 16.9966 220.878 15.1956 219.961 13.9834C219.043 12.7715 217.707 12.1656 215.952 12.1656L213.947 12.1658Z" fill="white"/>
<path d="M250.729 29.2402C249.811 30.2597 248.469 31.0808 246.702 31.7037C244.935 32.3265 242.999 32.638 240.892 32.638C237.652 32.638 235.065 31.6469 233.128 29.665C231.191 27.6831 230.155 24.9249 230.019 21.3912L230.002 19.2505C230.002 16.8155 230.432 14.689 231.293 12.8712C232.154 11.0533 233.385 9.65458 234.988 8.67473C236.591 7.69514 238.446 7.20508 240.552 7.20508C243.633 7.20508 246.025 7.91006 247.73 9.32029C249.435 10.7305 250.429 12.8345 250.712 15.6319H244.97C244.766 14.2501 244.324 13.2649 243.644 12.6758C242.965 12.087 242.002 11.7923 240.756 11.7923C239.261 11.7923 238.106 12.4269 237.291 13.695C236.475 14.9636 236.061 16.7759 236.05 19.1317V20.6268C236.05 23.0961 236.472 24.9506 237.316 26.1909C238.16 27.4312 239.488 28.0513 241.3 28.0513C242.852 28.0513 244.007 27.7058 244.766 27.015V23.175H240.621V19.0806H250.729V29.2402H250.729Z" fill="white"/>
<path d="M276.908 27.6771H268.737L267.311 32.2983H260.939L270.011 7.56177H275.618L284.758 32.2983H278.354L276.908 27.6771ZM270.164 23.073H275.482L272.816 14.4933L270.164 23.073Z" fill="white"/>
<path d="M306.223 23.9226C306.145 25.6443 305.68 27.1649 304.831 28.4841C303.98 29.8036 302.789 30.826 301.255 31.5508C299.719 32.2756 297.966 32.6383 295.996 32.6383C292.747 32.6383 290.186 31.5792 288.317 29.4613C286.449 27.3434 285.515 24.3535 285.515 20.4908V19.2676C285.515 16.8441 285.935 14.723 286.781 12.9051C287.624 11.0873 288.839 9.68293 290.424 8.69183C292.008 7.70074 293.844 7.20532 295.929 7.20532C298.93 7.20532 301.344 7.99542 303.166 9.57534C304.989 11.1553 306.025 13.3328 306.274 16.1078H300.329C300.284 14.6018 299.904 13.5199 299.189 12.8628C298.477 12.206 297.391 11.8774 295.929 11.8774C294.444 11.8774 293.357 12.4325 292.667 13.5424C291.976 14.6526 291.612 16.425 291.58 18.86V20.6099C291.58 23.2492 291.909 25.135 292.573 26.2674C293.237 27.4001 294.377 27.9665 295.996 27.9665C297.367 27.9665 298.413 27.6437 299.138 26.9981C299.864 26.3525 300.249 25.3274 300.295 23.9231H306.223V23.9226Z" fill="white"/>
<path d="M327.977 12.1658H320.552V32.2983H314.589V12.1658H307.301V7.56177H327.977V12.1658Z" fill="white"/>
<path d="M336.844 32.2983H330.896V7.56177H336.844V32.2983Z" fill="white"/>
<path d="M361.939 20.4399C361.939 22.8524 361.489 24.9875 360.595 26.8448C359.701 28.7026 358.43 30.1323 356.781 31.1347C355.132 32.137 353.256 32.6383 351.15 32.6383C349.043 32.6383 347.172 32.1542 345.543 31.1858C343.913 30.2175 342.641 28.8327 341.729 27.0319C340.816 25.231 340.339 23.1643 340.294 20.8309V19.4378C340.294 17.0143 340.738 14.8763 341.627 13.0244C342.515 11.1726 343.789 9.7428 345.449 8.73457C347.108 7.72661 348.998 7.22266 351.115 7.22266C353.211 7.22266 355.079 7.72128 356.722 8.71773C358.363 9.71445 359.639 11.133 360.552 12.9736C361.465 14.8142 361.925 16.9235 361.936 19.3021V20.4399H361.939ZM355.871 19.4035C355.871 16.946 355.462 15.0797 354.64 13.8054C353.818 12.5312 352.643 11.8942 351.115 11.8942C348.125 11.8942 346.546 14.1368 346.375 18.622L346.359 20.4399C346.359 22.8637 346.76 24.727 347.563 26.0294C348.369 27.332 349.563 27.9831 351.15 27.9831C352.657 27.9831 353.815 27.3435 354.632 26.0634C355.448 24.7835 355.86 22.9432 355.874 20.5419V19.4035H355.871Z" fill="white"/>
<path d="M385.67 32.2983H379.742L370.974 16.9059V32.2983H365.013V7.56177H370.974L379.726 22.9542V7.56177H385.67V32.2983Z" fill="white"/>
<path d="M204.41 69.6763H192.466L190.38 76.4301H181.069L194.328 40.2769H202.522L215.881 76.4301H206.52L204.41 69.6763ZM194.552 62.9474H202.324L198.425 50.4078L194.552 62.9474Z" fill="white"/>
<path d="M245.554 62.9474L249.7 40.2771H258.341L250.669 76.4303H241.63L236.788 55.821L232.046 76.4303H223.032L215.334 40.2771H224L228.147 62.9474L233.113 40.2771H240.513L245.554 62.9474Z" fill="white"/>
<path d="M281.261 69.6763H269.316L267.232 76.4301H257.92L271.179 40.2769H279.374L292.733 76.4301H283.37L281.261 69.6763ZM271.404 62.9474H279.176L275.277 50.4078L271.404 62.9474Z" fill="white"/>
<path d="M308.801 63.6425H304.082V76.4301H295.365V40.2769H309.593C313.881 40.2769 317.235 41.2278 319.652 43.1292C322.068 45.0311 323.275 47.7183 323.275 51.1904C323.275 53.7044 322.767 55.7878 321.75 57.4411C320.73 59.0949 319.138 60.4344 316.97 61.4595L324.517 76.0573V76.4301H315.182L308.801 63.6425ZM304.082 56.9382H309.593C311.25 56.9382 312.495 56.503 313.332 55.6315C314.167 54.76 314.585 53.5444 314.585 51.9843C314.585 50.4247 314.162 49.2007 313.319 48.313C312.476 47.4252 311.234 46.9809 309.593 46.9809H304.082V56.9382Z" fill="white"/>
<path d="M328.54 76.4304V40.2769H340.185C343.381 40.2769 346.252 41.0011 348.8 42.4493C351.351 43.8981 353.342 45.9424 354.774 48.5828C356.206 51.2231 356.929 54.1819 356.945 57.4595V59.1232C356.945 62.4343 356.246 65.4014 354.847 68.0249C353.449 70.6489 351.48 72.7018 348.937 74.1829C346.397 75.6646 343.563 76.414 340.434 76.4301H328.54V76.4304ZM337.254 47.006V69.7261H340.284C342.784 69.7261 344.703 68.8364 346.044 67.0568C347.385 65.2772 348.056 62.6332 348.056 59.1232V57.5588C348.056 54.0663 347.385 51.4343 346.044 49.6627C344.703 47.8917 342.752 47.0058 340.185 47.0058L337.254 47.006Z" fill="white"/>
<path d="M380.064 66.8209C380.064 65.5464 379.612 64.5531 378.71 63.8412C377.808 63.1298 376.224 62.393 373.954 61.6312C371.687 60.87 369.832 60.1332 368.392 59.4213C363.709 57.1206 361.367 53.9586 361.367 49.9361C361.367 47.9336 361.95 46.166 363.117 44.6346C364.284 43.1036 365.935 41.9118 368.069 41.0591C370.204 40.2066 372.605 39.7805 375.271 39.7805C377.87 39.7805 380.198 40.2441 382.259 41.1709C384.32 42.0983 385.923 43.4181 387.066 45.1313C388.206 46.8448 388.779 48.8026 388.779 51.0038H380.089C380.089 49.5306 379.636 48.3886 378.734 47.5771C377.832 46.7664 376.612 46.3604 375.07 46.3604C373.515 46.3604 372.287 46.704 371.385 47.3911C370.483 48.0781 370.03 48.9514 370.03 50.0105C370.03 50.9379 370.528 51.7778 371.521 52.5307C372.514 53.2841 374.259 54.0622 376.759 54.8648C379.259 55.6681 381.312 56.5328 382.918 57.4597C386.825 59.7111 388.779 62.815 388.779 66.7711C388.779 69.9331 387.585 72.4163 385.203 74.2203C382.819 76.0248 379.551 76.9267 375.394 76.9267C372.463 76.9267 369.811 76.4013 367.437 75.35C365.06 74.2987 363.272 72.8585 362.073 71.0294C360.872 69.2003 360.272 67.0936 360.272 64.71H369.013C369.013 66.6467 369.514 68.0743 370.515 68.9934C371.516 69.912 373.143 70.3712 375.394 70.3712C376.834 70.3712 377.971 70.0608 378.809 69.4401C379.644 68.8197 380.064 67.9469 380.064 66.8209Z" fill="white"/>
<path d="M147.518 51.8091H145.985V64.7902H147.518V51.8091Z" fill="url(#paint0_linear_3742_1770)"/>
<path d="M164.132 63.04H129.373V76.9962H164.132V63.04Z" fill="url(#paint1_linear_3742_1770)"/>
<path d="M134.048 30.4218C134.048 23.4062 139.735 17.7189 146.751 17.7189C153.767 17.7189 159.454 23.4062 159.454 30.4218C159.454 37.4374 153.767 43.1249 146.751 43.1249C139.735 43.1249 134.048 37.4374 134.048 30.4218ZM120.525 30.4218C120.525 44.9058 132.267 56.6477 146.751 56.6477C161.235 56.6477 172.977 44.9058 172.977 30.4218C172.977 15.9377 161.235 4.19604 146.751 4.19604C132.267 4.19604 120.525 15.9377 120.525 30.4218Z" fill="url(#paint2_linear_3742_1770)"/>
<path d="M134.6 23.2894C135.22 22.233 135.975 21.2641 136.838 20.4068L129.494 12.3499C127.645 14.1161 126.069 16.1641 124.828 18.4217L134.6 23.2894Z" fill="#5FBA47"/>
<path d="M152.608 17.5975C153.721 18.1071 154.755 18.7578 155.69 19.5281L163.057 11.4823C161.116 9.80873 158.916 8.42821 156.528 7.4082L152.608 17.5975Z" fill="#E4B531"/>
<path d="M169.483 20.02L159.718 24.8891C160.184 25.9768 160.516 27.1333 160.696 28.3404L171.557 27.3135C171.237 24.7419 170.525 22.2891 169.483 20.02Z" fill="#C3202F"/>
<path d="M159.015 23.478L168.779 18.6101C167.569 16.3618 166.027 14.3197 164.215 12.5505L156.85 20.5939C157.688 21.4568 158.418 22.4248 159.015 23.478Z" fill="#4A9E46"/>
<path d="M132.659 30.4174C132.659 30.1977 132.666 29.9777 132.676 29.7603L121.811 28.7864C121.776 29.3254 121.755 29.8685 121.755 30.4174C121.755 32.5024 122.014 34.5269 122.495 36.462L132.988 33.4512C132.773 32.4738 132.659 31.4594 132.659 30.4174Z" fill="#408045"/>
<path d="M157.647 39.3496C156.876 40.2888 155.985 41.1271 154.998 41.8422L160.733 51.132C162.862 49.6896 164.758 47.9272 166.352 45.915L157.647 39.3496Z" fill="#F7C118"/>
<path d="M160.846 30.4172C160.846 31.4455 160.735 32.4492 160.523 33.4157L171.014 36.4312C171.494 34.5034 171.748 32.4896 171.748 30.4172C171.748 29.9023 171.732 29.3913 171.699 28.8831L160.836 29.9089C160.842 30.0794 160.846 30.2473 160.846 30.4172Z" fill="#EE432A"/>
<path d="M136.032 39.5574L127.349 46.1592C128.962 48.147 130.876 49.8816 133.02 51.2966L138.754 42.0173C137.744 41.319 136.828 40.4896 136.032 39.5574Z" fill="#F89C28"/>
<path d="M132.835 28.1919C133.029 26.9645 133.386 25.7906 133.875 24.6911L124.116 19.8271C123.037 22.1228 122.298 24.6076 121.96 27.2163L132.835 28.1919Z" fill="#1A94D2"/>
<path d="M159.401 51.9728L153.672 42.6946C152.632 43.2831 151.512 43.7446 150.33 44.0534L152.351 54.7861C154.867 54.2082 157.239 53.2484 159.401 51.9728Z" fill="#A01C44"/>
<path d="M160.105 34.9351C159.723 36.0511 159.212 37.1041 158.579 38.0762L167.292 44.6482C168.705 42.6139 169.824 40.3611 170.588 37.9482L160.105 34.9351Z" fill="#26BBE1"/>
<path d="M148.786 44.3667C148.121 44.4633 147.443 44.5147 146.752 44.5147C146.197 44.5147 145.65 44.4799 145.113 44.4178L143.091 55.1505C144.286 55.3255 145.51 55.4181 146.752 55.4181C148.131 55.4181 149.486 55.3049 150.804 55.0894L148.786 44.3667Z" fill="#F26B2C"/>
<path d="M147.654 16.3493C148.864 16.4267 150.035 16.6571 151.142 17.0227L155.061 6.83633C152.729 6.01225 150.241 5.52513 147.654 5.43359V16.3493Z" fill="#E5243C"/>
<path d="M143.556 44.1489C142.337 43.8646 141.175 43.4206 140.097 42.8403L134.36 52.1245C136.567 53.3883 138.979 54.3251 141.54 54.8697L143.556 44.1489Z" fill="#DB1769"/>
<path d="M142.517 16.9716C143.65 16.614 144.841 16.3961 146.076 16.3389V5.42529C143.454 5.49488 140.934 5.9729 138.572 6.79297L142.517 16.9716Z" fill="#17486A"/>
<path d="M135.077 38.3031C134.384 37.2796 133.819 36.1603 133.414 34.969L122.928 37.979C123.723 40.4804 124.9 42.8116 126.392 44.9041L135.077 38.3031Z" fill="#C4962E"/>
<path d="M138.02 19.3612C138.943 18.6305 139.956 18.0154 141.042 17.5312L137.1 7.35718C134.751 8.34346 132.587 9.67848 130.668 11.2967L138.02 19.3612Z" fill="#036A9C"/>
</g>
<defs>
<linearGradient id="paint0_linear_3742_1770" x1="145.983" y1="58.2936" x2="147.517" y2="58.2936" gradientUnits="userSpaceOnUse">
<stop stop-color="#B46928"/>
<stop offset="0.0833" stop-color="#CE8C31"/>
<stop offset="0.1792" stop-color="#CE8C31"/>
<stop offset="0.2729" stop-color="#DFB158"/>
<stop offset="0.3417" stop-color="#FDEF9D"/>
<stop offset="0.4063" stop-color="#FBF7C1"/>
<stop offset="0.4844" stop-color="#FDEF9D"/>
<stop offset="0.587" stop-color="#DFB158"/>
<stop offset="0.6715" stop-color="#CE8C31"/>
<stop offset="0.7717" stop-color="#C27C2A"/>
<stop offset="0.8337" stop-color="#CC832A"/>
<stop offset="0.8827" stop-color="#E4A33A"/>
<stop offset="0.9307" stop-color="#EFB449"/>
<stop offset="1" stop-color="#B66A29"/>
</linearGradient>
<linearGradient id="paint1_linear_3742_1770" x1="128.728" y1="70.0176" x2="172.806" y2="70.0176" gradientUnits="userSpaceOnUse">
<stop stop-color="#B46928"/>
<stop offset="0.0833" stop-color="#CE8C31"/>
<stop offset="0.1792" stop-color="#CE8C31"/>
<stop offset="0.2729" stop-color="#DFB158"/>
<stop offset="0.3417" stop-color="#FDEF9D"/>
<stop offset="0.4063" stop-color="#FBF7C1"/>
<stop offset="0.4844" stop-color="#FDEF9D"/>
<stop offset="0.587" stop-color="#DFB158"/>
<stop offset="0.6715" stop-color="#CE8C31"/>
<stop offset="0.7717" stop-color="#C27C2A"/>
<stop offset="0.8337" stop-color="#CC832A"/>
<stop offset="0.8827" stop-color="#E4A33A"/>
<stop offset="0.9307" stop-color="#EFB449"/>
<stop offset="1" stop-color="#B66A29"/>
</linearGradient>
<linearGradient id="paint2_linear_3742_1770" x1="120.525" y1="30.4218" x2="172.977" y2="30.4218" gradientUnits="userSpaceOnUse">
<stop stop-color="#B46928"/>
<stop offset="0.0833" stop-color="#CE8C31"/>
<stop offset="0.1792" stop-color="#CE8C31"/>
<stop offset="0.2729" stop-color="#DFB158"/>
<stop offset="0.3417" stop-color="#FDEF9D"/>
<stop offset="0.4063" stop-color="#FBF7C1"/>
<stop offset="0.4844" stop-color="#FDEF9D"/>
<stop offset="0.587" stop-color="#DFB158"/>
<stop offset="0.6715" stop-color="#CE8C31"/>
<stop offset="0.7717" stop-color="#C27C2A"/>
<stop offset="0.8337" stop-color="#CC832A"/>
<stop offset="0.8827" stop-color="#E4A33A"/>
<stop offset="0.9307" stop-color="#EFB449"/>
<stop offset="1" stop-color="#B66A29"/>
</linearGradient>
</defs>
</svg>
