<svg width="" height="" viewBox="0 0 586 222" fill="none" xmlns="http://www.w3.org/2000/svg">
<mask id="path-1-outside-1_3708_3548" maskUnits="userSpaceOnUse" x="2" y="11" width="584" height="197" fill="black">
<rect fill="white" x="2" y="11" width="584" height="197"/>
<path d="M4.096 59.688C4.096 50.8133 5.93067 42.92 9.6 36.008C13.3547 29.0107 18.6453 23.592 25.472 19.752C32.2987 15.8267 40.1493 13.864 49.024 13.864C60.288 13.864 69.76 16.8933 77.44 22.952C85.12 28.9253 90.0693 37.0747 92.288 47.4H65.28C63.6587 43.9867 61.3973 41.384 58.496 39.592C55.68 37.8 52.3947 36.904 48.64 36.904C42.8373 36.904 38.1867 38.9947 34.688 43.176C31.2747 47.272 29.568 52.776 29.568 59.688C29.568 66.6853 31.2747 72.2747 34.688 76.456C38.1867 80.552 42.8373 82.6 48.64 82.6C52.3947 82.6 55.68 81.704 58.496 79.912C61.3973 78.12 63.6587 75.5173 65.28 72.104H92.288C90.0693 82.4293 85.12 90.6213 77.44 96.68C69.76 102.653 60.288 105.64 49.024 105.64C40.1493 105.64 32.2987 103.72 25.472 99.88C18.6453 95.9547 13.3547 90.536 9.6 83.624C5.93067 76.6267 4.096 68.648 4.096 59.688ZM129.256 85.8H157.288V105H104.168V14.76H129.256V85.8ZM192.131 14.76V105H167.043V14.76H192.131ZM311.762 14.76V105H286.674V55.208L269.65 105H248.658L231.506 54.824V105H206.418V14.76H236.754L259.41 73.384L281.554 14.76H311.762ZM383.131 90.28H351.131L346.267 105H319.899L352.795 14.76H381.723L414.491 105H387.995L383.131 90.28ZM376.859 71.08L367.131 41.896L357.531 71.08H376.859ZM490.636 14.76V34.728H466.572V105H441.484V34.728H417.676V14.76H490.636ZM525.006 34.856V49.576H553.806V68.648H525.006V84.904H557.646V105H499.918V14.76H557.646V34.856H525.006ZM4.096 159.688C4.096 150.813 5.93067 142.92 9.6 136.008C13.3547 129.011 18.6453 123.592 25.472 119.752C32.2987 115.827 40.1493 113.864 49.024 113.864C60.288 113.864 69.76 116.893 77.44 122.952C85.12 128.925 90.0693 137.075 92.288 147.4H65.28C63.6587 143.987 61.3973 141.384 58.496 139.592C55.68 137.8 52.3947 136.904 48.64 136.904C42.8373 136.904 38.1867 138.995 34.688 143.176C31.2747 147.272 29.568 152.776 29.568 159.688C29.568 166.685 31.2747 172.275 34.688 176.456C38.1867 180.552 42.8373 182.6 48.64 182.6C52.3947 182.6 55.68 181.704 58.496 179.912C61.3973 178.12 63.6587 175.517 65.28 172.104H92.288C90.0693 182.429 85.12 190.621 77.44 196.68C69.76 202.653 60.288 205.64 49.024 205.64C40.1493 205.64 32.2987 203.72 25.472 199.88C18.6453 195.955 13.3547 190.536 9.6 183.624C5.93067 176.627 4.096 168.648 4.096 159.688ZM147.432 205.896C138.984 205.896 131.219 203.933 124.136 200.008C117.053 195.997 111.421 190.493 107.24 183.496C103.144 176.413 101.096 168.435 101.096 159.56C101.096 150.685 103.144 142.749 107.24 135.752C111.421 128.669 117.053 123.165 124.136 119.24C131.219 115.315 138.984 113.352 147.432 113.352C155.965 113.352 163.731 115.315 170.728 119.24C177.811 123.165 183.4 128.669 187.496 135.752C191.592 142.749 193.64 150.685 193.64 159.56C193.64 168.435 191.592 176.413 187.496 183.496C183.4 190.493 177.811 195.997 170.728 200.008C163.645 203.933 155.88 205.896 147.432 205.896ZM147.432 182.6C153.832 182.6 158.867 180.509 162.536 176.328C166.291 172.147 168.168 166.557 168.168 159.56C168.168 152.392 166.291 146.76 162.536 142.664C158.867 138.483 153.832 136.392 147.432 136.392C140.947 136.392 135.869 138.483 132.2 142.664C128.531 146.76 126.696 152.392 126.696 159.56C126.696 166.643 128.531 172.275 132.2 176.456C135.869 180.552 140.947 182.6 147.432 182.6ZM229.494 114.76V167.112C229.494 171.976 230.603 175.731 232.822 178.376C235.126 181.021 238.582 182.344 243.19 182.344C247.798 182.344 251.254 181.021 253.558 178.376C255.947 175.645 257.142 171.891 257.142 167.112V114.76H282.23V167.112C282.23 175.389 280.481 182.472 276.982 188.36C273.483 194.163 268.705 198.557 262.646 201.544C256.673 204.445 250.017 205.896 242.678 205.896C235.339 205.896 228.769 204.445 222.966 201.544C217.249 198.557 212.726 194.163 209.398 188.36C206.155 182.557 204.534 175.475 204.534 167.112V114.76H229.494ZM379.627 205H354.539L321.131 154.568V205H296.043V114.76H321.131L354.539 165.832V114.76H379.627V205ZM390.846 159.688C390.846 150.813 392.681 142.92 396.35 136.008C400.105 129.011 405.395 123.592 412.222 119.752C419.049 115.827 426.899 113.864 435.774 113.864C447.038 113.864 456.51 116.893 464.19 122.952C471.87 128.925 476.819 137.075 479.038 147.4H452.03C450.409 143.987 448.147 141.384 445.246 139.592C442.43 137.8 439.145 136.904 435.39 136.904C429.587 136.904 424.937 138.995 421.438 143.176C418.025 147.272 416.318 152.776 416.318 159.688C416.318 166.685 418.025 172.275 421.438 176.456C424.937 180.552 429.587 182.6 435.39 182.6C439.145 182.6 442.43 181.704 445.246 179.912C448.147 178.12 450.409 175.517 452.03 172.104H479.038C476.819 182.429 471.87 190.621 464.19 196.68C456.51 202.653 447.038 205.64 435.774 205.64C426.899 205.64 419.049 203.72 412.222 199.88C405.395 195.955 400.105 190.536 396.35 183.624C392.681 176.627 390.846 168.648 390.846 159.688ZM516.006 114.76V205H490.918V114.76H516.006ZM555.381 185.8H583.413V205H530.293V114.76H555.381V185.8Z"/>
</mask>
<path d="M9.6 36.008L7.83766 35.0624L7.83349 35.0702L9.6 36.008ZM25.472 19.752L26.4525 21.4952L26.4608 21.4905L26.4689 21.4858L25.472 19.752ZM77.44 22.952L76.2012 24.5222L76.2121 24.5307L77.44 22.952ZM92.288 47.4V49.4H94.7634L94.2434 46.9798L92.288 47.4ZM65.28 47.4L63.4735 48.2581L64.0158 49.4H65.28V47.4ZM58.496 39.592L57.4223 41.2793L57.4336 41.2865L57.445 41.2936L58.496 39.592ZM34.688 43.176L33.1541 41.8926L33.1516 41.8956L34.688 43.176ZM34.688 76.456L33.1387 77.7207L33.1528 77.738L33.1673 77.755L34.688 76.456ZM58.496 79.912L57.445 78.2104L57.4336 78.2175L57.4223 78.2247L58.496 79.912ZM65.28 72.104V70.104H64.0158L63.4735 71.2459L65.28 72.104ZM92.288 72.104L94.2434 72.5242L94.7634 70.104H92.288V72.104ZM77.44 96.68L78.6679 98.2587L78.6787 98.2502L77.44 96.68ZM25.472 99.88L24.4751 101.614L24.4832 101.619L24.4915 101.623L25.472 99.88ZM9.6 83.624L7.82876 84.5528L7.83556 84.5658L7.84255 84.5787L9.6 83.624ZM6.096 59.688C6.096 51.096 7.87002 43.5322 11.3665 36.9458L7.83349 35.0702C3.99132 42.3078 2.096 50.5307 2.096 59.688H6.096ZM11.3623 36.9536C14.94 30.2861 19.9617 25.1462 26.4525 21.4952L24.4915 18.0088C17.3289 22.0378 11.7693 27.7353 7.83768 35.0624L11.3623 36.9536ZM26.4689 21.4858C32.9553 17.7562 40.4539 15.864 49.024 15.864V11.864C39.8448 11.864 31.642 13.8972 24.4751 18.0182L26.4689 21.4858ZM49.024 15.864C59.9099 15.864 68.9264 18.7831 76.2013 24.5222L78.6787 21.3818C70.5936 15.0035 60.6661 11.864 49.024 11.864V15.864ZM76.2121 24.5307C83.4883 30.1899 88.2037 37.9123 90.3326 47.8202L94.2434 46.9798C91.935 36.237 86.7517 27.6607 78.6679 21.3733L76.2121 24.5307ZM92.288 45.4H65.28V49.4H92.288V45.4ZM67.0866 46.5419C65.3184 42.8195 62.8111 39.9065 59.547 37.8904L57.445 41.2936C59.9836 42.8615 61.9989 45.1539 63.4735 48.2581L67.0866 46.5419ZM59.5698 37.9047C56.3939 35.8837 52.7261 34.904 48.64 34.904V38.904C52.0632 38.904 54.9661 39.7163 57.4223 41.2793L59.5698 37.9047ZM48.64 34.904C42.2887 34.904 37.0599 37.2247 33.1541 41.8926L36.2219 44.4594C39.3135 40.7646 43.386 38.904 48.64 38.904V34.904ZM33.1516 41.8956C29.3594 46.4462 27.568 52.449 27.568 59.688H31.568C31.568 53.103 33.1899 48.0978 36.2244 44.4564L33.1516 41.8956ZM27.568 59.688C27.568 67.0078 29.3569 73.0881 33.1387 77.7207L36.2373 75.1912C33.1924 71.4612 31.568 66.3629 31.568 59.688H27.568ZM33.1673 77.755C37.078 82.3334 42.3035 84.6 48.64 84.6V80.6C43.3712 80.6 39.2954 78.7706 36.2088 75.157L33.1673 77.755ZM48.64 84.6C52.7261 84.6 56.3939 83.6203 59.5698 81.5993L57.4223 78.2247C54.9661 79.7877 52.0632 80.6 48.64 80.6V84.6ZM59.547 81.6136C62.8111 79.5975 65.3184 76.6845 67.0866 72.9621L63.4735 71.2459C61.9989 74.3501 59.9836 76.6424 57.445 78.2104L59.547 81.6136ZM65.28 74.104H92.288V70.104H65.28V74.104ZM90.3326 71.6838C88.2034 81.593 83.4858 89.3631 76.2013 95.1098L78.6787 98.2502C86.7542 91.8795 91.9353 83.2656 94.2434 72.5242L90.3326 71.6838ZM76.2121 95.1013C68.9369 100.76 59.9165 103.64 49.024 103.64V107.64C60.6595 107.64 70.5831 104.547 78.6679 98.2587L76.2121 95.1013ZM49.024 103.64C40.4464 103.64 32.9418 101.787 26.4525 98.1368L24.4915 101.623C31.6555 105.653 39.8523 107.64 49.024 107.64V103.64ZM26.4689 98.1462C19.9626 94.405 14.9353 89.2559 11.3574 82.6693L7.84255 84.5787C11.774 91.8161 17.3281 97.5043 24.4751 101.614L26.4689 98.1462ZM11.3712 82.6952C7.87128 76.0208 6.096 68.3683 6.096 59.688H2.096C2.096 68.9277 3.99006 77.2325 7.82876 84.5528L11.3712 82.6952ZM129.256 85.8H127.256V87.8H129.256V85.8ZM157.288 85.8H159.288V83.8H157.288V85.8ZM157.288 105V107H159.288V105H157.288ZM104.168 105H102.168V107H104.168V105ZM104.168 14.76V12.76H102.168V14.76H104.168ZM129.256 14.76H131.256V12.76H129.256V14.76ZM129.256 87.8H157.288V83.8H129.256V87.8ZM155.288 85.8V105H159.288V85.8H155.288ZM157.288 103H104.168V107H157.288V103ZM106.168 105V14.76H102.168V105H106.168ZM104.168 16.76H129.256V12.76H104.168V16.76ZM127.256 14.76V85.8H131.256V14.76H127.256ZM192.131 14.76H194.131V12.76H192.131V14.76ZM192.131 105V107H194.131V105H192.131ZM167.043 105H165.043V107H167.043V105ZM167.043 14.76V12.76H165.043V14.76H167.043ZM190.131 14.76V105H194.131V14.76H190.131ZM192.131 103H167.043V107H192.131V103ZM169.043 105V14.76H165.043V105H169.043ZM167.043 16.76H192.131V12.76H167.043V16.76ZM311.762 14.76H313.762V12.76H311.762V14.76ZM311.762 105V107H313.762V105H311.762ZM286.674 105H284.674V107H286.674V105ZM286.674 55.208H288.674L284.782 54.561L286.674 55.208ZM269.65 105V107H271.08L271.542 105.647L269.65 105ZM248.658 105L246.766 105.647L247.228 107H248.658V105ZM231.506 54.824L233.398 54.1771L229.506 54.824H231.506ZM231.506 105V107H233.506V105H231.506ZM206.418 105H204.418V107H206.418V105ZM206.418 14.76V12.76H204.418V14.76H206.418ZM236.754 14.76L238.62 14.039L238.125 12.76H236.754V14.76ZM259.41 73.384L257.544 74.105L259.431 78.9874L261.281 74.0907L259.41 73.384ZM281.554 14.76V12.76H280.172L279.683 14.0533L281.554 14.76ZM309.762 14.76V105H313.762V14.76H309.762ZM311.762 103H286.674V107H311.762V103ZM288.674 105V55.208H284.674V105H288.674ZM284.782 54.561L267.758 104.353L271.542 105.647L288.566 55.855L284.782 54.561ZM269.65 103H248.658V107H269.65V103ZM250.55 104.353L233.398 54.1771L229.614 55.4709L246.766 105.647L250.55 104.353ZM229.506 54.824V105H233.506V54.824H229.506ZM231.506 103H206.418V107H231.506V103ZM208.418 105V14.76H204.418V105H208.418ZM206.418 16.76H236.754V12.76H206.418V16.76ZM234.888 15.481L257.544 74.105L261.276 72.663L238.62 14.039L234.888 15.481ZM261.281 74.0907L283.425 15.4667L279.683 14.0533L257.539 72.6773L261.281 74.0907ZM281.554 16.76H311.762V12.76H281.554V16.76ZM383.131 90.28L385.03 89.6525L384.577 88.28H383.131V90.28ZM351.131 90.28V88.28H349.686L349.232 89.6525L351.131 90.28ZM346.267 105V107H347.712L348.166 105.628L346.267 105ZM319.899 105L318.02 104.315L317.041 107H319.899V105ZM352.795 14.76V12.76H351.395L350.916 14.075L352.795 14.76ZM381.723 14.76L383.603 14.0774L383.125 12.76H381.723V14.76ZM414.491 105V107H417.345L416.371 104.317L414.491 105ZM387.995 105L386.096 105.628L386.549 107H387.995V105ZM376.859 71.08V73.08H379.634L378.756 70.4475L376.859 71.08ZM367.131 41.896L369.028 41.2635L367.118 35.5337L365.231 41.271L367.131 41.896ZM357.531 71.08L355.631 70.455L354.768 73.08H357.531V71.08ZM383.131 88.28H351.131V92.28H383.131V88.28ZM349.232 89.6525L344.368 104.372L348.166 105.628L353.03 90.9075L349.232 89.6525ZM346.267 103H319.899V107H346.267V103ZM321.778 105.685L354.674 15.445L350.916 14.075L318.02 104.315L321.778 105.685ZM352.795 16.76H381.723V12.76H352.795V16.76ZM379.843 15.4426L412.611 105.683L416.371 104.317L383.603 14.0774L379.843 15.4426ZM414.491 103H387.995V107H414.491V103ZM389.894 104.372L385.03 89.6525L381.232 90.9075L386.096 105.628L389.894 104.372ZM378.756 70.4475L369.028 41.2635L365.234 42.5285L374.962 71.7125L378.756 70.4475ZM365.231 41.271L355.631 70.455L359.431 71.7049L369.031 42.5209L365.231 41.271ZM357.531 73.08H376.859V69.08H357.531V73.08ZM490.636 14.76H492.636V12.76H490.636V14.76ZM490.636 34.728V36.728H492.636V34.728H490.636ZM466.572 34.728V32.728H464.572V34.728H466.572ZM466.572 105V107H468.572V105H466.572ZM441.484 105H439.484V107H441.484V105ZM441.484 34.728H443.484V32.728H441.484V34.728ZM417.676 34.728H415.676V36.728H417.676V34.728ZM417.676 14.76V12.76H415.676V14.76H417.676ZM488.636 14.76V34.728H492.636V14.76H488.636ZM490.636 32.728H466.572V36.728H490.636V32.728ZM464.572 34.728V105H468.572V34.728H464.572ZM466.572 103H441.484V107H466.572V103ZM443.484 105V34.728H439.484V105H443.484ZM441.484 32.728H417.676V36.728H441.484V32.728ZM419.676 34.728V14.76H415.676V34.728H419.676ZM417.676 16.76H490.636V12.76H417.676V16.76ZM525.006 34.856V32.856H523.006V34.856H525.006ZM525.006 49.576H523.006V51.576H525.006V49.576ZM553.806 49.576H555.806V47.576H553.806V49.576ZM553.806 68.648V70.648H555.806V68.648H553.806ZM525.006 68.648V66.648H523.006V68.648H525.006ZM525.006 84.904H523.006V86.904H525.006V84.904ZM557.646 84.904H559.646V82.904H557.646V84.904ZM557.646 105V107H559.646V105H557.646ZM499.918 105H497.918V107H499.918V105ZM499.918 14.76V12.76H497.918V14.76H499.918ZM557.646 14.76H559.646V12.76H557.646V14.76ZM557.646 34.856V36.856H559.646V34.856H557.646ZM523.006 34.856V49.576H527.006V34.856H523.006ZM525.006 51.576H553.806V47.576H525.006V51.576ZM551.806 49.576V68.648H555.806V49.576H551.806ZM553.806 66.648H525.006V70.648H553.806V66.648ZM523.006 68.648V84.904H527.006V68.648H523.006ZM525.006 86.904H557.646V82.904H525.006V86.904ZM555.646 84.904V105H559.646V84.904H555.646ZM557.646 103H499.918V107H557.646V103ZM501.918 105V14.76H497.918V105H501.918ZM499.918 16.76H557.646V12.76H499.918V16.76ZM555.646 14.76V34.856H559.646V14.76H555.646ZM557.646 32.856H525.006V36.856H557.646V32.856ZM9.6 136.008L7.83766 135.062L7.83349 135.07L9.6 136.008ZM25.472 119.752L26.4525 121.495L26.4608 121.491L26.4689 121.486L25.472 119.752ZM77.44 122.952L76.2012 124.522L76.2121 124.531L77.44 122.952ZM92.288 147.4V149.4H94.7634L94.2434 146.98L92.288 147.4ZM65.28 147.4L63.4735 148.258L64.0158 149.4H65.28V147.4ZM58.496 139.592L57.4223 141.279L57.4336 141.287L57.445 141.294L58.496 139.592ZM34.688 143.176L33.1541 141.893L33.1516 141.896L34.688 143.176ZM34.688 176.456L33.1387 177.721L33.1528 177.738L33.1673 177.755L34.688 176.456ZM58.496 179.912L57.445 178.21L57.4336 178.217L57.4223 178.225L58.496 179.912ZM65.28 172.104V170.104H64.0158L63.4735 171.246L65.28 172.104ZM92.288 172.104L94.2434 172.524L94.7634 170.104H92.288V172.104ZM77.44 196.68L78.6679 198.259L78.6787 198.25L77.44 196.68ZM25.472 199.88L24.4751 201.614L24.4832 201.619L24.4915 201.623L25.472 199.88ZM9.6 183.624L7.82876 184.553L7.83556 184.566L7.84255 184.579L9.6 183.624ZM6.096 159.688C6.096 151.096 7.87002 143.532 11.3665 136.946L7.83349 135.07C3.99132 142.308 2.096 150.531 2.096 159.688H6.096ZM11.3623 136.954C14.94 130.286 19.9617 125.146 26.4525 121.495L24.4915 118.009C17.3289 122.038 11.7693 127.735 7.83768 135.062L11.3623 136.954ZM26.4689 121.486C32.9553 117.756 40.4539 115.864 49.024 115.864V111.864C39.8448 111.864 31.642 113.897 24.4751 118.018L26.4689 121.486ZM49.024 115.864C59.9099 115.864 68.9264 118.783 76.2013 124.522L78.6787 121.382C70.5936 115.004 60.6661 111.864 49.024 111.864V115.864ZM76.2121 124.531C83.4883 130.19 88.2037 137.912 90.3326 147.82L94.2434 146.98C91.935 136.237 86.7517 127.661 78.6679 121.373L76.2121 124.531ZM92.288 145.4H65.28V149.4H92.288V145.4ZM67.0866 146.542C65.3184 142.819 62.8111 139.906 59.547 137.89L57.445 141.294C59.9836 142.862 61.9989 145.154 63.4735 148.258L67.0866 146.542ZM59.5698 137.905C56.3939 135.884 52.7261 134.904 48.64 134.904V138.904C52.0632 138.904 54.9661 139.716 57.4223 141.279L59.5698 137.905ZM48.64 134.904C42.2887 134.904 37.0599 137.225 33.1541 141.893L36.2219 144.459C39.3135 140.765 43.386 138.904 48.64 138.904V134.904ZM33.1516 141.896C29.3594 146.446 27.568 152.449 27.568 159.688H31.568C31.568 153.103 33.1899 148.098 36.2244 144.456L33.1516 141.896ZM27.568 159.688C27.568 167.008 29.3569 173.088 33.1387 177.721L36.2373 175.191C33.1924 171.461 31.568 166.363 31.568 159.688H27.568ZM33.1673 177.755C37.078 182.333 42.3035 184.6 48.64 184.6V180.6C43.3712 180.6 39.2954 178.771 36.2088 175.157L33.1673 177.755ZM48.64 184.6C52.7261 184.6 56.3939 183.62 59.5698 181.599L57.4223 178.225C54.9661 179.788 52.0632 180.6 48.64 180.6V184.6ZM59.547 181.614C62.8111 179.598 65.3184 176.685 67.0866 172.962L63.4735 171.246C61.9989 174.35 59.9836 176.642 57.445 178.21L59.547 181.614ZM65.28 174.104H92.288V170.104H65.28V174.104ZM90.3326 171.684C88.2034 181.593 83.4858 189.363 76.2013 195.11L78.6787 198.25C86.7542 191.88 91.9353 183.266 94.2434 172.524L90.3326 171.684ZM76.2121 195.101C68.9369 200.76 59.9165 203.64 49.024 203.64V207.64C60.6595 207.64 70.5831 204.547 78.6679 198.259L76.2121 195.101ZM49.024 203.64C40.4464 203.64 32.9418 201.787 26.4525 198.137L24.4915 201.623C31.6555 205.653 39.8523 207.64 49.024 207.64V203.64ZM26.4689 198.146C19.9626 194.405 14.9353 189.256 11.3574 182.669L7.84255 184.579C11.774 191.816 17.3281 197.504 24.4751 201.614L26.4689 198.146ZM11.3712 182.695C7.87128 176.021 6.096 168.368 6.096 159.688H2.096C2.096 168.928 3.99006 177.232 7.82876 184.553L11.3712 182.695ZM124.136 200.008L123.151 201.748L123.158 201.753L123.167 201.757L124.136 200.008ZM107.24 183.496L105.509 184.497L105.516 184.51L105.523 184.522L107.24 183.496ZM107.24 135.752L105.518 134.735L105.514 134.742L107.24 135.752ZM170.728 119.24L169.749 120.984L169.759 120.989L170.728 119.24ZM187.496 135.752L185.765 136.753L185.77 136.762L187.496 135.752ZM187.496 183.496L189.222 184.506L189.227 184.497L187.496 183.496ZM170.728 200.008L171.697 201.757L171.706 201.753L171.714 201.748L170.728 200.008ZM162.536 176.328L161.048 174.992L161.04 175L161.033 175.009L162.536 176.328ZM162.536 142.664L161.033 143.983L161.047 143.999L161.062 144.015L162.536 142.664ZM132.2 142.664L133.69 143.998L133.697 143.991L133.703 143.983L132.2 142.664ZM132.2 176.456L130.697 177.775L130.704 177.783L130.71 177.79L132.2 176.456ZM147.432 203.896C139.308 203.896 131.878 202.012 125.105 198.259L123.167 201.757C130.559 205.854 138.66 207.896 147.432 207.896V203.896ZM125.121 198.268C118.341 194.428 112.961 189.17 108.957 182.47L105.523 184.522C109.882 191.816 115.766 197.567 123.151 201.748L125.121 198.268ZM108.971 182.495C105.066 175.742 103.096 168.114 103.096 159.56H99.096C99.096 168.756 101.222 177.085 105.509 184.497L108.971 182.495ZM103.096 159.56C103.096 151.006 105.066 143.425 108.966 136.762L105.514 134.742C101.222 142.074 99.096 150.365 99.096 159.56H103.096ZM108.962 136.769C112.965 129.988 118.34 124.739 125.105 120.989L123.167 117.491C115.767 121.592 109.877 127.351 105.518 134.735L108.962 136.769ZM125.105 120.989C131.878 117.236 139.308 115.352 147.432 115.352V111.352C138.66 111.352 130.559 113.394 123.167 117.491L125.105 120.989ZM147.432 115.352C155.645 115.352 163.07 117.237 169.749 120.984L171.707 117.496C164.391 113.392 156.285 111.352 147.432 111.352V115.352ZM169.759 120.989C176.521 124.737 181.848 129.981 185.765 136.753L189.227 134.751C184.952 127.358 179.101 121.594 171.697 117.491L169.759 120.989ZM185.77 136.762C189.67 143.425 191.64 151.006 191.64 159.56H195.64C195.64 150.365 193.514 142.074 189.222 134.742L185.77 136.762ZM191.64 159.56C191.64 168.114 189.67 175.742 185.765 182.495L189.227 184.497C193.514 177.085 195.64 168.756 195.64 159.56H191.64ZM185.77 182.486C181.853 189.177 176.52 194.43 169.743 198.268L171.714 201.748C179.102 197.565 184.947 191.809 189.222 184.506L185.77 182.486ZM169.759 198.259C162.986 202.012 155.556 203.896 147.432 203.896V207.896C156.204 207.896 164.305 205.854 171.697 201.757L169.759 198.259ZM147.432 184.6C154.312 184.6 159.931 182.328 164.039 177.647L161.033 175.009C157.802 178.69 153.352 180.6 147.432 180.6V184.6ZM164.024 177.664C168.184 173.032 170.168 166.925 170.168 159.56H166.168C166.168 166.19 164.398 171.261 161.048 174.992L164.024 177.664ZM170.168 159.56C170.168 152.041 168.192 145.875 164.01 141.313L161.062 144.015C164.389 147.645 166.168 152.743 166.168 159.56H170.168ZM164.039 141.345C159.931 136.664 154.312 134.392 147.432 134.392V138.392C153.352 138.392 157.802 140.302 161.033 143.983L164.039 141.345ZM147.432 134.392C140.476 134.392 134.81 136.657 130.697 141.345L133.703 143.983C136.929 140.308 141.417 138.392 147.432 138.392V134.392ZM130.71 141.329C126.623 145.892 124.696 152.053 124.696 159.56H128.696C128.696 152.731 130.438 147.628 133.69 143.998L130.71 141.329ZM124.696 159.56C124.696 166.992 126.627 173.138 130.697 177.775L133.703 175.137C130.434 171.411 128.696 166.294 128.696 159.56H124.696ZM130.71 177.79C134.828 182.387 140.49 184.6 147.432 184.6V180.6C141.404 180.6 136.911 178.717 133.69 175.122L130.71 177.79ZM229.494 114.76H231.494V112.76H229.494V114.76ZM232.822 178.376L231.29 179.661L231.302 179.676L231.314 179.69L232.822 178.376ZM253.558 178.376L252.053 177.059L252.05 177.062L253.558 178.376ZM257.142 114.76V112.76H255.142V114.76H257.142ZM282.23 114.76H284.23V112.76H282.23V114.76ZM276.982 188.36L278.695 189.393L278.701 189.382L276.982 188.36ZM262.646 201.544L263.52 203.343L263.53 203.338L262.646 201.544ZM222.966 201.544L222.04 203.317L222.056 203.325L222.072 203.333L222.966 201.544ZM209.398 188.36L207.652 189.336L207.658 189.345L207.663 189.355L209.398 188.36ZM204.534 114.76V112.76H202.534V114.76H204.534ZM227.494 114.76V167.112H231.494V114.76H227.494ZM227.494 167.112C227.494 172.256 228.666 176.533 231.29 179.661L234.354 177.091C232.541 174.928 231.494 171.696 231.494 167.112H227.494ZM231.314 179.69C234.108 182.898 238.196 184.344 243.19 184.344V180.344C238.968 180.344 236.144 179.145 234.33 177.062L231.314 179.69ZM243.19 184.344C248.184 184.344 252.272 182.898 255.066 179.69L252.05 177.062C250.236 179.145 247.412 180.344 243.19 180.344V184.344ZM255.063 179.693C257.861 176.495 259.142 172.219 259.142 167.112H255.142C255.142 171.562 254.033 174.795 252.053 177.059L255.063 179.693ZM259.142 167.112V114.76H255.142V167.112H259.142ZM257.142 116.76H282.23V112.76H257.142V116.76ZM280.23 114.76V167.112H284.23V114.76H280.23ZM280.23 167.112C280.23 175.105 278.543 181.818 275.263 187.338L278.701 189.382C282.419 183.126 284.23 175.674 284.23 167.112H280.23ZM275.269 187.327C271.968 192.803 267.476 196.933 261.762 199.75L263.53 203.338C269.933 200.181 274.999 195.522 278.695 189.393L275.269 187.327ZM261.772 199.745C256.099 202.501 249.746 203.896 242.678 203.896V207.896C250.287 207.896 257.247 206.39 263.52 203.343L261.772 199.745ZM242.678 203.896C235.609 203.896 229.351 202.5 223.86 199.755L222.072 203.333C228.186 206.39 235.07 207.896 242.678 207.896V203.896ZM223.892 199.771C218.526 196.968 214.278 192.849 211.133 187.365L207.663 189.355C211.174 195.476 215.971 200.147 222.04 203.317L223.892 199.771ZM211.144 187.384C208.106 181.947 206.534 175.22 206.534 167.112H202.534C202.534 175.73 204.205 183.167 207.652 189.336L211.144 187.384ZM206.534 167.112V114.76H202.534V167.112H206.534ZM204.534 116.76H229.494V112.76H204.534V116.76ZM379.627 205V207H381.627V205H379.627ZM354.539 205L352.872 206.105L353.465 207H354.539V205ZM321.131 154.568L322.798 153.463L319.131 147.927V154.568H321.131ZM321.131 205V207H323.131V205H321.131ZM296.043 205H294.043V207H296.043V205ZM296.043 114.76V112.76H294.043V114.76H296.043ZM321.131 114.76L322.805 113.665L322.213 112.76H321.131V114.76ZM354.539 165.832L352.865 166.927L356.539 172.543V165.832H354.539ZM354.539 114.76V112.76H352.539V114.76H354.539ZM379.627 114.76H381.627V112.76H379.627V114.76ZM379.627 203H354.539V207H379.627V203ZM356.206 203.895L322.798 153.463L319.464 155.673L352.872 206.105L356.206 203.895ZM319.131 154.568V205H323.131V154.568H319.131ZM321.131 203H296.043V207H321.131V203ZM298.043 205V114.76H294.043V205H298.043ZM296.043 116.76H321.131V112.76H296.043V116.76ZM319.457 115.855L352.865 166.927L356.213 164.737L322.805 113.665L319.457 115.855ZM356.539 165.832V114.76H352.539V165.832H356.539ZM354.539 116.76H379.627V112.76H354.539V116.76ZM377.627 114.76V205H381.627V114.76H377.627ZM396.35 136.008L394.588 135.062L394.583 135.07L396.35 136.008ZM412.222 119.752L413.203 121.495L413.211 121.491L413.219 121.486L412.222 119.752ZM464.19 122.952L462.951 124.522L462.962 124.531L464.19 122.952ZM479.038 147.4V149.4H481.513L480.993 146.98L479.038 147.4ZM452.03 147.4L450.223 148.258L450.766 149.4H452.03V147.4ZM445.246 139.592L444.172 141.279L444.184 141.287L444.195 141.294L445.246 139.592ZM421.438 143.176L419.904 141.893L419.902 141.896L421.438 143.176ZM421.438 176.456L419.889 177.721L419.903 177.738L419.917 177.755L421.438 176.456ZM445.246 179.912L444.195 178.21L444.184 178.217L444.172 178.225L445.246 179.912ZM452.03 172.104V170.104H450.766L450.223 171.246L452.03 172.104ZM479.038 172.104L480.993 172.524L481.513 170.104H479.038V172.104ZM464.19 196.68L465.418 198.259L465.429 198.25L464.19 196.68ZM412.222 199.88L411.225 201.614L411.233 201.619L411.241 201.623L412.222 199.88ZM396.35 183.624L394.579 184.553L394.586 184.566L394.593 184.579L396.35 183.624ZM392.846 159.688C392.846 151.096 394.62 143.532 398.117 136.946L394.583 135.07C390.741 142.308 388.846 150.531 388.846 159.688H392.846ZM398.112 136.954C401.69 130.286 406.712 125.146 413.203 121.495L411.241 118.009C404.079 122.038 398.519 127.735 394.588 135.062L398.112 136.954ZM413.219 121.486C419.705 117.756 427.204 115.864 435.774 115.864V111.864C426.595 111.864 418.392 113.897 411.225 118.018L413.219 121.486ZM435.774 115.864C446.66 115.864 455.676 118.783 462.951 124.522L465.429 121.382C457.344 115.004 447.416 111.864 435.774 111.864V115.864ZM462.962 124.531C470.238 130.19 474.954 137.912 477.083 147.82L480.993 146.98C478.685 136.237 473.502 127.661 465.418 121.373L462.962 124.531ZM479.038 145.4H452.03V149.4H479.038V145.4ZM453.837 146.542C452.068 142.819 449.561 139.906 446.297 137.89L444.195 141.294C446.734 142.862 448.749 145.154 450.223 148.258L453.837 146.542ZM446.32 137.905C443.144 135.884 439.476 134.904 435.39 134.904V138.904C438.813 138.904 441.716 139.716 444.172 141.279L446.32 137.905ZM435.39 134.904C429.039 134.904 423.81 137.225 419.904 141.893L422.972 144.459C426.063 140.765 430.136 138.904 435.39 138.904V134.904ZM419.902 141.896C416.109 146.446 414.318 152.449 414.318 159.688H418.318C418.318 153.103 419.94 148.098 422.974 144.456L419.902 141.896ZM414.318 159.688C414.318 167.008 416.107 173.088 419.889 177.721L422.987 175.191C419.942 171.461 418.318 166.363 418.318 159.688H414.318ZM419.917 177.755C423.828 182.333 429.054 184.6 435.39 184.6V180.6C430.121 180.6 426.045 178.771 422.959 175.157L419.917 177.755ZM435.39 184.6C439.476 184.6 443.144 183.62 446.32 181.599L444.172 178.225C441.716 179.788 438.813 180.6 435.39 180.6V184.6ZM446.297 181.614C449.561 179.598 452.068 176.685 453.837 172.962L450.223 171.246C448.749 174.35 446.734 176.642 444.195 178.21L446.297 181.614ZM452.03 174.104H479.038V170.104H452.03V174.104ZM477.083 171.684C474.953 181.593 470.236 189.363 462.951 195.11L465.429 198.25C473.504 191.88 478.685 183.266 480.993 172.524L477.083 171.684ZM462.962 195.101C455.687 200.76 446.667 203.64 435.774 203.64V207.64C447.409 207.64 457.333 204.547 465.418 198.259L462.962 195.101ZM435.774 203.64C427.196 203.64 419.692 201.787 413.203 198.137L411.241 201.623C418.406 205.653 426.602 207.64 435.774 207.64V203.64ZM413.219 198.146C406.713 194.405 401.685 189.256 398.107 182.669L394.593 184.579C398.524 191.816 404.078 197.504 411.225 201.614L413.219 198.146ZM398.121 182.695C394.621 176.021 392.846 168.368 392.846 159.688H388.846C388.846 168.928 390.74 177.232 394.579 184.553L398.121 182.695ZM516.006 114.76H518.006V112.76H516.006V114.76ZM516.006 205V207H518.006V205H516.006ZM490.918 205H488.918V207H490.918V205ZM490.918 114.76V112.76H488.918V114.76H490.918ZM514.006 114.76V205H518.006V114.76H514.006ZM516.006 203H490.918V207H516.006V203ZM492.918 205V114.76H488.918V205H492.918ZM490.918 116.76H516.006V112.76H490.918V116.76ZM555.381 185.8H553.381V187.8H555.381V185.8ZM583.413 185.8H585.413V183.8H583.413V185.8ZM583.413 205V207H585.413V205H583.413ZM530.293 205H528.293V207H530.293V205ZM530.293 114.76V112.76H528.293V114.76H530.293ZM555.381 114.76H557.381V112.76H555.381V114.76ZM555.381 187.8H583.413V183.8H555.381V187.8ZM581.413 185.8V205H585.413V185.8H581.413ZM583.413 203H530.293V207H583.413V203ZM532.293 205V114.76H528.293V205H532.293ZM530.293 116.76H555.381V112.76H530.293V116.76ZM553.381 114.76V185.8H557.381V114.76H553.381Z" fill="#151513" mask="url(#path-1-outside-1_3708_3548)"/>
<mask id="path-3-outside-2_3708_3548" maskUnits="userSpaceOnUse" x="2" y="1" width="584" height="197" fill="black">
<rect fill="white" x="2" y="1" width="584" height="197"/>
<path d="M4.096 49.688C4.096 40.8133 5.93067 32.92 9.6 26.008C13.3547 19.0107 18.6453 13.592 25.472 9.752C32.2987 5.82667 40.1493 3.864 49.024 3.864C60.288 3.864 69.76 6.89333 77.44 12.952C85.12 18.9253 90.0693 27.0747 92.288 37.4H65.28C63.6587 33.9867 61.3973 31.384 58.496 29.592C55.68 27.8 52.3947 26.904 48.64 26.904C42.8373 26.904 38.1867 28.9947 34.688 33.176C31.2747 37.272 29.568 42.776 29.568 49.688C29.568 56.6853 31.2747 62.2747 34.688 66.456C38.1867 70.552 42.8373 72.6 48.64 72.6C52.3947 72.6 55.68 71.704 58.496 69.912C61.3973 68.12 63.6587 65.5173 65.28 62.104H92.288C90.0693 72.4293 85.12 80.6213 77.44 86.68C69.76 92.6533 60.288 95.64 49.024 95.64C40.1493 95.64 32.2987 93.72 25.472 89.88C18.6453 85.9547 13.3547 80.536 9.6 73.624C5.93067 66.6267 4.096 58.648 4.096 49.688ZM129.256 75.8H157.288V95H104.168V4.75999H129.256V75.8ZM192.131 4.75999V95H167.043V4.75999H192.131ZM311.762 4.75999V95H286.674V45.208L269.65 95H248.658L231.506 44.824V95H206.418V4.75999H236.754L259.41 63.384L281.554 4.75999H311.762ZM383.131 80.28H351.131L346.267 95H319.899L352.795 4.75999H381.723L414.491 95H387.995L383.131 80.28ZM376.859 61.08L367.131 31.896L357.531 61.08H376.859ZM490.636 4.75999V24.728H466.572V95H441.484V24.728H417.676V4.75999H490.636ZM525.006 24.856V39.576H553.806V58.648H525.006V74.904H557.646V95H499.918V4.75999H557.646V24.856H525.006ZM4.096 149.688C4.096 140.813 5.93067 132.92 9.6 126.008C13.3547 119.011 18.6453 113.592 25.472 109.752C32.2987 105.827 40.1493 103.864 49.024 103.864C60.288 103.864 69.76 106.893 77.44 112.952C85.12 118.925 90.0693 127.075 92.288 137.4H65.28C63.6587 133.987 61.3973 131.384 58.496 129.592C55.68 127.8 52.3947 126.904 48.64 126.904C42.8373 126.904 38.1867 128.995 34.688 133.176C31.2747 137.272 29.568 142.776 29.568 149.688C29.568 156.685 31.2747 162.275 34.688 166.456C38.1867 170.552 42.8373 172.6 48.64 172.6C52.3947 172.6 55.68 171.704 58.496 169.912C61.3973 168.12 63.6587 165.517 65.28 162.104H92.288C90.0693 172.429 85.12 180.621 77.44 186.68C69.76 192.653 60.288 195.64 49.024 195.64C40.1493 195.64 32.2987 193.72 25.472 189.88C18.6453 185.955 13.3547 180.536 9.6 173.624C5.93067 166.627 4.096 158.648 4.096 149.688ZM147.432 195.896C138.984 195.896 131.219 193.933 124.136 190.008C117.053 185.997 111.421 180.493 107.24 173.496C103.144 166.413 101.096 158.435 101.096 149.56C101.096 140.685 103.144 132.749 107.24 125.752C111.421 118.669 117.053 113.165 124.136 109.24C131.219 105.315 138.984 103.352 147.432 103.352C155.965 103.352 163.731 105.315 170.728 109.24C177.811 113.165 183.4 118.669 187.496 125.752C191.592 132.749 193.64 140.685 193.64 149.56C193.64 158.435 191.592 166.413 187.496 173.496C183.4 180.493 177.811 185.997 170.728 190.008C163.645 193.933 155.88 195.896 147.432 195.896ZM147.432 172.6C153.832 172.6 158.867 170.509 162.536 166.328C166.291 162.147 168.168 156.557 168.168 149.56C168.168 142.392 166.291 136.76 162.536 132.664C158.867 128.483 153.832 126.392 147.432 126.392C140.947 126.392 135.869 128.483 132.2 132.664C128.531 136.76 126.696 142.392 126.696 149.56C126.696 156.643 128.531 162.275 132.2 166.456C135.869 170.552 140.947 172.6 147.432 172.6ZM229.494 104.76V157.112C229.494 161.976 230.603 165.731 232.822 168.376C235.126 171.021 238.582 172.344 243.19 172.344C247.798 172.344 251.254 171.021 253.558 168.376C255.947 165.645 257.142 161.891 257.142 157.112V104.76H282.23V157.112C282.23 165.389 280.481 172.472 276.982 178.36C273.483 184.163 268.705 188.557 262.646 191.544C256.673 194.445 250.017 195.896 242.678 195.896C235.339 195.896 228.769 194.445 222.966 191.544C217.249 188.557 212.726 184.163 209.398 178.36C206.155 172.557 204.534 165.475 204.534 157.112V104.76H229.494ZM379.627 195H354.539L321.131 144.568V195H296.043V104.76H321.131L354.539 155.832V104.76H379.627V195ZM390.846 149.688C390.846 140.813 392.681 132.92 396.35 126.008C400.105 119.011 405.395 113.592 412.222 109.752C419.049 105.827 426.899 103.864 435.774 103.864C447.038 103.864 456.51 106.893 464.19 112.952C471.87 118.925 476.819 127.075 479.038 137.4H452.03C450.409 133.987 448.147 131.384 445.246 129.592C442.43 127.8 439.145 126.904 435.39 126.904C429.587 126.904 424.937 128.995 421.438 133.176C418.025 137.272 416.318 142.776 416.318 149.688C416.318 156.685 418.025 162.275 421.438 166.456C424.937 170.552 429.587 172.6 435.39 172.6C439.145 172.6 442.43 171.704 445.246 169.912C448.147 168.12 450.409 165.517 452.03 162.104H479.038C476.819 172.429 471.87 180.621 464.19 186.68C456.51 192.653 447.038 195.64 435.774 195.64C426.899 195.64 419.049 193.72 412.222 189.88C405.395 185.955 400.105 180.536 396.35 173.624C392.681 166.627 390.846 158.648 390.846 149.688ZM516.006 104.76V195H490.918V104.76H516.006ZM555.381 175.8H583.413V195H530.293V104.76H555.381V175.8Z"/>
</mask>
<path d="M9.6 26.008L7.83766 25.0624L7.83349 25.0702L9.6 26.008ZM25.472 9.752L26.4525 11.4952L26.4608 11.4905L26.4689 11.4858L25.472 9.752ZM77.44 12.952L76.2012 14.5222L76.2121 14.5307L77.44 12.952ZM92.288 37.4V39.4H94.7634L94.2434 36.9798L92.288 37.4ZM65.28 37.4L63.4735 38.2581L64.0158 39.4H65.28V37.4ZM58.496 29.592L57.4223 31.2793L57.4336 31.2865L57.445 31.2936L58.496 29.592ZM34.688 33.176L33.1541 31.8926L33.1516 31.8956L34.688 33.176ZM34.688 66.456L33.1387 67.7207L33.1528 67.738L33.1673 67.755L34.688 66.456ZM58.496 69.912L57.445 68.2104L57.4336 68.2175L57.4223 68.2247L58.496 69.912ZM65.28 62.104V60.104H64.0158L63.4735 61.2459L65.28 62.104ZM92.288 62.104L94.2434 62.5242L94.7634 60.104H92.288V62.104ZM77.44 86.68L78.6679 88.2587L78.6787 88.2502L77.44 86.68ZM25.472 89.88L24.4751 91.6138L24.4832 91.6185L24.4915 91.6232L25.472 89.88ZM9.6 73.624L7.82876 74.5528L7.83556 74.5658L7.84255 74.5787L9.6 73.624ZM6.096 49.688C6.096 41.096 7.87002 33.5322 11.3665 26.9458L7.83349 25.0702C3.99132 32.3078 2.096 40.5307 2.096 49.688H6.096ZM11.3623 26.9536C14.94 20.2861 19.9617 15.1462 26.4525 11.4952L24.4915 8.00885C17.3289 12.0378 11.7693 17.7353 7.83768 25.0624L11.3623 26.9536ZM26.4689 11.4858C32.9553 7.75615 40.4539 5.864 49.024 5.864V1.864C39.8448 1.864 31.642 3.89718 24.4751 8.01819L26.4689 11.4858ZM49.024 5.864C59.9099 5.864 68.9264 8.78312 76.2013 14.5222L78.6787 11.3818C70.5936 5.00354 60.6661 1.864 49.024 1.864V5.864ZM76.2121 14.5307C83.4883 20.1899 88.2037 27.9123 90.3326 37.8202L94.2434 36.9798C91.935 26.237 86.7517 17.6607 78.6679 11.3733L76.2121 14.5307ZM92.288 35.4H65.28V39.4H92.288V35.4ZM67.0866 36.5419C65.3184 32.8195 62.8111 29.9065 59.547 27.8904L57.445 31.2936C59.9836 32.8615 61.9989 35.1539 63.4735 38.2581L67.0866 36.5419ZM59.5698 27.9047C56.3939 25.8837 52.7261 24.904 48.64 24.904V28.904C52.0632 28.904 54.9661 29.7163 57.4223 31.2793L59.5698 27.9047ZM48.64 24.904C42.2887 24.904 37.0599 27.2247 33.1541 31.8926L36.2219 34.4594C39.3135 30.7646 43.386 28.904 48.64 28.904V24.904ZM33.1516 31.8956C29.3594 36.4462 27.568 42.449 27.568 49.688H31.568C31.568 43.103 33.1899 38.0978 36.2244 34.4564L33.1516 31.8956ZM27.568 49.688C27.568 57.0078 29.3569 63.0881 33.1387 67.7207L36.2373 65.1912C33.1924 61.4612 31.568 56.3629 31.568 49.688H27.568ZM33.1673 67.755C37.078 72.3334 42.3035 74.6 48.64 74.6V70.6C43.3712 70.6 39.2954 68.7706 36.2088 65.157L33.1673 67.755ZM48.64 74.6C52.7261 74.6 56.3939 73.6203 59.5698 71.5993L57.4223 68.2247C54.9661 69.7877 52.0632 70.6 48.64 70.6V74.6ZM59.547 71.6136C62.8111 69.5975 65.3184 66.6845 67.0866 62.9621L63.4735 61.2459C61.9989 64.3501 59.9836 66.6424 57.445 68.2104L59.547 71.6136ZM65.28 64.104H92.288V60.104H65.28V64.104ZM90.3326 61.6838C88.2034 71.593 83.4858 79.3631 76.2013 85.1098L78.6787 88.2502C86.7542 81.8795 91.9353 73.2656 94.2434 62.5242L90.3326 61.6838ZM76.2121 85.1013C68.9369 90.7598 59.9165 93.64 49.024 93.64V97.64C60.6595 97.64 70.5831 94.5469 78.6679 88.2587L76.2121 85.1013ZM49.024 93.64C40.4464 93.64 32.9418 91.7871 26.4525 88.1368L24.4915 91.6232C31.6555 95.6529 39.8523 97.64 49.024 97.64V93.64ZM26.4689 88.1462C19.9626 84.405 14.9353 79.2559 11.3574 72.6693L7.84255 74.5787C11.774 81.8161 17.3281 87.5043 24.4751 91.6138L26.4689 88.1462ZM11.3712 72.6952C7.87128 66.0208 6.096 58.3683 6.096 49.688H2.096C2.096 58.9277 3.99006 67.2325 7.82876 74.5528L11.3712 72.6952ZM129.256 75.8H127.256V77.8H129.256V75.8ZM157.288 75.8H159.288V73.8H157.288V75.8ZM157.288 95V97H159.288V95H157.288ZM104.168 95H102.168V97H104.168V95ZM104.168 4.75999V2.75999H102.168V4.75999H104.168ZM129.256 4.75999H131.256V2.75999H129.256V4.75999ZM129.256 77.8H157.288V73.8H129.256V77.8ZM155.288 75.8V95H159.288V75.8H155.288ZM157.288 93H104.168V97H157.288V93ZM106.168 95V4.75999H102.168V95H106.168ZM104.168 6.75999H129.256V2.75999H104.168V6.75999ZM127.256 4.75999V75.8H131.256V4.75999H127.256ZM192.131 4.75999H194.131V2.75999H192.131V4.75999ZM192.131 95V97H194.131V95H192.131ZM167.043 95H165.043V97H167.043V95ZM167.043 4.75999V2.75999H165.043V4.75999H167.043ZM190.131 4.75999V95H194.131V4.75999H190.131ZM192.131 93H167.043V97H192.131V93ZM169.043 95V4.75999H165.043V95H169.043ZM167.043 6.75999H192.131V2.75999H167.043V6.75999ZM311.762 4.75999H313.762V2.75999H311.762V4.75999ZM311.762 95V97H313.762V95H311.762ZM286.674 95H284.674V97H286.674V95ZM286.674 45.208H288.674L284.782 44.561L286.674 45.208ZM269.65 95V97H271.08L271.542 95.647L269.65 95ZM248.658 95L246.766 95.6469L247.228 97H248.658V95ZM231.506 44.824L233.398 44.1771L229.506 44.824H231.506ZM231.506 95V97H233.506V95H231.506ZM206.418 95H204.418V97H206.418V95ZM206.418 4.75999V2.75999H204.418V4.75999H206.418ZM236.754 4.75999L238.62 4.03903L238.125 2.75999H236.754V4.75999ZM259.41 63.384L257.544 64.105L259.431 68.9874L261.281 64.0907L259.41 63.384ZM281.554 4.75999V2.75999H280.172L279.683 4.05327L281.554 4.75999ZM309.762 4.75999V95H313.762V4.75999H309.762ZM311.762 93H286.674V97H311.762V93ZM288.674 95V45.208H284.674V95H288.674ZM284.782 44.561L267.758 94.353L271.542 95.647L288.566 45.855L284.782 44.561ZM269.65 93H248.658V97H269.65V93ZM250.55 94.3531L233.398 44.1771L229.614 45.4709L246.766 95.6469L250.55 94.3531ZM229.506 44.824V95H233.506V44.824H229.506ZM231.506 93H206.418V97H231.506V93ZM208.418 95V4.75999H204.418V95H208.418ZM206.418 6.75999H236.754V2.75999H206.418V6.75999ZM234.888 5.48095L257.544 64.105L261.276 62.663L238.62 4.03903L234.888 5.48095ZM261.281 64.0907L283.425 5.46672L279.683 4.05327L257.539 62.6773L261.281 64.0907ZM281.554 6.75999H311.762V2.75999H281.554V6.75999ZM383.131 80.28L385.03 79.6525L384.577 78.28H383.131V80.28ZM351.131 80.28V78.28H349.686L349.232 79.6525L351.131 80.28ZM346.267 95V97H347.712L348.166 95.6275L346.267 95ZM319.899 95L318.02 94.315L317.041 97H319.899V95ZM352.795 4.75999V2.75999H351.395L350.916 4.07501L352.795 4.75999ZM381.723 4.75999L383.603 4.07736L383.125 2.75999H381.723V4.75999ZM414.491 95V97H417.345L416.371 94.3174L414.491 95ZM387.995 95L386.096 95.6275L386.549 97H387.995V95ZM376.859 61.08V63.08H379.634L378.756 60.4475L376.859 61.08ZM367.131 31.896L369.028 31.2635L367.118 25.5337L365.231 31.271L367.131 31.896ZM357.531 61.08L355.631 60.455L354.768 63.08H357.531V61.08ZM383.131 78.28H351.131V82.28H383.131V78.28ZM349.232 79.6525L344.368 94.3725L348.166 95.6275L353.03 80.9075L349.232 79.6525ZM346.267 93H319.899V97H346.267V93ZM321.778 95.685L354.674 5.44498L350.916 4.07501L318.02 94.315L321.778 95.685ZM352.795 6.75999H381.723V2.75999H352.795V6.75999ZM379.843 5.44262L412.611 95.6826L416.371 94.3174L383.603 4.07736L379.843 5.44262ZM414.491 93H387.995V97H414.491V93ZM389.894 94.3725L385.03 79.6525L381.232 80.9075L386.096 95.6275L389.894 94.3725ZM378.756 60.4475L369.028 31.2635L365.234 32.5285L374.962 61.7125L378.756 60.4475ZM365.231 31.271L355.631 60.455L359.431 61.7049L369.031 32.5209L365.231 31.271ZM357.531 63.08H376.859V59.08H357.531V63.08ZM490.636 4.75999H492.636V2.75999H490.636V4.75999ZM490.636 24.728V26.728H492.636V24.728H490.636ZM466.572 24.728V22.728H464.572V24.728H466.572ZM466.572 95V97H468.572V95H466.572ZM441.484 95H439.484V97H441.484V95ZM441.484 24.728H443.484V22.728H441.484V24.728ZM417.676 24.728H415.676V26.728H417.676V24.728ZM417.676 4.75999V2.75999H415.676V4.75999H417.676ZM488.636 4.75999V24.728H492.636V4.75999H488.636ZM490.636 22.728H466.572V26.728H490.636V22.728ZM464.572 24.728V95H468.572V24.728H464.572ZM466.572 93H441.484V97H466.572V93ZM443.484 95V24.728H439.484V95H443.484ZM441.484 22.728H417.676V26.728H441.484V22.728ZM419.676 24.728V4.75999H415.676V24.728H419.676ZM417.676 6.75999H490.636V2.75999H417.676V6.75999ZM525.006 24.856V22.856H523.006V24.856H525.006ZM525.006 39.576H523.006V41.576H525.006V39.576ZM553.806 39.576H555.806V37.576H553.806V39.576ZM553.806 58.648V60.648H555.806V58.648H553.806ZM525.006 58.648V56.648H523.006V58.648H525.006ZM525.006 74.904H523.006V76.904H525.006V74.904ZM557.646 74.904H559.646V72.904H557.646V74.904ZM557.646 95V97H559.646V95H557.646ZM499.918 95H497.918V97H499.918V95ZM499.918 4.75999V2.75999H497.918V4.75999H499.918ZM557.646 4.75999H559.646V2.75999H557.646V4.75999ZM557.646 24.856V26.856H559.646V24.856H557.646ZM523.006 24.856V39.576H527.006V24.856H523.006ZM525.006 41.576H553.806V37.576H525.006V41.576ZM551.806 39.576V58.648H555.806V39.576H551.806ZM553.806 56.648H525.006V60.648H553.806V56.648ZM523.006 58.648V74.904H527.006V58.648H523.006ZM525.006 76.904H557.646V72.904H525.006V76.904ZM555.646 74.904V95H559.646V74.904H555.646ZM557.646 93H499.918V97H557.646V93ZM501.918 95V4.75999H497.918V95H501.918ZM499.918 6.75999H557.646V2.75999H499.918V6.75999ZM555.646 4.75999V24.856H559.646V4.75999H555.646ZM557.646 22.856H525.006V26.856H557.646V22.856ZM9.6 126.008L7.83766 125.062L7.83349 125.07L9.6 126.008ZM25.472 109.752L26.4525 111.495L26.4608 111.491L26.4689 111.486L25.472 109.752ZM77.44 112.952L76.2012 114.522L76.2121 114.531L77.44 112.952ZM92.288 137.4V139.4H94.7634L94.2434 136.98L92.288 137.4ZM65.28 137.4L63.4735 138.258L64.0158 139.4H65.28V137.4ZM58.496 129.592L57.4223 131.279L57.4336 131.287L57.445 131.294L58.496 129.592ZM34.688 133.176L33.1541 131.893L33.1516 131.896L34.688 133.176ZM34.688 166.456L33.1387 167.721L33.1528 167.738L33.1673 167.755L34.688 166.456ZM58.496 169.912L57.445 168.21L57.4336 168.217L57.4223 168.225L58.496 169.912ZM65.28 162.104V160.104H64.0158L63.4735 161.246L65.28 162.104ZM92.288 162.104L94.2434 162.524L94.7634 160.104H92.288V162.104ZM77.44 186.68L78.6679 188.259L78.6787 188.25L77.44 186.68ZM25.472 189.88L24.4751 191.614L24.4832 191.619L24.4915 191.623L25.472 189.88ZM9.6 173.624L7.82876 174.553L7.83556 174.566L7.84255 174.579L9.6 173.624ZM6.096 149.688C6.096 141.096 7.87002 133.532 11.3665 126.946L7.83349 125.07C3.99132 132.308 2.096 140.531 2.096 149.688H6.096ZM11.3623 126.954C14.94 120.286 19.9617 115.146 26.4525 111.495L24.4915 108.009C17.3289 112.038 11.7693 117.735 7.83768 125.062L11.3623 126.954ZM26.4689 111.486C32.9553 107.756 40.4539 105.864 49.024 105.864V101.864C39.8448 101.864 31.642 103.897 24.4751 108.018L26.4689 111.486ZM49.024 105.864C59.9099 105.864 68.9264 108.783 76.2013 114.522L78.6787 111.382C70.5936 105.004 60.6661 101.864 49.024 101.864V105.864ZM76.2121 114.531C83.4883 120.19 88.2037 127.912 90.3326 137.82L94.2434 136.98C91.935 126.237 86.7517 117.661 78.6679 111.373L76.2121 114.531ZM92.288 135.4H65.28V139.4H92.288V135.4ZM67.0866 136.542C65.3184 132.819 62.8111 129.906 59.547 127.89L57.445 131.294C59.9836 132.862 61.9989 135.154 63.4735 138.258L67.0866 136.542ZM59.5698 127.905C56.3939 125.884 52.7261 124.904 48.64 124.904V128.904C52.0632 128.904 54.9661 129.716 57.4223 131.279L59.5698 127.905ZM48.64 124.904C42.2887 124.904 37.0599 127.225 33.1541 131.893L36.2219 134.459C39.3135 130.765 43.386 128.904 48.64 128.904V124.904ZM33.1516 131.896C29.3594 136.446 27.568 142.449 27.568 149.688H31.568C31.568 143.103 33.1899 138.098 36.2244 134.456L33.1516 131.896ZM27.568 149.688C27.568 157.008 29.3569 163.088 33.1387 167.721L36.2373 165.191C33.1924 161.461 31.568 156.363 31.568 149.688H27.568ZM33.1673 167.755C37.078 172.333 42.3035 174.6 48.64 174.6V170.6C43.3712 170.6 39.2954 168.771 36.2088 165.157L33.1673 167.755ZM48.64 174.6C52.7261 174.6 56.3939 173.62 59.5698 171.599L57.4223 168.225C54.9661 169.788 52.0632 170.6 48.64 170.6V174.6ZM59.547 171.614C62.8111 169.598 65.3184 166.685 67.0866 162.962L63.4735 161.246C61.9989 164.35 59.9836 166.642 57.445 168.21L59.547 171.614ZM65.28 164.104H92.288V160.104H65.28V164.104ZM90.3326 161.684C88.2034 171.593 83.4858 179.363 76.2013 185.11L78.6787 188.25C86.7542 181.88 91.9353 173.266 94.2434 162.524L90.3326 161.684ZM76.2121 185.101C68.9369 190.76 59.9165 193.64 49.024 193.64V197.64C60.6595 197.64 70.5831 194.547 78.6679 188.259L76.2121 185.101ZM49.024 193.64C40.4464 193.64 32.9418 191.787 26.4525 188.137L24.4915 191.623C31.6555 195.653 39.8523 197.64 49.024 197.64V193.64ZM26.4689 188.146C19.9626 184.405 14.9353 179.256 11.3574 172.669L7.84255 174.579C11.774 181.816 17.3281 187.504 24.4751 191.614L26.4689 188.146ZM11.3712 172.695C7.87128 166.021 6.096 158.368 6.096 149.688H2.096C2.096 158.928 3.99006 167.232 7.82876 174.553L11.3712 172.695ZM124.136 190.008L123.151 191.748L123.158 191.753L123.167 191.757L124.136 190.008ZM107.24 173.496L105.509 174.497L105.516 174.51L105.523 174.522L107.24 173.496ZM107.24 125.752L105.518 124.735L105.514 124.742L107.24 125.752ZM170.728 109.24L169.749 110.984L169.759 110.989L170.728 109.24ZM187.496 125.752L185.765 126.753L185.77 126.762L187.496 125.752ZM187.496 173.496L189.222 174.506L189.227 174.497L187.496 173.496ZM170.728 190.008L171.697 191.757L171.706 191.753L171.714 191.748L170.728 190.008ZM162.536 166.328L161.048 164.992L161.04 165L161.033 165.009L162.536 166.328ZM162.536 132.664L161.033 133.983L161.047 133.999L161.062 134.015L162.536 132.664ZM132.2 132.664L133.69 133.998L133.697 133.991L133.703 133.983L132.2 132.664ZM132.2 166.456L130.697 167.775L130.704 167.783L130.71 167.79L132.2 166.456ZM147.432 193.896C139.308 193.896 131.878 192.012 125.105 188.259L123.167 191.757C130.559 195.854 138.66 197.896 147.432 197.896V193.896ZM125.121 188.268C118.341 184.428 112.961 179.17 108.957 172.47L105.523 174.522C109.882 181.816 115.766 187.567 123.151 191.748L125.121 188.268ZM108.971 172.495C105.066 165.742 103.096 158.114 103.096 149.56H99.096C99.096 158.756 101.222 167.085 105.509 174.497L108.971 172.495ZM103.096 149.56C103.096 141.006 105.066 133.425 108.966 126.762L105.514 124.742C101.222 132.074 99.096 140.365 99.096 149.56H103.096ZM108.962 126.769C112.965 119.988 118.34 114.739 125.105 110.989L123.167 107.491C115.767 111.592 109.877 117.351 105.518 124.735L108.962 126.769ZM125.105 110.989C131.878 107.236 139.308 105.352 147.432 105.352V101.352C138.66 101.352 130.559 103.394 123.167 107.491L125.105 110.989ZM147.432 105.352C155.645 105.352 163.07 107.237 169.749 110.984L171.707 107.496C164.391 103.392 156.285 101.352 147.432 101.352V105.352ZM169.759 110.989C176.521 114.737 181.848 119.981 185.765 126.753L189.227 124.751C184.952 117.358 179.101 111.594 171.697 107.491L169.759 110.989ZM185.77 126.762C189.67 133.425 191.64 141.006 191.64 149.56H195.64C195.64 140.365 193.514 132.074 189.222 124.742L185.77 126.762ZM191.64 149.56C191.64 158.114 189.67 165.742 185.765 172.495L189.227 174.497C193.514 167.085 195.64 158.756 195.64 149.56H191.64ZM185.77 172.486C181.853 179.177 176.52 184.43 169.743 188.268L171.714 191.748C179.102 187.565 184.947 181.809 189.222 174.506L185.77 172.486ZM169.759 188.259C162.986 192.012 155.556 193.896 147.432 193.896V197.896C156.204 197.896 164.305 195.854 171.697 191.757L169.759 188.259ZM147.432 174.6C154.312 174.6 159.931 172.328 164.039 167.647L161.033 165.009C157.802 168.69 153.352 170.6 147.432 170.6V174.6ZM164.024 167.664C168.184 163.032 170.168 156.925 170.168 149.56H166.168C166.168 156.19 164.398 161.261 161.048 164.992L164.024 167.664ZM170.168 149.56C170.168 142.041 168.192 135.875 164.01 131.313L161.062 134.015C164.389 137.645 166.168 142.743 166.168 149.56H170.168ZM164.039 131.345C159.931 126.664 154.312 124.392 147.432 124.392V128.392C153.352 128.392 157.802 130.302 161.033 133.983L164.039 131.345ZM147.432 124.392C140.476 124.392 134.81 126.657 130.697 131.345L133.703 133.983C136.929 130.308 141.417 128.392 147.432 128.392V124.392ZM130.71 131.329C126.623 135.892 124.696 142.053 124.696 149.56H128.696C128.696 142.731 130.438 137.628 133.69 133.998L130.71 131.329ZM124.696 149.56C124.696 156.992 126.627 163.138 130.697 167.775L133.703 165.137C130.434 161.411 128.696 156.294 128.696 149.56H124.696ZM130.71 167.79C134.828 172.387 140.49 174.6 147.432 174.6V170.6C141.404 170.6 136.911 168.717 133.69 165.122L130.71 167.79ZM229.494 104.76H231.494V102.76H229.494V104.76ZM232.822 168.376L231.29 169.661L231.302 169.676L231.314 169.69L232.822 168.376ZM253.558 168.376L252.053 167.059L252.05 167.062L253.558 168.376ZM257.142 104.76V102.76H255.142V104.76H257.142ZM282.23 104.76H284.23V102.76H282.23V104.76ZM276.982 178.36L278.695 179.393L278.701 179.382L276.982 178.36ZM262.646 191.544L263.52 193.343L263.53 193.338L262.646 191.544ZM222.966 191.544L222.04 193.317L222.056 193.325L222.072 193.333L222.966 191.544ZM209.398 178.36L207.652 179.336L207.658 179.345L207.663 179.355L209.398 178.36ZM204.534 104.76V102.76H202.534V104.76H204.534ZM227.494 104.76V157.112H231.494V104.76H227.494ZM227.494 157.112C227.494 162.256 228.666 166.533 231.29 169.661L234.354 167.091C232.541 164.928 231.494 161.696 231.494 157.112H227.494ZM231.314 169.69C234.108 172.898 238.196 174.344 243.19 174.344V170.344C238.968 170.344 236.144 169.145 234.33 167.062L231.314 169.69ZM243.19 174.344C248.184 174.344 252.272 172.898 255.066 169.69L252.05 167.062C250.236 169.145 247.412 170.344 243.19 170.344V174.344ZM255.063 169.693C257.861 166.495 259.142 162.219 259.142 157.112H255.142C255.142 161.562 254.033 164.795 252.053 167.059L255.063 169.693ZM259.142 157.112V104.76H255.142V157.112H259.142ZM257.142 106.76H282.23V102.76H257.142V106.76ZM280.23 104.76V157.112H284.23V104.76H280.23ZM280.23 157.112C280.23 165.105 278.543 171.818 275.263 177.338L278.701 179.382C282.419 173.126 284.23 165.674 284.23 157.112H280.23ZM275.269 177.327C271.968 182.803 267.476 186.933 261.762 189.75L263.53 193.338C269.933 190.181 274.999 185.522 278.695 179.393L275.269 177.327ZM261.772 189.745C256.099 192.501 249.746 193.896 242.678 193.896V197.896C250.287 197.896 257.247 196.39 263.52 193.343L261.772 189.745ZM242.678 193.896C235.609 193.896 229.351 192.5 223.86 189.755L222.072 193.333C228.186 196.39 235.07 197.896 242.678 197.896V193.896ZM223.892 189.771C218.526 186.968 214.278 182.849 211.133 177.365L207.663 179.355C211.174 185.476 215.971 190.147 222.04 193.317L223.892 189.771ZM211.144 177.384C208.106 171.947 206.534 165.22 206.534 157.112H202.534C202.534 165.73 204.205 173.167 207.652 179.336L211.144 177.384ZM206.534 157.112V104.76H202.534V157.112H206.534ZM204.534 106.76H229.494V102.76H204.534V106.76ZM379.627 195V197H381.627V195H379.627ZM354.539 195L352.872 196.105L353.465 197H354.539V195ZM321.131 144.568L322.798 143.463L319.131 137.927V144.568H321.131ZM321.131 195V197H323.131V195H321.131ZM296.043 195H294.043V197H296.043V195ZM296.043 104.76V102.76H294.043V104.76H296.043ZM321.131 104.76L322.805 103.665L322.213 102.76H321.131V104.76ZM354.539 155.832L352.865 156.927L356.539 162.543V155.832H354.539ZM354.539 104.76V102.76H352.539V104.76H354.539ZM379.627 104.76H381.627V102.76H379.627V104.76ZM379.627 193H354.539V197H379.627V193ZM356.206 193.895L322.798 143.463L319.464 145.673L352.872 196.105L356.206 193.895ZM319.131 144.568V195H323.131V144.568H319.131ZM321.131 193H296.043V197H321.131V193ZM298.043 195V104.76H294.043V195H298.043ZM296.043 106.76H321.131V102.76H296.043V106.76ZM319.457 105.855L352.865 156.927L356.213 154.737L322.805 103.665L319.457 105.855ZM356.539 155.832V104.76H352.539V155.832H356.539ZM354.539 106.76H379.627V102.76H354.539V106.76ZM377.627 104.76V195H381.627V104.76H377.627ZM396.35 126.008L394.588 125.062L394.583 125.07L396.35 126.008ZM412.222 109.752L413.203 111.495L413.211 111.491L413.219 111.486L412.222 109.752ZM464.19 112.952L462.951 114.522L462.962 114.531L464.19 112.952ZM479.038 137.4V139.4H481.513L480.993 136.98L479.038 137.4ZM452.03 137.4L450.223 138.258L450.766 139.4H452.03V137.4ZM445.246 129.592L444.172 131.279L444.184 131.287L444.195 131.294L445.246 129.592ZM421.438 133.176L419.904 131.893L419.902 131.896L421.438 133.176ZM421.438 166.456L419.889 167.721L419.903 167.738L419.917 167.755L421.438 166.456ZM445.246 169.912L444.195 168.21L444.184 168.217L444.172 168.225L445.246 169.912ZM452.03 162.104V160.104H450.766L450.223 161.246L452.03 162.104ZM479.038 162.104L480.993 162.524L481.513 160.104H479.038V162.104ZM464.19 186.68L465.418 188.259L465.429 188.25L464.19 186.68ZM412.222 189.88L411.225 191.614L411.233 191.619L411.241 191.623L412.222 189.88ZM396.35 173.624L394.579 174.553L394.586 174.566L394.593 174.579L396.35 173.624ZM392.846 149.688C392.846 141.096 394.62 133.532 398.117 126.946L394.583 125.07C390.741 132.308 388.846 140.531 388.846 149.688H392.846ZM398.112 126.954C401.69 120.286 406.712 115.146 413.203 111.495L411.241 108.009C404.079 112.038 398.519 117.735 394.588 125.062L398.112 126.954ZM413.219 111.486C419.705 107.756 427.204 105.864 435.774 105.864V101.864C426.595 101.864 418.392 103.897 411.225 108.018L413.219 111.486ZM435.774 105.864C446.66 105.864 455.676 108.783 462.951 114.522L465.429 111.382C457.344 105.004 447.416 101.864 435.774 101.864V105.864ZM462.962 114.531C470.238 120.19 474.954 127.912 477.083 137.82L480.993 136.98C478.685 126.237 473.502 117.661 465.418 111.373L462.962 114.531ZM479.038 135.4H452.03V139.4H479.038V135.4ZM453.837 136.542C452.068 132.819 449.561 129.906 446.297 127.89L444.195 131.294C446.734 132.862 448.749 135.154 450.223 138.258L453.837 136.542ZM446.32 127.905C443.144 125.884 439.476 124.904 435.39 124.904V128.904C438.813 128.904 441.716 129.716 444.172 131.279L446.32 127.905ZM435.39 124.904C429.039 124.904 423.81 127.225 419.904 131.893L422.972 134.459C426.063 130.765 430.136 128.904 435.39 128.904V124.904ZM419.902 131.896C416.109 136.446 414.318 142.449 414.318 149.688H418.318C418.318 143.103 419.94 138.098 422.974 134.456L419.902 131.896ZM414.318 149.688C414.318 157.008 416.107 163.088 419.889 167.721L422.987 165.191C419.942 161.461 418.318 156.363 418.318 149.688H414.318ZM419.917 167.755C423.828 172.333 429.054 174.6 435.39 174.6V170.6C430.121 170.6 426.045 168.771 422.959 165.157L419.917 167.755ZM435.39 174.6C439.476 174.6 443.144 173.62 446.32 171.599L444.172 168.225C441.716 169.788 438.813 170.6 435.39 170.6V174.6ZM446.297 171.614C449.561 169.598 452.068 166.685 453.837 162.962L450.223 161.246C448.749 164.35 446.734 166.642 444.195 168.21L446.297 171.614ZM452.03 164.104H479.038V160.104H452.03V164.104ZM477.083 161.684C474.953 171.593 470.236 179.363 462.951 185.11L465.429 188.25C473.504 181.88 478.685 173.266 480.993 162.524L477.083 161.684ZM462.962 185.101C455.687 190.76 446.667 193.64 435.774 193.64V197.64C447.409 197.64 457.333 194.547 465.418 188.259L462.962 185.101ZM435.774 193.64C427.196 193.64 419.692 191.787 413.203 188.137L411.241 191.623C418.406 195.653 426.602 197.64 435.774 197.64V193.64ZM413.219 188.146C406.713 184.405 401.685 179.256 398.107 172.669L394.593 174.579C398.524 181.816 404.078 187.504 411.225 191.614L413.219 188.146ZM398.121 172.695C394.621 166.021 392.846 158.368 392.846 149.688H388.846C388.846 158.928 390.74 167.232 394.579 174.553L398.121 172.695ZM516.006 104.76H518.006V102.76H516.006V104.76ZM516.006 195V197H518.006V195H516.006ZM490.918 195H488.918V197H490.918V195ZM490.918 104.76V102.76H488.918V104.76H490.918ZM514.006 104.76V195H518.006V104.76H514.006ZM516.006 193H490.918V197H516.006V193ZM492.918 195V104.76H488.918V195H492.918ZM490.918 106.76H516.006V102.76H490.918V106.76ZM555.381 175.8H553.381V177.8H555.381V175.8ZM583.413 175.8H585.413V173.8H583.413V175.8ZM583.413 195V197H585.413V195H583.413ZM530.293 195H528.293V197H530.293V195ZM530.293 104.76V102.76H528.293V104.76H530.293ZM555.381 104.76H557.381V102.76H555.381V104.76ZM555.381 177.8H583.413V173.8H555.381V177.8ZM581.413 175.8V195H585.413V175.8H581.413ZM583.413 193H530.293V197H583.413V193ZM532.293 195V104.76H528.293V195H532.293ZM530.293 106.76H555.381V102.76H530.293V106.76ZM553.381 104.76V175.8H557.381V104.76H553.381Z" fill="#151513" mask="url(#path-3-outside-2_3708_3548)"/>
<path d="M4.096 71.688C4.096 62.8133 5.93067 54.92 9.6 48.008C13.3547 41.0107 18.6453 35.592 25.472 31.752C32.2987 27.8267 40.1493 25.864 49.024 25.864C60.288 25.864 69.76 28.8933 77.44 34.952C85.12 40.9253 90.0693 49.0747 92.288 59.4H65.28C63.6587 55.9867 61.3973 53.384 58.496 51.592C55.68 49.8 52.3947 48.904 48.64 48.904C42.8373 48.904 38.1867 50.9947 34.688 55.176C31.2747 59.272 29.568 64.776 29.568 71.688C29.568 78.6853 31.2747 84.2747 34.688 88.456C38.1867 92.552 42.8373 94.6 48.64 94.6C52.3947 94.6 55.68 93.704 58.496 91.912C61.3973 90.12 63.6587 87.5173 65.28 84.104H92.288C90.0693 94.4293 85.12 102.621 77.44 108.68C69.76 114.653 60.288 117.64 49.024 117.64C40.1493 117.64 32.2987 115.72 25.472 111.88C18.6453 107.955 13.3547 102.536 9.6 95.624C5.93067 88.6267 4.096 80.648 4.096 71.688ZM129.256 97.8H157.288V117H104.168V26.76H129.256V97.8ZM192.131 26.76V117H167.043V26.76H192.131ZM311.762 26.76V117H286.674V67.208L269.65 117H248.658L231.506 66.824V117H206.418V26.76H236.754L259.41 85.384L281.554 26.76H311.762ZM383.131 102.28H351.131L346.267 117H319.899L352.795 26.76H381.723L414.491 117H387.995L383.131 102.28ZM376.859 83.08L367.131 53.896L357.531 83.08H376.859ZM490.636 26.76V46.728H466.572V117H441.484V46.728H417.676V26.76H490.636ZM525.006 46.856V61.576H553.806V80.648H525.006V96.904H557.646V117H499.918V26.76H557.646V46.856H525.006ZM4.096 171.688C4.096 162.813 5.93067 154.92 9.6 148.008C13.3547 141.011 18.6453 135.592 25.472 131.752C32.2987 127.827 40.1493 125.864 49.024 125.864C60.288 125.864 69.76 128.893 77.44 134.952C85.12 140.925 90.0693 149.075 92.288 159.4H65.28C63.6587 155.987 61.3973 153.384 58.496 151.592C55.68 149.8 52.3947 148.904 48.64 148.904C42.8373 148.904 38.1867 150.995 34.688 155.176C31.2747 159.272 29.568 164.776 29.568 171.688C29.568 178.685 31.2747 184.275 34.688 188.456C38.1867 192.552 42.8373 194.6 48.64 194.6C52.3947 194.6 55.68 193.704 58.496 191.912C61.3973 190.12 63.6587 187.517 65.28 184.104H92.288C90.0693 194.429 85.12 202.621 77.44 208.68C69.76 214.653 60.288 217.64 49.024 217.64C40.1493 217.64 32.2987 215.72 25.472 211.88C18.6453 207.955 13.3547 202.536 9.6 195.624C5.93067 188.627 4.096 180.648 4.096 171.688ZM147.432 217.896C138.984 217.896 131.219 215.933 124.136 212.008C117.053 207.997 111.421 202.493 107.24 195.496C103.144 188.413 101.096 180.435 101.096 171.56C101.096 162.685 103.144 154.749 107.24 147.752C111.421 140.669 117.053 135.165 124.136 131.24C131.219 127.315 138.984 125.352 147.432 125.352C155.965 125.352 163.731 127.315 170.728 131.24C177.811 135.165 183.4 140.669 187.496 147.752C191.592 154.749 193.64 162.685 193.64 171.56C193.64 180.435 191.592 188.413 187.496 195.496C183.4 202.493 177.811 207.997 170.728 212.008C163.645 215.933 155.88 217.896 147.432 217.896ZM147.432 194.6C153.832 194.6 158.867 192.509 162.536 188.328C166.291 184.147 168.168 178.557 168.168 171.56C168.168 164.392 166.291 158.76 162.536 154.664C158.867 150.483 153.832 148.392 147.432 148.392C140.947 148.392 135.869 150.483 132.2 154.664C128.531 158.76 126.696 164.392 126.696 171.56C126.696 178.643 128.531 184.275 132.2 188.456C135.869 192.552 140.947 194.6 147.432 194.6ZM229.494 126.76V179.112C229.494 183.976 230.603 187.731 232.822 190.376C235.126 193.021 238.582 194.344 243.19 194.344C247.798 194.344 251.254 193.021 253.558 190.376C255.947 187.645 257.142 183.891 257.142 179.112V126.76H282.23V179.112C282.23 187.389 280.481 194.472 276.982 200.36C273.483 206.163 268.705 210.557 262.646 213.544C256.673 216.445 250.017 217.896 242.678 217.896C235.339 217.896 228.769 216.445 222.966 213.544C217.249 210.557 212.726 206.163 209.398 200.36C206.155 194.557 204.534 187.475 204.534 179.112V126.76H229.494ZM379.627 217H354.539L321.131 166.568V217H296.043V126.76H321.131L354.539 177.832V126.76H379.627V217ZM390.846 171.688C390.846 162.813 392.681 154.92 396.35 148.008C400.105 141.011 405.395 135.592 412.222 131.752C419.049 127.827 426.899 125.864 435.774 125.864C447.038 125.864 456.51 128.893 464.19 134.952C471.87 140.925 476.819 149.075 479.038 159.4H452.03C450.409 155.987 448.147 153.384 445.246 151.592C442.43 149.8 439.145 148.904 435.39 148.904C429.587 148.904 424.937 150.995 421.438 155.176C418.025 159.272 416.318 164.776 416.318 171.688C416.318 178.685 418.025 184.275 421.438 188.456C424.937 192.552 429.587 194.6 435.39 194.6C439.145 194.6 442.43 193.704 445.246 191.912C448.147 190.12 450.409 187.517 452.03 184.104H479.038C476.819 194.429 471.87 202.621 464.19 208.68C456.51 214.653 447.038 217.64 435.774 217.64C426.899 217.64 419.049 215.72 412.222 211.88C405.395 207.955 400.105 202.536 396.35 195.624C392.681 188.627 390.846 180.648 390.846 171.688ZM516.006 126.76V217H490.918V126.76H516.006ZM555.381 197.8H583.413V217H530.293V126.76H555.381V197.8Z" fill="#F6FEFF"/>
</svg>
