<svg width="" height="" viewBox="0 0 347 24" fill="none" xmlns="http://www.w3.org/2000/svg">
<path fill-rule="evenodd" clip-rule="evenodd" d="M154.136 5.62456C104.353 9.54482 96.6575 10.168 88.9596 10.7718C80.2665 11.4537 71.5696 12.1109 2.24994 17.4638C1.13291 17.55 0.130792 16.9644 0.011642 16.1557C-0.107508 15.3471 0.701434 14.6216 1.81846 14.5353C71.1356 9.1826 79.831 8.52558 88.5227 7.84382C96.3671 7.22851 104.208 6.59307 156.61 2.4673C159.057 2.27463 162.642 1.95689 166.54 1.61144C170.502 1.26033 174.787 0.880576 178.528 0.574402C182.163 0.276916 185.301 0.0478483 186.939 0.00689887C187.333 -0.00294885 187.753 -0.00564629 188.096 0.0221393L188.106 0.0229718C188.218 0.0318262 188.634 0.0648828 189.044 0.228903C189.255 0.313335 189.863 0.590755 190.067 1.18954C190.288 1.84041 189.859 2.32199 189.648 2.50727C189.432 2.69665 189.2 2.80753 189.095 2.85471C188.968 2.9124 188.847 2.95547 188.755 2.98572C188.572 3.04629 188.373 3.09821 188.188 3.14259C187.809 3.23307 187.307 3.33323 186.695 3.44415C174.869 5.58443 162.752 7.36454 150.653 9.14219C145.156 9.9498 139.662 10.7569 134.201 11.597C117.878 14.1081 101.761 16.925 86.3551 20.9581C86.6936 20.9396 87.0364 20.9196 87.3847 20.8991L87.4276 20.8966C88.3667 20.8416 89.3487 20.784 90.3274 20.7541C109.643 20.1632 139.167 18.0879 156.896 16.8327C171.395 15.8063 186.045 14.4314 200.761 13.0503C225.824 10.6983 251.077 8.32836 276.09 7.6319C276.358 7.62443 276.567 7.61882 276.714 7.6158C276.786 7.61433 276.858 7.61313 276.921 7.613C276.94 7.61296 276.967 7.61299 276.997 7.61342C277.014 7.61366 277.032 7.61401 277.05 7.61454C277.076 7.61527 277.12 7.6168 277.174 7.62047L277.176 7.62061C277.21 7.62287 277.344 7.63199 277.508 7.66306C277.573 7.67546 277.799 7.71899 278.053 7.8308C278.224 7.90634 279.089 8.32123 279.025 9.16836C278.972 9.87956 278.276 10.236 278.177 10.2868L278.172 10.2891C277.978 10.389 277.805 10.4403 277.745 10.4575C277.606 10.4977 277.49 10.5179 277.459 10.5233L277.458 10.5235C277.409 10.5319 277.368 10.5377 277.344 10.541C277.261 10.5522 277.175 10.5603 277.13 10.5645C277.02 10.5749 276.859 10.5883 276.681 10.6031L276.671 10.6039C275.932 10.6655 274.556 10.78 272.968 10.9685C272.543 11.019 272.107 11.0742 271.667 11.1346C279.831 11.2185 288.052 11.1166 296.232 10.9835C303.933 10.8582 311.63 10.0938 319.441 9.31804C319.767 9.28571 320.093 9.25336 320.419 9.22104C328.52 8.41755 336.744 7.63082 344.966 7.63082C346.089 7.63082 347 8.29009 347 9.10334C347 9.91659 346.089 10.5759 344.966 10.5759C337.061 10.5759 329.101 11.3325 320.971 12.1388C320.62 12.1736 320.269 12.2084 319.918 12.2433C312.169 13.0132 304.263 13.7987 296.324 13.9278C286.826 14.0823 277.199 14.1963 267.65 14.0235C267.569 14.022 267.474 14.0207 267.368 14.0192C266.681 14.0093 265.519 13.9926 264.581 13.8969C264.124 13.8503 263.311 13.7525 262.67 13.4509C262.316 13.2841 261.685 12.8965 261.568 12.2113C261.493 11.7715 261.666 11.4097 261.874 11.1462C241.791 12.1677 221.701 14.055 201.595 15.9439C186.838 17.3303 172.072 18.7175 157.292 19.7638C139.601 21.0163 109.952 23.1014 90.4991 23.6965C89.5995 23.724 88.6839 23.7777 87.7185 23.8343L87.7131 23.8346C86.7595 23.8905 85.7574 23.9492 84.7529 23.9792C82.7466 24.0392 80.5965 23.991 78.468 23.5436C78.1761 23.4823 77.262 23.2611 76.8696 22.5339C76.4434 21.744 77.0142 21.1142 77.2113 20.925C77.4593 20.6869 77.7604 20.5116 77.967 20.4015C78.1973 20.2787 78.4475 20.1659 78.6863 20.0663C79.6161 19.6789 80.8326 19.3054 81.4863 19.1252C98.2201 14.5102 115.764 11.4224 133.355 8.71632C138.897 7.86381 144.434 7.05037 149.953 6.2396C151.348 6.03461 152.743 5.82979 154.136 5.62456ZM80.3364 22.7973C80.3365 22.7971 80.339 22.7954 80.3444 22.7923C80.3391 22.7958 80.3362 22.7974 80.3364 22.7973Z" fill="#F6FEFF"/>
</svg>
