<svg width="" height="" viewBox="0 0 502 213" fill="none" xmlns="http://www.w3.org/2000/svg">
<mask id="path-1-outside-1_3708_3541" maskUnits="userSpaceOnUse" x="5" y="15" width="491" height="196" fill="black">
<rect fill="white" x="5" y="15" width="491" height="196"/>
<path d="M87.936 17.76V108H62.848V71.776H32.256V108H7.168V17.76H32.256V51.68H62.848V17.76H87.936ZM126.869 17.76V70.112C126.869 74.976 127.978 78.7307 130.197 81.376C132.501 84.0213 135.957 85.344 140.565 85.344C145.173 85.344 148.629 84.0213 150.933 81.376C153.322 78.6453 154.517 74.8907 154.517 70.112V17.76H179.605V70.112C179.605 78.3893 177.856 85.472 174.357 91.36C170.858 97.1627 166.08 101.557 160.021 104.544C154.048 107.445 147.392 108.896 140.053 108.896C132.714 108.896 126.144 107.445 120.341 104.544C114.624 101.557 110.101 97.1627 106.773 91.36C103.53 85.5573 101.909 78.4747 101.909 70.112V17.76H126.869ZM298.762 17.76V108H273.674V58.208L256.65 108H235.658L218.506 57.824V108H193.418V17.76H223.754L246.41 76.384L268.554 17.76H298.762ZM370.131 93.28H338.131L333.267 108H306.899L339.795 17.76H368.723L401.491 108H374.995L370.131 93.28ZM363.859 74.08L354.131 44.896L344.531 74.08H363.859ZM493.252 108H468.164L434.756 57.568V108H409.668V17.76H434.756L468.164 68.832V17.76H493.252V108ZM52.864 208L34.944 174.72H32.256V208H7.168V117.76H46.72C53.9733 117.76 60.1173 119.04 65.152 121.6C70.1867 124.075 73.984 127.531 76.544 131.968C79.104 136.32 80.384 141.227 80.384 146.688C80.384 152.832 78.6773 158.251 75.264 162.944C71.936 167.552 67.0293 170.837 60.544 172.8L80.896 208H52.864ZM32.256 157.568H44.672C48.0853 157.568 50.6453 156.757 52.352 155.136C54.0587 153.515 54.912 151.168 54.912 148.096C54.912 145.195 54.016 142.933 52.224 141.312C50.5173 139.605 48 138.752 44.672 138.752H32.256V157.568ZM116.881 117.76V208H91.793V117.76H116.881ZM188.768 147.456C187.317 145.067 185.312 143.232 182.752 141.952C180.277 140.672 177.333 140.032 173.92 140.032C167.605 140.032 162.613 142.08 158.944 146.176C155.36 150.272 153.568 155.776 153.568 162.688C153.568 170.453 155.488 176.384 159.328 180.48C163.253 184.491 168.928 186.496 176.352 186.496C185.141 186.496 191.413 182.528 195.168 174.592H169.952V156.544H216.8V180.864C214.837 185.643 211.936 190.123 208.096 194.304C204.341 198.485 199.563 201.941 193.76 204.672C187.957 207.317 181.344 208.64 173.92 208.64C164.875 208.64 156.853 206.72 149.856 202.88C142.944 198.955 137.568 193.536 133.728 186.624C129.973 179.627 128.096 171.648 128.096 162.688C128.096 153.813 129.973 145.92 133.728 139.008C137.568 132.011 142.944 126.592 149.856 122.752C156.768 118.827 164.747 116.864 173.792 116.864C185.141 116.864 194.528 119.595 201.952 125.056C209.376 130.517 213.984 137.984 215.776 147.456H188.768ZM308.811 117.76V208H283.723V171.776H253.131V208H228.043V117.76H253.131V151.68H283.723V117.76H308.811ZM391.136 117.76V137.728H367.072V208H341.984V137.728H318.176V117.76H391.136ZM434.466 208.896C423.97 208.896 415.351 206.421 408.61 201.472C401.869 196.437 398.242 189.269 397.73 179.968H424.482C424.738 183.125 425.677 185.429 427.298 186.88C428.919 188.331 431.01 189.056 433.57 189.056C435.874 189.056 437.751 188.501 439.202 187.392C440.738 186.197 441.506 184.576 441.506 182.528C441.506 179.883 440.269 177.835 437.794 176.384C435.319 174.933 431.309 173.312 425.762 171.52C419.874 169.557 415.095 167.68 411.426 165.888C407.842 164.011 404.685 161.323 401.954 157.824C399.309 154.24 397.986 149.589 397.986 143.872C397.986 138.069 399.437 133.12 402.338 129.024C405.239 124.843 409.25 121.685 414.37 119.552C419.49 117.419 425.293 116.352 431.778 116.352C442.274 116.352 450.637 118.827 456.866 123.776C463.181 128.64 466.551 135.509 466.978 144.384H439.714C439.629 141.653 438.775 139.605 437.154 138.24C435.618 136.875 433.613 136.192 431.138 136.192C429.261 136.192 427.725 136.747 426.53 137.856C425.335 138.965 424.738 140.544 424.738 142.592C424.738 144.299 425.378 145.792 426.658 147.072C428.023 148.267 429.687 149.333 431.65 150.272C433.613 151.125 436.514 152.235 440.354 153.6C446.071 155.563 450.765 157.525 454.434 159.488C458.189 161.365 461.389 164.053 464.034 167.552C466.765 170.965 468.13 175.317 468.13 180.608C468.13 185.984 466.765 190.805 464.034 195.072C461.389 199.339 457.506 202.709 452.386 205.184C447.351 207.659 441.378 208.896 434.466 208.896Z"/>
</mask>
<path d="M87.936 17.76H89.936V15.76H87.936V17.76ZM87.936 108V110H89.936V108H87.936ZM62.848 108H60.848V110H62.848V108ZM62.848 71.776H64.848V69.776H62.848V71.776ZM32.256 71.776V69.776H30.256V71.776H32.256ZM32.256 108V110H34.256V108H32.256ZM7.168 108H5.168V110H7.168V108ZM7.168 17.76V15.76H5.168V17.76H7.168ZM32.256 17.76H34.256V15.76H32.256V17.76ZM32.256 51.68H30.256V53.68H32.256V51.68ZM62.848 51.68V53.68H64.848V51.68H62.848ZM62.848 17.76V15.76H60.848V17.76H62.848ZM85.936 17.76V108H89.936V17.76H85.936ZM87.936 106H62.848V110H87.936V106ZM64.848 108V71.776H60.848V108H64.848ZM62.848 69.776H32.256V73.776H62.848V69.776ZM30.256 71.776V108H34.256V71.776H30.256ZM32.256 106H7.168V110H32.256V106ZM9.168 108V17.76H5.168V108H9.168ZM7.168 19.76H32.256V15.76H7.168V19.76ZM30.256 17.76V51.68H34.256V17.76H30.256ZM32.256 53.68H62.848V49.68H32.256V53.68ZM64.848 51.68V17.76H60.848V51.68H64.848ZM62.848 19.76H87.936V15.76H62.848V19.76ZM126.869 17.76H128.869V15.76H126.869V17.76ZM130.197 81.376L128.665 82.6612L128.677 82.6755L128.689 82.6896L130.197 81.376ZM150.933 81.376L149.428 80.059L149.425 80.0624L150.933 81.376ZM154.517 17.76V15.76H152.517V17.76H154.517ZM179.605 17.76H181.605V15.76H179.605V17.76ZM174.357 91.36L176.07 92.3927L176.076 92.3817L174.357 91.36ZM160.021 104.544L160.895 106.343L160.905 106.338L160.021 104.544ZM120.341 104.544L119.415 106.317L119.431 106.325L119.447 106.333L120.341 104.544ZM106.773 91.36L105.027 92.3356L105.033 92.3454L105.038 92.355L106.773 91.36ZM101.909 17.76V15.76H99.909V17.76H101.909ZM124.869 17.76V70.112H128.869V17.76H124.869ZM124.869 70.112C124.869 75.2563 126.041 79.5331 128.665 82.6612L131.729 80.0908C129.916 77.9282 128.869 74.6957 128.869 70.112H124.869ZM128.689 82.6896C131.483 85.8978 135.571 87.344 140.565 87.344V83.344C136.343 83.344 133.519 82.1448 131.705 80.0624L128.689 82.6896ZM140.565 87.344C145.559 87.344 149.647 85.8978 152.441 82.6896L149.425 80.0624C147.611 82.1448 144.787 83.344 140.565 83.344V87.344ZM152.438 82.693C155.236 79.4952 156.517 75.2189 156.517 70.112H152.517C152.517 74.5625 151.408 77.7954 149.428 80.059L152.438 82.693ZM156.517 70.112V17.76H152.517V70.112H156.517ZM154.517 19.76H179.605V15.76H154.517V19.76ZM177.605 17.76V70.112H181.605V17.76H177.605ZM177.605 70.112C177.605 78.1048 175.918 84.8182 172.638 90.3383L176.076 92.3817C179.794 86.1258 181.605 78.6738 181.605 70.112H177.605ZM172.644 90.3273C169.343 95.8033 164.851 99.9332 159.137 102.75L160.905 106.338C167.308 103.181 172.374 98.522 176.07 92.3927L172.644 90.3273ZM159.147 102.745C153.474 105.501 147.121 106.896 140.053 106.896V110.896C147.662 110.896 154.622 109.39 160.895 106.343L159.147 102.745ZM140.053 106.896C132.984 106.896 126.726 105.5 121.235 102.755L119.447 106.333C125.561 109.39 132.445 110.896 140.053 110.896V106.896ZM121.267 102.771C115.901 99.9681 111.653 95.8495 108.508 90.365L105.038 92.355C108.549 98.4759 113.346 103.147 119.415 106.317L121.267 102.771ZM108.519 90.3844C105.481 84.9473 103.909 78.2198 103.909 70.112H99.909C99.909 78.7296 101.58 86.1673 105.027 92.3356L108.519 90.3844ZM103.909 70.112V17.76H99.909V70.112H103.909ZM101.909 19.76H126.869V15.76H101.909V19.76ZM298.762 17.76H300.762V15.76H298.762V17.76ZM298.762 108V110H300.762V108H298.762ZM273.674 108H271.674V110H273.674V108ZM273.674 58.208H275.674L271.782 57.561L273.674 58.208ZM256.65 108V110H258.08L258.542 108.647L256.65 108ZM235.658 108L233.766 108.647L234.228 110H235.658V108ZM218.506 57.824L220.398 57.1771L216.506 57.824H218.506ZM218.506 108V110H220.506V108H218.506ZM193.418 108H191.418V110H193.418V108ZM193.418 17.76V15.76H191.418V17.76H193.418ZM223.754 17.76L225.62 17.039L225.125 15.76H223.754V17.76ZM246.41 76.384L244.544 77.105L246.431 81.9874L248.281 77.0907L246.41 76.384ZM268.554 17.76V15.76H267.172L266.683 17.0533L268.554 17.76ZM296.762 17.76V108H300.762V17.76H296.762ZM298.762 106H273.674V110H298.762V106ZM275.674 108V58.208H271.674V108H275.674ZM271.782 57.561L254.758 107.353L258.542 108.647L275.566 58.855L271.782 57.561ZM256.65 106H235.658V110H256.65V106ZM237.55 107.353L220.398 57.1771L216.614 58.4709L233.766 108.647L237.55 107.353ZM216.506 57.824V108H220.506V57.824H216.506ZM218.506 106H193.418V110H218.506V106ZM195.418 108V17.76H191.418V108H195.418ZM193.418 19.76H223.754V15.76H193.418V19.76ZM221.888 18.481L244.544 77.105L248.276 75.663L225.62 17.039L221.888 18.481ZM248.281 77.0907L270.425 18.4667L266.683 17.0533L244.539 75.6773L248.281 77.0907ZM268.554 19.76H298.762V15.76H268.554V19.76ZM370.131 93.28L372.03 92.6525L371.577 91.28H370.131V93.28ZM338.131 93.28V91.28H336.686L336.232 92.6525L338.131 93.28ZM333.267 108V110H334.712L335.166 108.628L333.267 108ZM306.899 108L305.02 107.315L304.041 110H306.899V108ZM339.795 17.76V15.76H338.395L337.916 17.075L339.795 17.76ZM368.723 17.76L370.603 17.0774L370.125 15.76H368.723V17.76ZM401.491 108V110H404.345L403.371 107.317L401.491 108ZM374.995 108L373.096 108.628L373.549 110H374.995V108ZM363.859 74.08V76.08H366.634L365.756 73.4475L363.859 74.08ZM354.131 44.896L356.028 44.2635L354.118 38.5337L352.231 44.271L354.131 44.896ZM344.531 74.08L342.631 73.455L341.768 76.08H344.531V74.08ZM370.131 91.28H338.131V95.28H370.131V91.28ZM336.232 92.6525L331.368 107.372L335.166 108.628L340.03 93.9075L336.232 92.6525ZM333.267 106H306.899V110H333.267V106ZM308.778 108.685L341.674 18.445L337.916 17.075L305.02 107.315L308.778 108.685ZM339.795 19.76H368.723V15.76H339.795V19.76ZM366.843 18.4426L399.611 108.683L403.371 107.317L370.603 17.0774L366.843 18.4426ZM401.491 106H374.995V110H401.491V106ZM376.894 107.372L372.03 92.6525L368.232 93.9075L373.096 108.628L376.894 107.372ZM365.756 73.4475L356.028 44.2635L352.234 45.5285L361.962 74.7125L365.756 73.4475ZM352.231 44.271L342.631 73.455L346.431 74.7049L356.031 45.5209L352.231 44.271ZM344.531 76.08H363.859V72.08H344.531V76.08ZM493.252 108V110H495.252V108H493.252ZM468.164 108L466.497 109.105L467.09 110H468.164V108ZM434.756 57.568L436.423 56.4635L432.756 50.9273V57.568H434.756ZM434.756 108V110H436.756V108H434.756ZM409.668 108H407.668V110H409.668V108ZM409.668 17.76V15.76H407.668V17.76H409.668ZM434.756 17.76L436.43 16.6652L435.838 15.76H434.756V17.76ZM468.164 68.832L466.49 69.9268L470.164 75.543V68.832H468.164ZM468.164 17.76V15.76H466.164V17.76H468.164ZM493.252 17.76H495.252V15.76H493.252V17.76ZM493.252 106H468.164V110H493.252V106ZM469.831 106.895L436.423 56.4635L433.089 58.6725L466.497 109.105L469.831 106.895ZM432.756 57.568V108H436.756V57.568H432.756ZM434.756 106H409.668V110H434.756V106ZM411.668 108V17.76H407.668V108H411.668ZM409.668 19.76H434.756V15.76H409.668V19.76ZM433.082 18.8548L466.49 69.9268L469.838 67.7372L436.43 16.6652L433.082 18.8548ZM470.164 68.832V17.76H466.164V68.832H470.164ZM468.164 19.76H493.252V15.76H468.164V19.76ZM491.252 17.76V108H495.252V17.76H491.252ZM52.864 208L51.1031 208.948L51.6694 210H52.864V208ZM34.944 174.72L36.7049 173.772L36.1386 172.72H34.944V174.72ZM32.256 174.72V172.72H30.256V174.72H32.256ZM32.256 208V210H34.256V208H32.256ZM7.168 208H5.168V210H7.168V208ZM7.168 117.76V115.76H5.168V117.76H7.168ZM65.152 121.6L64.2455 123.383L64.2576 123.389L64.2698 123.395L65.152 121.6ZM76.544 131.968L74.8116 132.967L74.8159 132.975L74.8201 132.982L76.544 131.968ZM75.264 162.944L73.6465 161.768L73.6426 161.773L75.264 162.944ZM60.544 172.8L59.9647 170.886L57.5496 171.617L58.8126 173.801L60.544 172.8ZM80.896 208V210H84.3626L82.6274 206.999L80.896 208ZM32.256 157.568H30.256V159.568H32.256V157.568ZM52.352 155.136L50.9745 153.686L52.352 155.136ZM52.224 141.312L50.8098 142.726L50.8451 142.762L50.8822 142.795L52.224 141.312ZM32.256 138.752V136.752H30.256V138.752H32.256ZM54.6249 207.052L36.7049 173.772L33.1831 175.668L51.1031 208.948L54.6249 207.052ZM34.944 172.72H32.256V176.72H34.944V172.72ZM30.256 174.72V208H34.256V174.72H30.256ZM32.256 206H7.168V210H32.256V206ZM9.168 208V117.76H5.168V208H9.168ZM7.168 119.76H46.72V115.76H7.168V119.76ZM46.72 119.76C53.7451 119.76 59.56 121 64.2455 123.383L66.0585 119.817C60.6747 117.08 54.2016 115.76 46.72 115.76V119.76ZM64.2698 123.395C68.9838 125.712 72.4687 128.906 74.8116 132.967L78.2764 130.969C75.4994 126.155 71.3896 122.437 66.0342 119.805L64.2698 123.395ZM74.8201 132.982C77.1847 137.002 78.384 141.553 78.384 146.688H82.384C82.384 140.9 81.0233 135.638 78.2679 130.954L74.8201 132.982ZM78.384 146.688C78.384 152.436 76.7962 157.437 73.6465 161.768L76.8815 164.12C80.5585 159.064 82.384 153.228 82.384 146.688H78.384ZM73.6426 161.773C70.6178 165.961 66.1138 169.025 59.9647 170.886L61.1233 174.714C67.9449 172.65 73.2542 169.143 76.8854 164.115L73.6426 161.773ZM58.8126 173.801L79.1646 209.001L82.6274 206.999L62.2754 171.799L58.8126 173.801ZM80.896 206H52.864V210H80.896V206ZM32.256 159.568H44.672V155.568H32.256V159.568ZM44.672 159.568C48.3688 159.568 51.5128 158.692 53.7295 156.586L50.9745 153.686C49.7778 154.823 47.8019 155.568 44.672 155.568V159.568ZM53.7295 156.586C55.9451 154.481 56.912 151.541 56.912 148.096H52.912C52.912 150.795 52.1723 152.548 50.9745 153.686L53.7295 156.586ZM56.912 148.096C56.912 144.753 55.8604 141.905 53.5658 139.829L50.8822 142.795C52.1716 143.962 52.912 145.637 52.912 148.096H56.912ZM53.6382 139.898C51.4328 137.692 48.3253 136.752 44.672 136.752V140.752C47.6747 140.752 49.6019 141.518 50.8098 142.726L53.6382 139.898ZM44.672 136.752H32.256V140.752H44.672V136.752ZM30.256 138.752V157.568H34.256V138.752H30.256ZM116.881 117.76H118.881V115.76H116.881V117.76ZM116.881 208V210H118.881V208H116.881ZM91.793 208H89.793V210H91.793V208ZM91.793 117.76V115.76H89.793V117.76H91.793ZM114.881 117.76V208H118.881V117.76H114.881ZM116.881 206H91.793V210H116.881V206ZM93.793 208V117.76H89.793V208H93.793ZM91.793 119.76H116.881V115.76H91.793V119.76ZM188.768 147.456L187.058 148.494L187.643 149.456H188.768V147.456ZM182.752 141.952L181.833 143.728L181.845 143.735L181.858 143.741L182.752 141.952ZM158.944 146.176L157.454 144.842L157.447 144.85L157.439 144.859L158.944 146.176ZM159.328 180.48L157.869 181.848L157.884 181.864L157.899 181.879L159.328 180.48ZM195.168 174.592L196.976 175.447L198.327 172.592H195.168V174.592ZM169.952 174.592H167.952V176.592H169.952V174.592ZM169.952 156.544V154.544H167.952V156.544H169.952ZM216.8 156.544H218.8V154.544H216.8V156.544ZM216.8 180.864L218.65 181.624L218.8 181.259V180.864H216.8ZM208.096 194.304L206.623 192.951L206.615 192.959L206.608 192.968L208.096 194.304ZM193.76 204.672L194.59 206.492L194.601 206.487L194.612 206.482L193.76 204.672ZM149.856 202.88L148.868 204.619L148.881 204.626L148.894 204.633L149.856 202.88ZM133.728 186.624L131.966 187.57L131.973 187.583L131.98 187.595L133.728 186.624ZM133.728 139.008L131.975 138.046L131.971 138.053L133.728 139.008ZM149.856 122.752L150.827 124.5L150.835 124.496L150.844 124.491L149.856 122.752ZM201.952 125.056L200.767 126.667L201.952 125.056ZM215.776 147.456V149.456H218.19L217.741 147.084L215.776 147.456ZM190.478 146.418C188.826 143.699 186.535 141.607 183.646 140.163L181.858 143.741C184.089 144.857 185.808 146.435 187.058 148.494L190.478 146.418ZM183.671 140.176C180.855 138.719 177.582 138.032 173.92 138.032V142.032C177.085 142.032 179.699 142.625 181.833 143.728L183.671 140.176ZM173.92 138.032C167.13 138.032 161.561 140.257 157.454 144.842L160.434 147.51C163.666 143.903 168.081 142.032 173.92 142.032V138.032ZM157.439 144.859C153.457 149.41 151.568 155.426 151.568 162.688H155.568C155.568 156.126 157.263 151.134 160.449 147.493L157.439 144.859ZM151.568 162.688C151.568 170.765 153.567 177.259 157.869 181.848L160.787 179.112C157.409 175.509 155.568 170.142 155.568 162.688H151.568ZM157.899 181.879C162.31 186.386 168.571 188.496 176.352 188.496V184.496C169.285 184.496 164.197 182.595 160.757 179.081L157.899 181.879ZM176.352 188.496C181.055 188.496 185.206 187.431 188.717 185.21C192.228 182.989 194.967 179.694 196.976 175.447L193.36 173.737C191.615 177.426 189.34 180.083 186.579 181.83C183.818 183.577 180.439 184.496 176.352 184.496V188.496ZM195.168 172.592H169.952V176.592H195.168V172.592ZM171.952 174.592V156.544H167.952V174.592H171.952ZM169.952 158.544H216.8V154.544H169.952V158.544ZM214.8 156.544V180.864H218.8V156.544H214.8ZM214.95 180.104C213.085 184.644 210.319 188.927 206.623 192.951L209.569 195.657C213.553 191.319 216.589 186.641 218.65 181.624L214.95 180.104ZM206.608 192.968C203.055 196.924 198.503 200.229 192.908 202.862L194.612 206.482C200.622 203.653 205.628 200.046 209.584 195.64L206.608 192.968ZM192.93 202.852C187.428 205.361 181.104 206.64 173.92 206.64V210.64C181.584 210.64 188.487 209.274 194.59 206.492L192.93 202.852ZM173.92 206.64C165.166 206.64 157.483 204.784 150.818 201.127L148.894 204.633C156.223 208.656 164.584 210.64 173.92 210.64V206.64ZM150.844 201.141C144.249 197.396 139.137 192.242 135.476 185.653L131.98 187.595C135.999 194.83 141.639 200.514 148.868 204.619L150.844 201.141ZM135.49 185.678C131.911 179.007 130.096 171.361 130.096 162.688H126.096C126.096 171.935 128.036 180.246 131.966 187.57L135.49 185.678ZM130.096 162.688C130.096 154.103 131.909 146.546 135.485 139.963L131.971 138.053C128.037 145.294 126.096 153.523 126.096 162.688H130.096ZM135.481 139.97C139.142 133.3 144.248 128.155 150.827 124.5L148.885 121.004C141.64 125.029 135.994 130.721 131.975 138.046L135.481 139.97ZM150.844 124.491C157.415 120.759 165.044 118.864 173.792 118.864V114.864C164.449 114.864 156.121 116.894 148.868 121.013L150.844 124.491ZM173.792 118.864C184.815 118.864 193.759 121.512 200.767 126.667L203.137 123.445C195.297 117.677 185.467 114.864 173.792 114.864V118.864ZM200.767 126.667C207.763 131.814 212.108 138.827 213.811 147.828L217.741 147.084C215.86 137.141 210.989 129.221 203.137 123.445L200.767 126.667ZM215.776 145.456H188.768V149.456H215.776V145.456ZM308.811 117.76H310.811V115.76H308.811V117.76ZM308.811 208V210H310.811V208H308.811ZM283.723 208H281.723V210H283.723V208ZM283.723 171.776H285.723V169.776H283.723V171.776ZM253.131 171.776V169.776H251.131V171.776H253.131ZM253.131 208V210H255.131V208H253.131ZM228.043 208H226.043V210H228.043V208ZM228.043 117.76V115.76H226.043V117.76H228.043ZM253.131 117.76H255.131V115.76H253.131V117.76ZM253.131 151.68H251.131V153.68H253.131V151.68ZM283.723 151.68V153.68H285.723V151.68H283.723ZM283.723 117.76V115.76H281.723V117.76H283.723ZM306.811 117.76V208H310.811V117.76H306.811ZM308.811 206H283.723V210H308.811V206ZM285.723 208V171.776H281.723V208H285.723ZM283.723 169.776H253.131V173.776H283.723V169.776ZM251.131 171.776V208H255.131V171.776H251.131ZM253.131 206H228.043V210H253.131V206ZM230.043 208V117.76H226.043V208H230.043ZM228.043 119.76H253.131V115.76H228.043V119.76ZM251.131 117.76V151.68H255.131V117.76H251.131ZM253.131 153.68H283.723V149.68H253.131V153.68ZM285.723 151.68V117.76H281.723V151.68H285.723ZM283.723 119.76H308.811V115.76H283.723V119.76ZM391.136 117.76H393.136V115.76H391.136V117.76ZM391.136 137.728V139.728H393.136V137.728H391.136ZM367.072 137.728V135.728H365.072V137.728H367.072ZM367.072 208V210H369.072V208H367.072ZM341.984 208H339.984V210H341.984V208ZM341.984 137.728H343.984V135.728H341.984V137.728ZM318.176 137.728H316.176V139.728H318.176V137.728ZM318.176 117.76V115.76H316.176V117.76H318.176ZM389.136 117.76V137.728H393.136V117.76H389.136ZM391.136 135.728H367.072V139.728H391.136V135.728ZM365.072 137.728V208H369.072V137.728H365.072ZM367.072 206H341.984V210H367.072V206ZM343.984 208V137.728H339.984V208H343.984ZM341.984 135.728H318.176V139.728H341.984V135.728ZM320.176 137.728V117.76H316.176V137.728H320.176ZM318.176 119.76H391.136V115.76H318.176V119.76ZM408.61 201.472L407.413 203.074L407.42 203.079L407.426 203.084L408.61 201.472ZM397.73 179.968V177.968H395.617L395.733 180.078L397.73 179.968ZM424.482 179.968L426.475 179.806L426.326 177.968H424.482V179.968ZM427.298 186.88L425.964 188.37L427.298 186.88ZM439.202 187.392L440.417 188.981L440.423 188.976L440.43 188.971L439.202 187.392ZM437.794 176.384L438.805 174.659L437.794 176.384ZM425.762 171.52L425.13 173.417L425.138 173.42L425.147 173.423L425.762 171.52ZM411.426 165.888L410.498 167.66L410.523 167.673L410.548 167.685L411.426 165.888ZM401.954 157.824L400.345 159.012L400.361 159.033L400.377 159.055L401.954 157.824ZM402.338 129.024L403.97 130.18L403.976 130.172L403.981 130.164L402.338 129.024ZM414.37 119.552L413.601 117.706L414.37 119.552ZM456.866 123.776L455.622 125.342L455.634 125.351L455.646 125.36L456.866 123.776ZM466.978 144.384V146.384H469.076L468.976 144.288L466.978 144.384ZM439.714 144.384L437.715 144.446L437.776 146.384H439.714V144.384ZM437.154 138.24L435.825 139.735L435.845 139.753L435.866 139.77L437.154 138.24ZM426.53 137.856L427.891 139.322L426.53 137.856ZM426.658 147.072L425.244 148.486L425.291 148.533L425.341 148.577L426.658 147.072ZM431.65 150.272L430.787 152.076L430.82 152.092L430.853 152.106L431.65 150.272ZM440.354 153.6L439.684 155.484L439.694 155.488L439.705 155.492L440.354 153.6ZM454.434 159.488L453.491 161.252L453.515 161.265L453.54 161.277L454.434 159.488ZM464.034 167.552L462.439 168.758L462.455 168.78L462.472 168.801L464.034 167.552ZM464.034 195.072L462.349 193.994L462.342 194.006L462.334 194.018L464.034 195.072ZM452.386 205.184L451.516 203.383L451.504 203.389L452.386 205.184ZM434.466 206.896C424.286 206.896 416.113 204.499 409.794 199.86L407.426 203.084C414.59 208.343 423.654 210.896 434.466 210.896V206.896ZM409.807 199.87C403.595 195.23 400.21 188.64 399.727 179.858L395.733 180.078C396.274 189.899 400.143 197.645 407.413 203.074L409.807 199.87ZM397.73 181.968H424.482V177.968H397.73V181.968ZM422.489 180.13C422.767 183.567 423.817 186.449 425.964 188.37L428.632 185.39C427.536 184.409 426.709 182.684 426.475 179.806L422.489 180.13ZM425.964 188.37C428.016 190.206 430.61 191.056 433.57 191.056V187.056C431.41 187.056 429.823 186.455 428.632 185.39L425.964 188.37ZM433.57 191.056C436.197 191.056 438.535 190.42 440.417 188.981L437.987 185.803C436.968 186.583 435.551 187.056 433.57 187.056V191.056ZM440.43 188.971C442.482 187.375 443.506 185.156 443.506 182.528H439.506C439.506 183.996 438.994 185.02 437.974 185.813L440.43 188.971ZM443.506 182.528C443.506 179.103 441.83 176.431 438.805 174.659L436.783 178.109C438.708 179.238 439.506 180.662 439.506 182.528H443.506ZM438.805 174.659C436.134 173.093 431.951 171.418 426.377 169.617L425.147 173.423C430.667 175.206 434.505 176.774 436.783 178.109L438.805 174.659ZM426.394 169.623C420.552 167.675 415.864 165.83 412.304 164.091L410.548 167.685C414.327 169.53 419.196 171.44 425.13 173.417L426.394 169.623ZM412.354 164.116C409.046 162.383 406.103 159.89 403.531 156.593L400.377 159.055C403.266 162.756 406.638 165.638 410.498 167.66L412.354 164.116ZM403.563 156.636C401.236 153.483 399.986 149.284 399.986 143.872H395.986C395.986 149.895 397.382 154.997 400.345 159.012L403.563 156.636ZM399.986 143.872C399.986 138.417 401.344 133.887 403.97 130.18L400.706 127.868C397.529 132.353 395.986 137.722 395.986 143.872H399.986ZM403.981 130.164C406.645 126.325 410.339 123.398 415.139 121.398L413.601 117.706C408.161 119.972 403.834 123.36 400.695 127.884L403.981 130.164ZM415.139 121.398C419.978 119.382 425.513 118.352 431.778 118.352V114.352C425.073 114.352 419.002 115.455 413.601 117.706L415.139 121.398ZM431.778 118.352C441.967 118.352 449.845 120.752 455.622 125.342L458.11 122.21C451.428 116.901 442.581 114.352 431.778 114.352V118.352ZM455.646 125.36C461.439 129.823 464.578 136.116 464.98 144.48L468.976 144.288C468.524 134.903 464.923 127.457 458.086 122.192L455.646 125.36ZM466.978 142.384H439.714V146.384H466.978V142.384ZM441.713 144.322C441.615 141.198 440.616 138.541 438.442 136.71L435.866 139.77C436.935 140.67 437.642 142.109 437.715 144.446L441.713 144.322ZM438.483 136.745C436.509 134.991 433.997 134.192 431.138 134.192V138.192C433.228 138.192 434.727 138.759 435.825 139.735L438.483 136.745ZM431.138 134.192C428.838 134.192 426.79 134.886 425.169 136.39L427.891 139.322C428.66 138.608 429.684 138.192 431.138 138.192V134.192ZM425.169 136.39C423.467 137.971 422.738 140.14 422.738 142.592H426.738C426.738 140.948 427.203 139.96 427.891 139.322L425.169 136.39ZM422.738 142.592C422.738 144.864 423.614 146.856 425.244 148.486L428.072 145.658C427.142 144.728 426.738 143.734 426.738 142.592H422.738ZM425.341 148.577C426.867 149.913 428.692 151.074 430.787 152.076L432.513 148.468C430.683 147.593 429.179 146.621 427.975 145.567L425.341 148.577ZM430.853 152.106C432.879 152.987 435.832 154.115 439.684 155.484L441.024 151.716C437.196 150.355 434.346 149.263 432.447 148.438L430.853 152.106ZM439.705 155.492C445.362 157.434 449.948 159.356 453.491 161.252L455.377 157.724C451.582 155.694 446.781 153.692 441.003 151.708L439.705 155.492ZM453.54 161.277C457.006 163.01 459.97 165.494 462.439 168.758L465.629 166.346C462.807 162.613 459.371 159.72 455.328 157.699L453.54 161.277ZM462.472 168.801C464.863 171.79 466.13 175.673 466.13 180.608H470.13C470.13 174.962 468.666 170.141 465.596 166.303L462.472 168.801ZM466.13 180.608C466.13 185.626 464.861 190.069 462.349 193.994L465.719 196.15C468.668 191.542 470.13 186.342 470.13 180.608H466.13ZM462.334 194.018C459.915 197.921 456.341 201.051 451.516 203.383L453.256 206.985C458.671 204.367 462.863 200.757 465.734 196.126L462.334 194.018ZM451.504 203.389C446.8 205.701 441.142 206.896 434.466 206.896V210.896C441.614 210.896 447.903 209.616 453.268 206.979L451.504 203.389Z" fill="black" mask="url(#path-1-outside-1_3708_3541)"/>
<mask id="path-3-outside-2_3708_3541" maskUnits="userSpaceOnUse" x="5" y="8" width="491" height="196" fill="black">
<rect fill="white" x="5" y="8" width="491" height="196"/>
<path d="M87.936 10.76V101H62.848V64.776H32.256V101H7.168V10.76H32.256V44.68H62.848V10.76H87.936ZM126.869 10.76V63.112C126.869 67.976 127.978 71.7307 130.197 74.376C132.501 77.0213 135.957 78.344 140.565 78.344C145.173 78.344 148.629 77.0213 150.933 74.376C153.322 71.6453 154.517 67.8907 154.517 63.112V10.76H179.605V63.112C179.605 71.3893 177.856 78.472 174.357 84.36C170.858 90.1627 166.08 94.5573 160.021 97.544C154.048 100.445 147.392 101.896 140.053 101.896C132.714 101.896 126.144 100.445 120.341 97.544C114.624 94.5573 110.101 90.1627 106.773 84.36C103.53 78.5573 101.909 71.4747 101.909 63.112V10.76H126.869ZM298.762 10.76V101H273.674V51.208L256.65 101H235.658L218.506 50.824V101H193.418V10.76H223.754L246.41 69.384L268.554 10.76H298.762ZM370.131 86.28H338.131L333.267 101H306.899L339.795 10.76H368.723L401.491 101H374.995L370.131 86.28ZM363.859 67.08L354.131 37.896L344.531 67.08H363.859ZM493.252 101H468.164L434.756 50.568V101H409.668V10.76H434.756L468.164 61.832V10.76H493.252V101ZM52.864 201L34.944 167.72H32.256V201H7.168V110.76H46.72C53.9733 110.76 60.1173 112.04 65.152 114.6C70.1867 117.075 73.984 120.531 76.544 124.968C79.104 129.32 80.384 134.227 80.384 139.688C80.384 145.832 78.6773 151.251 75.264 155.944C71.936 160.552 67.0293 163.837 60.544 165.8L80.896 201H52.864ZM32.256 150.568H44.672C48.0853 150.568 50.6453 149.757 52.352 148.136C54.0587 146.515 54.912 144.168 54.912 141.096C54.912 138.195 54.016 135.933 52.224 134.312C50.5173 132.605 48 131.752 44.672 131.752H32.256V150.568ZM116.881 110.76V201H91.793V110.76H116.881ZM188.768 140.456C187.317 138.067 185.312 136.232 182.752 134.952C180.277 133.672 177.333 133.032 173.92 133.032C167.605 133.032 162.613 135.08 158.944 139.176C155.36 143.272 153.568 148.776 153.568 155.688C153.568 163.453 155.488 169.384 159.328 173.48C163.253 177.491 168.928 179.496 176.352 179.496C185.141 179.496 191.413 175.528 195.168 167.592H169.952V149.544H216.8V173.864C214.837 178.643 211.936 183.123 208.096 187.304C204.341 191.485 199.563 194.941 193.76 197.672C187.957 200.317 181.344 201.64 173.92 201.64C164.875 201.64 156.853 199.72 149.856 195.88C142.944 191.955 137.568 186.536 133.728 179.624C129.973 172.627 128.096 164.648 128.096 155.688C128.096 146.813 129.973 138.92 133.728 132.008C137.568 125.011 142.944 119.592 149.856 115.752C156.768 111.827 164.747 109.864 173.792 109.864C185.141 109.864 194.528 112.595 201.952 118.056C209.376 123.517 213.984 130.984 215.776 140.456H188.768ZM308.811 110.76V201H283.723V164.776H253.131V201H228.043V110.76H253.131V144.68H283.723V110.76H308.811ZM391.136 110.76V130.728H367.072V201H341.984V130.728H318.176V110.76H391.136ZM434.466 201.896C423.97 201.896 415.351 199.421 408.61 194.472C401.869 189.437 398.242 182.269 397.73 172.968H424.482C424.738 176.125 425.677 178.429 427.298 179.88C428.919 181.331 431.01 182.056 433.57 182.056C435.874 182.056 437.751 181.501 439.202 180.392C440.738 179.197 441.506 177.576 441.506 175.528C441.506 172.883 440.269 170.835 437.794 169.384C435.319 167.933 431.309 166.312 425.762 164.52C419.874 162.557 415.095 160.68 411.426 158.888C407.842 157.011 404.685 154.323 401.954 150.824C399.309 147.24 397.986 142.589 397.986 136.872C397.986 131.069 399.437 126.12 402.338 122.024C405.239 117.843 409.25 114.685 414.37 112.552C419.49 110.419 425.293 109.352 431.778 109.352C442.274 109.352 450.637 111.827 456.866 116.776C463.181 121.64 466.551 128.509 466.978 137.384H439.714C439.629 134.653 438.775 132.605 437.154 131.24C435.618 129.875 433.613 129.192 431.138 129.192C429.261 129.192 427.725 129.747 426.53 130.856C425.335 131.965 424.738 133.544 424.738 135.592C424.738 137.299 425.378 138.792 426.658 140.072C428.023 141.267 429.687 142.333 431.65 143.272C433.613 144.125 436.514 145.235 440.354 146.6C446.071 148.563 450.765 150.525 454.434 152.488C458.189 154.365 461.389 157.053 464.034 160.552C466.765 163.965 468.13 168.317 468.13 173.608C468.13 178.984 466.765 183.805 464.034 188.072C461.389 192.339 457.506 195.709 452.386 198.184C447.351 200.659 441.378 201.896 434.466 201.896Z"/>
</mask>
<path d="M87.936 10.76H89.936V8.75999H87.936V10.76ZM87.936 101V103H89.936V101H87.936ZM62.848 101H60.848V103H62.848V101ZM62.848 64.776H64.848V62.776H62.848V64.776ZM32.256 64.776V62.776H30.256V64.776H32.256ZM32.256 101V103H34.256V101H32.256ZM7.168 101H5.168V103H7.168V101ZM7.168 10.76V8.75999H5.168V10.76H7.168ZM32.256 10.76H34.256V8.75999H32.256V10.76ZM32.256 44.68H30.256V46.68H32.256V44.68ZM62.848 44.68V46.68H64.848V44.68H62.848ZM62.848 10.76V8.75999H60.848V10.76H62.848ZM85.936 10.76V101H89.936V10.76H85.936ZM87.936 99H62.848V103H87.936V99ZM64.848 101V64.776H60.848V101H64.848ZM62.848 62.776H32.256V66.776H62.848V62.776ZM30.256 64.776V101H34.256V64.776H30.256ZM32.256 99H7.168V103H32.256V99ZM9.168 101V10.76H5.168V101H9.168ZM7.168 12.76H32.256V8.75999H7.168V12.76ZM30.256 10.76V44.68H34.256V10.76H30.256ZM32.256 46.68H62.848V42.68H32.256V46.68ZM64.848 44.68V10.76H60.848V44.68H64.848ZM62.848 12.76H87.936V8.75999H62.848V12.76ZM126.869 10.76H128.869V8.75999H126.869V10.76ZM130.197 74.376L128.665 75.6612L128.677 75.6755L128.689 75.6896L130.197 74.376ZM150.933 74.376L149.428 73.059L149.425 73.0624L150.933 74.376ZM154.517 10.76V8.75999H152.517V10.76H154.517ZM179.605 10.76H181.605V8.75999H179.605V10.76ZM174.357 84.36L176.07 85.3927L176.076 85.3817L174.357 84.36ZM160.021 97.544L160.895 99.343L160.905 99.3379L160.021 97.544ZM120.341 97.544L119.415 99.3167L119.431 99.3249L119.447 99.3329L120.341 97.544ZM106.773 84.36L105.027 85.3356L105.033 85.3454L105.038 85.355L106.773 84.36ZM101.909 10.76V8.75999H99.909V10.76H101.909ZM124.869 10.76V63.112H128.869V10.76H124.869ZM124.869 63.112C124.869 68.2563 126.041 72.5331 128.665 75.6612L131.729 73.0908C129.916 70.9282 128.869 67.6957 128.869 63.112H124.869ZM128.689 75.6896C131.483 78.8978 135.571 80.344 140.565 80.344V76.344C136.343 76.344 133.519 75.1448 131.705 73.0624L128.689 75.6896ZM140.565 80.344C145.559 80.344 149.647 78.8978 152.441 75.6896L149.425 73.0624C147.611 75.1448 144.787 76.344 140.565 76.344V80.344ZM152.438 75.693C155.236 72.4952 156.517 68.2189 156.517 63.112H152.517C152.517 67.5625 151.408 70.7954 149.428 73.059L152.438 75.693ZM156.517 63.112V10.76H152.517V63.112H156.517ZM154.517 12.76H179.605V8.75999H154.517V12.76ZM177.605 10.76V63.112H181.605V10.76H177.605ZM177.605 63.112C177.605 71.1048 175.918 77.8182 172.638 83.3383L176.076 85.3817C179.794 79.1258 181.605 71.6738 181.605 63.112H177.605ZM172.644 83.3273C169.343 88.8033 164.851 92.9332 159.137 95.7501L160.905 99.3379C167.308 96.1814 172.374 91.522 176.07 85.3927L172.644 83.3273ZM159.147 95.745C153.474 98.5007 147.121 99.896 140.053 99.896V103.896C147.662 103.896 154.622 102.39 160.895 99.343L159.147 95.745ZM140.053 99.896C132.984 99.896 126.726 98.5004 121.235 95.7551L119.447 99.3329C125.561 102.39 132.445 103.896 140.053 103.896V99.896ZM121.267 95.7713C115.901 92.9681 111.653 88.8495 108.508 83.365L105.038 85.355C108.549 91.4759 113.346 96.1465 119.415 99.3167L121.267 95.7713ZM108.519 83.3844C105.481 77.9473 103.909 71.2198 103.909 63.112H99.909C99.909 71.7296 101.58 79.1673 105.027 85.3356L108.519 83.3844ZM103.909 63.112V10.76H99.909V63.112H103.909ZM101.909 12.76H126.869V8.75999H101.909V12.76ZM298.762 10.76H300.762V8.75999H298.762V10.76ZM298.762 101V103H300.762V101H298.762ZM273.674 101H271.674V103H273.674V101ZM273.674 51.208H275.674L271.782 50.561L273.674 51.208ZM256.65 101V103H258.08L258.542 101.647L256.65 101ZM235.658 101L233.766 101.647L234.228 103H235.658V101ZM218.506 50.824L220.398 50.1771L216.506 50.824H218.506ZM218.506 101V103H220.506V101H218.506ZM193.418 101H191.418V103H193.418V101ZM193.418 10.76V8.75999H191.418V10.76H193.418ZM223.754 10.76L225.62 10.039L225.125 8.75999H223.754V10.76ZM246.41 69.384L244.544 70.105L246.431 74.9874L248.281 70.0907L246.41 69.384ZM268.554 10.76V8.75999H267.172L266.683 10.0533L268.554 10.76ZM296.762 10.76V101H300.762V10.76H296.762ZM298.762 99H273.674V103H298.762V99ZM275.674 101V51.208H271.674V101H275.674ZM271.782 50.561L254.758 100.353L258.542 101.647L275.566 51.855L271.782 50.561ZM256.65 99H235.658V103H256.65V99ZM237.55 100.353L220.398 50.1771L216.614 51.4709L233.766 101.647L237.55 100.353ZM216.506 50.824V101H220.506V50.824H216.506ZM218.506 99H193.418V103H218.506V99ZM195.418 101V10.76H191.418V101H195.418ZM193.418 12.76H223.754V8.75999H193.418V12.76ZM221.888 11.481L244.544 70.105L248.276 68.663L225.62 10.039L221.888 11.481ZM248.281 70.0907L270.425 11.4667L266.683 10.0533L244.539 68.6773L248.281 70.0907ZM268.554 12.76H298.762V8.75999H268.554V12.76ZM370.131 86.28L372.03 85.6525L371.577 84.28H370.131V86.28ZM338.131 86.28V84.28H336.686L336.232 85.6525L338.131 86.28ZM333.267 101V103H334.712L335.166 101.628L333.267 101ZM306.899 101L305.02 100.315L304.041 103H306.899V101ZM339.795 10.76V8.75999H338.395L337.916 10.075L339.795 10.76ZM368.723 10.76L370.603 10.0774L370.125 8.75999H368.723V10.76ZM401.491 101V103H404.345L403.371 100.317L401.491 101ZM374.995 101L373.096 101.628L373.549 103H374.995V101ZM363.859 67.08V69.08H366.634L365.756 66.4475L363.859 67.08ZM354.131 37.896L356.028 37.2635L354.118 31.5337L352.231 37.271L354.131 37.896ZM344.531 67.08L342.631 66.455L341.768 69.08H344.531V67.08ZM370.131 84.28H338.131V88.28H370.131V84.28ZM336.232 85.6525L331.368 100.372L335.166 101.628L340.03 86.9075L336.232 85.6525ZM333.267 99H306.899V103H333.267V99ZM308.778 101.685L341.674 11.445L337.916 10.075L305.02 100.315L308.778 101.685ZM339.795 12.76H368.723V8.75999H339.795V12.76ZM366.843 11.4426L399.611 101.683L403.371 100.317L370.603 10.0774L366.843 11.4426ZM401.491 99H374.995V103H401.491V99ZM376.894 100.372L372.03 85.6525L368.232 86.9075L373.096 101.628L376.894 100.372ZM365.756 66.4475L356.028 37.2635L352.234 38.5285L361.962 67.7125L365.756 66.4475ZM352.231 37.271L342.631 66.455L346.431 67.7049L356.031 38.5209L352.231 37.271ZM344.531 69.08H363.859V65.08H344.531V69.08ZM493.252 101V103H495.252V101H493.252ZM468.164 101L466.497 102.105L467.09 103H468.164V101ZM434.756 50.568L436.423 49.4635L432.756 43.9273V50.568H434.756ZM434.756 101V103H436.756V101H434.756ZM409.668 101H407.668V103H409.668V101ZM409.668 10.76V8.75999H407.668V10.76H409.668ZM434.756 10.76L436.43 9.66516L435.838 8.75999H434.756V10.76ZM468.164 61.832L466.49 62.9268L470.164 68.543V61.832H468.164ZM468.164 10.76V8.75999H466.164V10.76H468.164ZM493.252 10.76H495.252V8.75999H493.252V10.76ZM493.252 99H468.164V103H493.252V99ZM469.831 99.8955L436.423 49.4635L433.089 51.6725L466.497 102.105L469.831 99.8955ZM432.756 50.568V101H436.756V50.568H432.756ZM434.756 99H409.668V103H434.756V99ZM411.668 101V10.76H407.668V101H411.668ZM409.668 12.76H434.756V8.75999H409.668V12.76ZM433.082 11.8548L466.49 62.9268L469.838 60.7372L436.43 9.66516L433.082 11.8548ZM470.164 61.832V10.76H466.164V61.832H470.164ZM468.164 12.76H493.252V8.75999H468.164V12.76ZM491.252 10.76V101H495.252V10.76H491.252ZM52.864 201L51.1031 201.948L51.6694 203H52.864V201ZM34.944 167.72L36.7049 166.772L36.1386 165.72H34.944V167.72ZM32.256 167.72V165.72H30.256V167.72H32.256ZM32.256 201V203H34.256V201H32.256ZM7.168 201H5.168V203H7.168V201ZM7.168 110.76V108.76H5.168V110.76H7.168ZM65.152 114.6L64.2455 116.383L64.2576 116.389L64.2698 116.395L65.152 114.6ZM76.544 124.968L74.8116 125.967L74.8159 125.975L74.8201 125.982L76.544 124.968ZM75.264 155.944L73.6465 154.768L73.6426 154.773L75.264 155.944ZM60.544 165.8L59.9647 163.886L57.5496 164.617L58.8126 166.801L60.544 165.8ZM80.896 201V203H84.3626L82.6274 199.999L80.896 201ZM32.256 150.568H30.256V152.568H32.256V150.568ZM52.352 148.136L50.9745 146.686L52.352 148.136ZM52.224 134.312L50.8098 135.726L50.8451 135.762L50.8822 135.795L52.224 134.312ZM32.256 131.752V129.752H30.256V131.752H32.256ZM54.6249 200.052L36.7049 166.772L33.1831 168.668L51.1031 201.948L54.6249 200.052ZM34.944 165.72H32.256V169.72H34.944V165.72ZM30.256 167.72V201H34.256V167.72H30.256ZM32.256 199H7.168V203H32.256V199ZM9.168 201V110.76H5.168V201H9.168ZM7.168 112.76H46.72V108.76H7.168V112.76ZM46.72 112.76C53.7451 112.76 59.56 114 64.2455 116.383L66.0585 112.817C60.6747 110.08 54.2016 108.76 46.72 108.76V112.76ZM64.2698 116.395C68.9838 118.712 72.4687 121.906 74.8116 125.967L78.2764 123.969C75.4994 119.155 71.3896 115.437 66.0342 112.805L64.2698 116.395ZM74.8201 125.982C77.1847 130.002 78.384 134.553 78.384 139.688H82.384C82.384 133.9 81.0233 128.638 78.2679 123.954L74.8201 125.982ZM78.384 139.688C78.384 145.436 76.7962 150.437 73.6465 154.768L76.8815 157.12C80.5585 152.064 82.384 146.228 82.384 139.688H78.384ZM73.6426 154.773C70.6178 158.961 66.1138 162.025 59.9647 163.886L61.1233 167.714C67.9449 165.65 73.2542 162.143 76.8854 157.115L73.6426 154.773ZM58.8126 166.801L79.1646 202.001L82.6274 199.999L62.2754 164.799L58.8126 166.801ZM80.896 199H52.864V203H80.896V199ZM32.256 152.568H44.672V148.568H32.256V152.568ZM44.672 152.568C48.3688 152.568 51.5128 151.692 53.7295 149.586L50.9745 146.686C49.7778 147.823 47.8019 148.568 44.672 148.568V152.568ZM53.7295 149.586C55.9451 147.481 56.912 144.541 56.912 141.096H52.912C52.912 143.795 52.1723 145.548 50.9745 146.686L53.7295 149.586ZM56.912 141.096C56.912 137.753 55.8604 134.905 53.5658 132.829L50.8822 135.795C52.1716 136.962 52.912 138.637 52.912 141.096H56.912ZM53.6382 132.898C51.4328 130.692 48.3253 129.752 44.672 129.752V133.752C47.6747 133.752 49.6019 134.518 50.8098 135.726L53.6382 132.898ZM44.672 129.752H32.256V133.752H44.672V129.752ZM30.256 131.752V150.568H34.256V131.752H30.256ZM116.881 110.76H118.881V108.76H116.881V110.76ZM116.881 201V203H118.881V201H116.881ZM91.793 201H89.793V203H91.793V201ZM91.793 110.76V108.76H89.793V110.76H91.793ZM114.881 110.76V201H118.881V110.76H114.881ZM116.881 199H91.793V203H116.881V199ZM93.793 201V110.76H89.793V201H93.793ZM91.793 112.76H116.881V108.76H91.793V112.76ZM188.768 140.456L187.058 141.494L187.643 142.456H188.768V140.456ZM182.752 134.952L181.833 136.728L181.845 136.735L181.858 136.741L182.752 134.952ZM158.944 139.176L157.454 137.842L157.447 137.85L157.439 137.859L158.944 139.176ZM159.328 173.48L157.869 174.848L157.884 174.864L157.899 174.879L159.328 173.48ZM195.168 167.592L196.976 168.447L198.327 165.592H195.168V167.592ZM169.952 167.592H167.952V169.592H169.952V167.592ZM169.952 149.544V147.544H167.952V149.544H169.952ZM216.8 149.544H218.8V147.544H216.8V149.544ZM216.8 173.864L218.65 174.624L218.8 174.259V173.864H216.8ZM208.096 187.304L206.623 185.951L206.615 185.959L206.608 185.968L208.096 187.304ZM193.76 197.672L194.59 199.492L194.601 199.487L194.612 199.482L193.76 197.672ZM149.856 195.88L148.868 197.619L148.881 197.626L148.894 197.633L149.856 195.88ZM133.728 179.624L131.966 180.57L131.973 180.583L131.98 180.595L133.728 179.624ZM133.728 132.008L131.975 131.046L131.971 131.053L133.728 132.008ZM149.856 115.752L150.827 117.5L150.835 117.496L150.844 117.491L149.856 115.752ZM201.952 118.056L200.767 119.667L201.952 118.056ZM215.776 140.456V142.456H218.19L217.741 140.084L215.776 140.456ZM190.478 139.418C188.826 136.699 186.535 134.607 183.646 133.163L181.858 136.741C184.089 137.857 185.808 139.435 187.058 141.494L190.478 139.418ZM183.671 133.176C180.855 131.719 177.582 131.032 173.92 131.032V135.032C177.085 135.032 179.699 135.625 181.833 136.728L183.671 133.176ZM173.92 131.032C167.13 131.032 161.561 133.257 157.454 137.842L160.434 140.51C163.666 136.903 168.081 135.032 173.92 135.032V131.032ZM157.439 137.859C153.457 142.41 151.568 148.426 151.568 155.688H155.568C155.568 149.126 157.263 144.134 160.449 140.493L157.439 137.859ZM151.568 155.688C151.568 163.765 153.567 170.259 157.869 174.848L160.787 172.112C157.409 168.509 155.568 163.142 155.568 155.688H151.568ZM157.899 174.879C162.31 179.386 168.571 181.496 176.352 181.496V177.496C169.285 177.496 164.197 175.595 160.757 172.081L157.899 174.879ZM176.352 181.496C181.055 181.496 185.206 180.431 188.717 178.21C192.228 175.989 194.967 172.694 196.976 168.447L193.36 166.737C191.615 170.426 189.34 173.083 186.579 174.83C183.818 176.577 180.439 177.496 176.352 177.496V181.496ZM195.168 165.592H169.952V169.592H195.168V165.592ZM171.952 167.592V149.544H167.952V167.592H171.952ZM169.952 151.544H216.8V147.544H169.952V151.544ZM214.8 149.544V173.864H218.8V149.544H214.8ZM214.95 173.104C213.085 177.644 210.319 181.927 206.623 185.951L209.569 188.657C213.553 184.319 216.589 179.641 218.65 174.624L214.95 173.104ZM206.608 185.968C203.055 189.924 198.503 193.229 192.908 195.862L194.612 199.482C200.622 196.653 205.628 193.046 209.584 188.64L206.608 185.968ZM192.93 195.852C187.428 198.361 181.104 199.64 173.92 199.64V203.64C181.584 203.64 188.487 202.274 194.59 199.492L192.93 195.852ZM173.92 199.64C165.166 199.64 157.483 197.784 150.818 194.127L148.894 197.633C156.223 201.656 164.584 203.64 173.92 203.64V199.64ZM150.844 194.141C144.249 190.396 139.137 185.242 135.476 178.653L131.98 180.595C135.999 187.83 141.639 193.514 148.868 197.619L150.844 194.141ZM135.49 178.678C131.911 172.007 130.096 164.361 130.096 155.688H126.096C126.096 164.935 128.036 173.246 131.966 180.57L135.49 178.678ZM130.096 155.688C130.096 147.103 131.909 139.546 135.485 132.963L131.971 131.053C128.037 138.294 126.096 146.523 126.096 155.688H130.096ZM135.481 132.97C139.142 126.3 144.248 121.155 150.827 117.5L148.885 114.004C141.64 118.029 135.994 123.721 131.975 131.046L135.481 132.97ZM150.844 117.491C157.415 113.759 165.044 111.864 173.792 111.864V107.864C164.449 107.864 156.121 109.894 148.868 114.013L150.844 117.491ZM173.792 111.864C184.815 111.864 193.759 114.512 200.767 119.667L203.137 116.445C195.297 110.677 185.467 107.864 173.792 107.864V111.864ZM200.767 119.667C207.763 124.814 212.108 131.827 213.811 140.828L217.741 140.084C215.86 130.141 210.989 122.221 203.137 116.445L200.767 119.667ZM215.776 138.456H188.768V142.456H215.776V138.456ZM308.811 110.76H310.811V108.76H308.811V110.76ZM308.811 201V203H310.811V201H308.811ZM283.723 201H281.723V203H283.723V201ZM283.723 164.776H285.723V162.776H283.723V164.776ZM253.131 164.776V162.776H251.131V164.776H253.131ZM253.131 201V203H255.131V201H253.131ZM228.043 201H226.043V203H228.043V201ZM228.043 110.76V108.76H226.043V110.76H228.043ZM253.131 110.76H255.131V108.76H253.131V110.76ZM253.131 144.68H251.131V146.68H253.131V144.68ZM283.723 144.68V146.68H285.723V144.68H283.723ZM283.723 110.76V108.76H281.723V110.76H283.723ZM306.811 110.76V201H310.811V110.76H306.811ZM308.811 199H283.723V203H308.811V199ZM285.723 201V164.776H281.723V201H285.723ZM283.723 162.776H253.131V166.776H283.723V162.776ZM251.131 164.776V201H255.131V164.776H251.131ZM253.131 199H228.043V203H253.131V199ZM230.043 201V110.76H226.043V201H230.043ZM228.043 112.76H253.131V108.76H228.043V112.76ZM251.131 110.76V144.68H255.131V110.76H251.131ZM253.131 146.68H283.723V142.68H253.131V146.68ZM285.723 144.68V110.76H281.723V144.68H285.723ZM283.723 112.76H308.811V108.76H283.723V112.76ZM391.136 110.76H393.136V108.76H391.136V110.76ZM391.136 130.728V132.728H393.136V130.728H391.136ZM367.072 130.728V128.728H365.072V130.728H367.072ZM367.072 201V203H369.072V201H367.072ZM341.984 201H339.984V203H341.984V201ZM341.984 130.728H343.984V128.728H341.984V130.728ZM318.176 130.728H316.176V132.728H318.176V130.728ZM318.176 110.76V108.76H316.176V110.76H318.176ZM389.136 110.76V130.728H393.136V110.76H389.136ZM391.136 128.728H367.072V132.728H391.136V128.728ZM365.072 130.728V201H369.072V130.728H365.072ZM367.072 199H341.984V203H367.072V199ZM343.984 201V130.728H339.984V201H343.984ZM341.984 128.728H318.176V132.728H341.984V128.728ZM320.176 130.728V110.76H316.176V130.728H320.176ZM318.176 112.76H391.136V108.76H318.176V112.76ZM408.61 194.472L407.413 196.074L407.42 196.079L407.426 196.084L408.61 194.472ZM397.73 172.968V170.968H395.617L395.733 173.078L397.73 172.968ZM424.482 172.968L426.475 172.806L426.326 170.968H424.482V172.968ZM427.298 179.88L425.964 181.37L427.298 179.88ZM439.202 180.392L440.417 181.981L440.423 181.976L440.43 181.971L439.202 180.392ZM437.794 169.384L438.805 167.659L437.794 169.384ZM425.762 164.52L425.13 166.417L425.138 166.42L425.147 166.423L425.762 164.52ZM411.426 158.888L410.498 160.66L410.523 160.673L410.548 160.685L411.426 158.888ZM401.954 150.824L400.345 152.012L400.361 152.033L400.377 152.055L401.954 150.824ZM402.338 122.024L403.97 123.18L403.976 123.172L403.981 123.164L402.338 122.024ZM414.37 112.552L413.601 110.706L414.37 112.552ZM456.866 116.776L455.622 118.342L455.634 118.351L455.646 118.36L456.866 116.776ZM466.978 137.384V139.384H469.076L468.976 137.288L466.978 137.384ZM439.714 137.384L437.715 137.446L437.776 139.384H439.714V137.384ZM437.154 131.24L435.825 132.735L435.845 132.753L435.866 132.77L437.154 131.24ZM426.53 130.856L427.891 132.322L426.53 130.856ZM426.658 140.072L425.244 141.486L425.291 141.533L425.341 141.577L426.658 140.072ZM431.65 143.272L430.787 145.076L430.82 145.092L430.853 145.106L431.65 143.272ZM440.354 146.6L439.684 148.484L439.694 148.488L439.705 148.492L440.354 146.6ZM454.434 152.488L453.491 154.252L453.515 154.265L453.54 154.277L454.434 152.488ZM464.034 160.552L462.439 161.758L462.455 161.78L462.472 161.801L464.034 160.552ZM464.034 188.072L462.349 186.994L462.342 187.006L462.334 187.018L464.034 188.072ZM452.386 198.184L451.516 196.383L451.504 196.389L452.386 198.184ZM434.466 199.896C424.286 199.896 416.113 197.499 409.794 192.86L407.426 196.084C414.59 201.343 423.654 203.896 434.466 203.896V199.896ZM409.807 192.87C403.595 188.23 400.21 181.64 399.727 172.858L395.733 173.078C396.274 182.899 400.143 190.645 407.413 196.074L409.807 192.87ZM397.73 174.968H424.482V170.968H397.73V174.968ZM422.489 173.13C422.767 176.567 423.817 179.449 425.964 181.37L428.632 178.39C427.536 177.409 426.709 175.684 426.475 172.806L422.489 173.13ZM425.964 181.37C428.016 183.206 430.61 184.056 433.57 184.056V180.056C431.41 180.056 429.823 179.455 428.632 178.39L425.964 181.37ZM433.57 184.056C436.197 184.056 438.535 183.42 440.417 181.981L437.987 178.803C436.968 179.583 435.551 180.056 433.57 180.056V184.056ZM440.43 181.971C442.482 180.375 443.506 178.156 443.506 175.528H439.506C439.506 176.996 438.994 178.02 437.974 178.813L440.43 181.971ZM443.506 175.528C443.506 172.103 441.83 169.431 438.805 167.659L436.783 171.109C438.708 172.238 439.506 173.662 439.506 175.528H443.506ZM438.805 167.659C436.134 166.093 431.951 164.418 426.377 162.617L425.147 166.423C430.667 168.206 434.505 169.774 436.783 171.109L438.805 167.659ZM426.394 162.623C420.552 160.675 415.864 158.83 412.304 157.091L410.548 160.685C414.327 162.53 419.196 164.44 425.13 166.417L426.394 162.623ZM412.354 157.116C409.046 155.383 406.103 152.89 403.531 149.593L400.377 152.055C403.266 155.756 406.638 158.638 410.498 160.66L412.354 157.116ZM403.563 149.636C401.236 146.483 399.986 142.284 399.986 136.872H395.986C395.986 142.895 397.382 147.997 400.345 152.012L403.563 149.636ZM399.986 136.872C399.986 131.417 401.344 126.887 403.97 123.18L400.706 120.868C397.529 125.353 395.986 130.722 395.986 136.872H399.986ZM403.981 123.164C406.645 119.325 410.339 116.398 415.139 114.398L413.601 110.706C408.161 112.972 403.834 116.36 400.695 120.884L403.981 123.164ZM415.139 114.398C419.978 112.382 425.513 111.352 431.778 111.352V107.352C425.073 107.352 419.002 108.455 413.601 110.706L415.139 114.398ZM431.778 111.352C441.967 111.352 449.845 113.752 455.622 118.342L458.11 115.21C451.428 109.901 442.581 107.352 431.778 107.352V111.352ZM455.646 118.36C461.439 122.823 464.578 129.116 464.98 137.48L468.976 137.288C468.524 127.903 464.923 120.457 458.086 115.192L455.646 118.36ZM466.978 135.384H439.714V139.384H466.978V135.384ZM441.713 137.322C441.615 134.198 440.616 131.541 438.442 129.71L435.866 132.77C436.935 133.67 437.642 135.109 437.715 137.446L441.713 137.322ZM438.483 129.745C436.509 127.991 433.997 127.192 431.138 127.192V131.192C433.228 131.192 434.727 131.759 435.825 132.735L438.483 129.745ZM431.138 127.192C428.838 127.192 426.79 127.886 425.169 129.39L427.891 132.322C428.66 131.608 429.684 131.192 431.138 131.192V127.192ZM425.169 129.39C423.467 130.971 422.738 133.14 422.738 135.592H426.738C426.738 133.948 427.203 132.96 427.891 132.322L425.169 129.39ZM422.738 135.592C422.738 137.864 423.614 139.856 425.244 141.486L428.072 138.658C427.142 137.728 426.738 136.734 426.738 135.592H422.738ZM425.341 141.577C426.867 142.913 428.692 144.074 430.787 145.076L432.513 141.468C430.683 140.593 429.179 139.621 427.975 138.567L425.341 141.577ZM430.853 145.106C432.879 145.987 435.832 147.115 439.684 148.484L441.024 144.716C437.196 143.355 434.346 142.263 432.447 141.438L430.853 145.106ZM439.705 148.492C445.362 150.434 449.948 152.356 453.491 154.252L455.377 150.724C451.582 148.694 446.781 146.692 441.003 144.708L439.705 148.492ZM453.54 154.277C457.006 156.01 459.97 158.494 462.439 161.758L465.629 159.346C462.807 155.613 459.371 152.72 455.328 150.699L453.54 154.277ZM462.472 161.801C464.863 164.79 466.13 168.673 466.13 173.608H470.13C470.13 167.962 468.666 163.141 465.596 159.303L462.472 161.801ZM466.13 173.608C466.13 178.626 464.861 183.069 462.349 186.994L465.719 189.15C468.668 184.542 470.13 179.342 470.13 173.608H466.13ZM462.334 187.018C459.915 190.921 456.341 194.051 451.516 196.383L453.256 199.985C458.671 197.367 462.863 193.757 465.734 189.126L462.334 187.018ZM451.504 196.389C446.8 198.701 441.142 199.896 434.466 199.896V203.896C441.614 203.896 447.903 202.616 453.268 199.979L451.504 196.389Z" fill="black" mask="url(#path-3-outside-2_3708_3541)"/>
<path d="M88.0141 4.75999V95H62.9261V58.776H32.3341V95H7.24613V4.75999H32.3341V38.68H62.9261V4.75999H88.0141ZM126.947 4.75999V57.112C126.947 61.976 128.056 65.7307 130.275 68.376C132.579 71.0213 136.035 72.344 140.643 72.344C145.251 72.344 148.707 71.0213 151.011 68.376C153.4 65.6453 154.595 61.8907 154.595 57.112V4.75999H179.683V57.112C179.683 65.3893 177.934 72.472 174.435 78.36C170.936 84.1627 166.158 88.5573 160.099 91.544C154.126 94.4453 147.47 95.896 140.131 95.896C132.792 95.896 126.222 94.4453 120.419 91.544C114.702 88.5573 110.179 84.1627 106.851 78.36C103.608 72.5573 101.987 65.4747 101.987 57.112V4.75999H126.947ZM298.84 4.75999V95H273.752V45.208L256.728 95H235.736L218.584 44.824V95H193.496V4.75999H223.832L246.488 63.384L268.632 4.75999H298.84ZM370.209 80.28H338.209L333.345 95H306.977L339.873 4.75999H368.801L401.569 95H375.073L370.209 80.28ZM363.937 61.08L354.209 31.896L344.609 61.08H363.937ZM493.33 95H468.242L434.834 44.568V95H409.746V4.75999H434.834L468.242 55.832V4.75999H493.33V95ZM52.9421 195L35.0221 161.72H32.3341V195H7.24613V104.76H46.7981C54.0515 104.76 60.1955 106.04 65.2301 108.6C70.2648 111.075 74.0621 114.531 76.6221 118.968C79.1821 123.32 80.4621 128.227 80.4621 133.688C80.4621 139.832 78.7555 145.251 75.3421 149.944C72.0141 154.552 67.1075 157.837 60.6221 159.8L80.9741 195H52.9421ZM32.3341 144.568H44.7501C48.1635 144.568 50.7235 143.757 52.4301 142.136C54.1368 140.515 54.9901 138.168 54.9901 135.096C54.9901 132.195 54.0941 129.933 52.3021 128.312C50.5955 126.605 48.0781 125.752 44.7501 125.752H32.3341V144.568ZM116.959 104.76V195H91.8711V104.76H116.959ZM188.846 134.456C187.395 132.067 185.39 130.232 182.83 128.952C180.355 127.672 177.411 127.032 173.998 127.032C167.683 127.032 162.691 129.08 159.022 133.176C155.438 137.272 153.646 142.776 153.646 149.688C153.646 157.453 155.566 163.384 159.406 167.48C163.331 171.491 169.006 173.496 176.43 173.496C185.219 173.496 191.491 169.528 195.246 161.592H170.03V143.544H216.878V167.864C214.915 172.643 212.014 177.123 208.174 181.304C204.419 185.485 199.641 188.941 193.838 191.672C188.035 194.317 181.422 195.64 173.998 195.64C164.953 195.64 156.931 193.72 149.934 189.88C143.022 185.955 137.646 180.536 133.806 173.624C130.051 166.627 128.174 158.648 128.174 149.688C128.174 140.813 130.051 132.92 133.806 126.008C137.646 119.011 143.022 113.592 149.934 109.752C156.846 105.827 164.825 103.864 173.87 103.864C185.219 103.864 194.606 106.595 202.03 112.056C209.454 117.517 214.062 124.984 215.854 134.456H188.846ZM308.889 104.76V195H283.801V158.776H253.209V195H228.121V104.76H253.209V138.68H283.801V104.76H308.889ZM391.214 104.76V124.728H367.15V195H342.062V124.728H318.254V104.76H391.214ZM434.544 195.896C424.048 195.896 415.429 193.421 408.688 188.472C401.947 183.437 398.32 176.269 397.808 166.968H424.56C424.816 170.125 425.755 172.429 427.376 173.88C428.997 175.331 431.088 176.056 433.648 176.056C435.952 176.056 437.829 175.501 439.28 174.392C440.816 173.197 441.584 171.576 441.584 169.528C441.584 166.883 440.347 164.835 437.872 163.384C435.397 161.933 431.387 160.312 425.84 158.52C419.952 156.557 415.173 154.68 411.504 152.888C407.92 151.011 404.763 148.323 402.032 144.824C399.387 141.24 398.064 136.589 398.064 130.872C398.064 125.069 399.515 120.12 402.416 116.024C405.317 111.843 409.328 108.685 414.448 106.552C419.568 104.419 425.371 103.352 431.856 103.352C442.352 103.352 450.715 105.827 456.944 110.776C463.259 115.64 466.629 122.509 467.056 131.384H439.792C439.707 128.653 438.853 126.605 437.232 125.24C435.696 123.875 433.691 123.192 431.216 123.192C429.339 123.192 427.803 123.747 426.608 124.856C425.413 125.965 424.816 127.544 424.816 129.592C424.816 131.299 425.456 132.792 426.736 134.072C428.101 135.267 429.765 136.333 431.728 137.272C433.691 138.125 436.592 139.235 440.432 140.6C446.149 142.563 450.843 144.525 454.512 146.488C458.267 148.365 461.467 151.053 464.112 154.552C466.843 157.965 468.208 162.317 468.208 167.608C468.208 172.984 466.843 177.805 464.112 182.072C461.467 186.339 457.584 189.709 452.464 192.184C447.429 194.659 441.456 195.896 434.544 195.896Z" fill="#F6FEFF"/>
</svg>
