<svg width="" height="" viewBox="0 0 409 5" fill="none" xmlns="http://www.w3.org/2000/svg">
<path fill-rule="evenodd" clip-rule="evenodd" d="M181.676 5.62456C122.998 9.54482 113.928 10.168 104.854 10.7718C94.608 11.4537 84.3572 12.1109 2.65195 17.4638C1.33534 17.55 0.154161 16.9644 0.0137221 16.1557C-0.126717 15.3471 0.826762 14.6216 2.14338 14.5353C83.8457 9.1826 94.0947 8.52558 104.339 7.84382C113.585 7.22851 122.828 6.59307 184.592 2.4673C187.476 2.27463 191.702 1.95689 196.296 1.61144C200.966 1.26033 206.016 0.880576 210.426 0.574402C214.711 0.276916 218.41 0.0478483 220.341 0.00689887C220.805 -0.00294885 221.3 -0.00564629 221.704 0.0221393L221.716 0.0229718C221.848 0.0318262 222.338 0.0648828 222.822 0.228903C223.07 0.313335 223.787 0.590755 224.027 1.18954C224.288 1.84041 223.782 2.32199 223.533 2.50727C223.279 2.69665 223.005 2.80753 222.882 2.85471C222.731 2.9124 222.589 2.95547 222.481 2.98572C222.265 3.04629 222.031 3.09821 221.812 3.14259C221.365 3.23307 220.774 3.33323 220.052 3.44415C206.113 5.58443 191.832 7.36454 177.571 9.14219C171.091 9.9498 164.616 10.7569 158.179 11.597C138.939 14.1081 119.943 16.925 101.785 20.9581C102.184 20.9396 102.588 20.9196 102.998 20.8991L103.049 20.8966C104.156 20.8416 105.313 20.784 106.467 20.7541C129.234 20.1632 164.033 18.0879 184.93 16.8327C202.018 15.8063 219.287 14.4314 236.632 13.0503C266.173 10.6983 295.938 8.32836 325.42 7.6319C325.736 7.62443 325.983 7.61882 326.156 7.6158C326.24 7.61433 326.325 7.61313 326.4 7.613C326.422 7.61296 326.454 7.61299 326.49 7.61342C326.509 7.61366 326.53 7.61401 326.552 7.61454C326.582 7.61527 326.635 7.6168 326.698 7.62047L326.7 7.62061C326.74 7.62287 326.898 7.63199 327.091 7.66306C327.168 7.67546 327.435 7.71899 327.733 7.8308C327.935 7.90634 328.954 8.32123 328.88 9.16836C328.817 9.87956 327.997 10.236 327.88 10.2868L327.874 10.2891C327.646 10.389 327.441 10.4403 327.371 10.4575C327.207 10.4977 327.07 10.5179 327.033 10.5233L327.032 10.5235C326.975 10.5319 326.927 10.5377 326.898 10.541C326.8 10.5522 326.699 10.5603 326.647 10.5645C326.516 10.5749 326.327 10.5883 326.117 10.6031L326.105 10.6039C325.234 10.6655 323.612 10.78 321.74 10.9685C321.239 11.019 320.725 11.0742 320.207 11.1346C329.829 11.2185 339.52 11.1166 349.162 10.9835C358.238 10.8582 367.311 10.0938 376.517 9.31804C376.901 9.28571 377.285 9.25336 377.669 9.22104C387.219 8.41755 396.912 7.63082 406.603 7.63082C407.927 7.63082 409 8.29009 409 9.10334C409 9.91659 407.927 10.5759 406.603 10.5759C397.286 10.5759 387.903 11.3325 378.32 12.1388C377.907 12.1736 377.493 12.2084 377.08 12.2433C367.945 13.0132 358.627 13.7987 349.269 13.9278C338.075 14.0823 326.727 14.1963 315.472 14.0235C315.376 14.022 315.265 14.0207 315.14 14.0192C314.33 14.0093 312.961 13.9926 311.855 13.8969C311.316 13.8503 310.358 13.7525 309.603 13.4509C309.185 13.2841 308.441 12.8965 308.304 12.2113C308.215 11.7715 308.419 11.4097 308.664 11.1462C284.993 12.1677 261.314 14.055 237.615 15.9439C220.221 17.3303 202.816 18.7175 185.396 19.7638C164.544 21.0163 129.597 23.1014 106.669 23.6965C105.609 23.724 104.529 23.7777 103.392 23.8343L103.385 23.8346C102.261 23.8905 101.08 23.9492 99.8961 23.9792C97.5313 24.0392 94.997 23.991 92.4882 23.5436C92.1442 23.4823 91.0667 23.2611 90.6042 22.5339C90.1018 21.744 90.7747 21.1142 91.007 20.925C91.2993 20.6869 91.6542 20.5116 91.8977 20.4015C92.1692 20.2787 92.4641 20.1659 92.7456 20.0663C93.8415 19.6789 95.2753 19.3054 96.0458 19.1252C115.77 14.5102 136.448 11.4224 157.182 8.71632C163.714 7.86381 170.241 7.05037 176.746 6.2396C178.391 6.03461 180.034 5.82979 181.676 5.62456ZM94.6904 22.7973C94.6906 22.7971 94.6936 22.7954 94.6999 22.7923C94.6936 22.7958 94.6902 22.7974 94.6904 22.7973Z" fill="black"/>
</svg>
